<?xml version="1.0" standalone="no"?>
<!DOCTYPE svg PUBLIC "-//W3C//DTD SVG 1.1//EN" "http://www.w3.org/Graphics/SVG/1.1/DTD/svg11.dtd" >
<svg xmlns="http://www.w3.org/2000/svg">
<metadata>Generated by IcoMoon</metadata>
<defs>
<font id="icomoon" horiz-adv-x="1024">
<font-face units-per-em="1024" ascent="960" descent="-64" />
<missing-glyph horiz-adv-x="1024" />
<glyph unicode="&#x20;" horiz-adv-x="512" d="" />
<glyph unicode="&#xe900;" glyph-name="trash" d="M394.24 935.424c-41.984 0-75.776-33.792-75.776-75.776v-32.768h-206.848c-18.432 1.024-32.768-13.312-33.792-30.72-1.024-18.432 13.312-32.768 30.72-33.792 1.024 0 2.048 0 3.072 0h692.224l-20.48-724.992c0-8.192-4.096-12.288-11.264-12.288h-519.168c-6.144 0-10.24 4.096-11.264 12.288l-18.432 649.216c0 18.432-14.336 32.768-32.768 32.768s-32.768-14.336-32.768-32.768c0-1.024 0-1.024 0-2.048l18.432-649.216c1.024-40.96 34.816-74.752 75.776-74.752h520.192c40.96 1.024 74.752 33.792 75.776 74.752l20.48 726.016h44.032c18.432 0 32.768 14.336 32.768 32.768s-14.336 32.768-32.768 32.768h-204.8v32.768c0 41.984-33.792 75.776-75.776 75.776h-237.568zM394.24 869.888h237.568c6.144 0 10.24-4.096 11.264-9.216 0 0 0-1.024 0-1.024v-32.768h-260.096v32.768c0 6.144 4.096 10.24 9.216 11.264 1.024 0 1.024 0 2.048-1.024zM360.448 654.848c-18.432 0-32.768-14.336-31.744-32.768 0 0 0 0 0 0v-454.656c0-18.432 14.336-32.768 32.768-32.768s32.768 14.336 32.768 32.768v453.632c0 18.432-13.312 32.768-31.744 32.768-1.024 1.024-1.024 1.024-2.048 1.024v0zM513.024 654.848c-18.432 0-32.768-14.336-31.744-32.768 0 0 0 0 0 0v-454.656c0-18.432 14.336-32.768 32.768-32.768s32.768 14.336 32.768 32.768v453.632c0 18.432-13.312 32.768-31.744 32.768-2.048 1.024-2.048 1.024-2.048 1.024v0zM664.576 654.848c-18.432 0-32.768-14.336-31.744-32.768 0 0 0 0 0 0v-454.656c0-18.432 14.336-32.768 32.768-32.768s32.768 14.336 32.768 32.768v453.632c0 18.432-13.312 32.768-31.744 32.768-2.048 1.024-2.048 1.024-2.048 1.024v0z" />
<glyph unicode="&#xe901;" glyph-name="transactions" d="M350.208 839.168c52.224 22.528 107.52 33.792 163.84 33.792 234.496-2.048 423.936-193.536 421.888-428.032 0-62.464-14.336-122.88-40.96-179.2-5.12-10.24-1.024-22.528 10.24-27.648 3.072-1.024 6.144-2.048 9.216-2.048 8.192 0 15.36 5.12 19.456 12.288 110.592 233.472 12.288 512-221.184 622.592-61.44 29.696-129.024 45.056-197.632 45.056-62.464 0-123.904-12.288-180.224-36.864-10.24-5.12-15.36-17.408-11.264-27.648 3.072-12.288 15.36-17.408 26.624-12.288 0 0 0 0 0 0zM673.792 56.832c-52.224-22.528-107.52-33.792-163.84-33.792-235.52 2.048-423.936 194.56-422.912 429.056 0 62.464 14.336 122.88 40.96 179.2 5.12 10.24 1.024 22.528-10.24 27.648-10.24 5.12-22.528 1.024-27.648-10.24 0 0 0 0 0 0-110.592-233.472-11.264-512 221.184-622.592 61.44-29.696 129.024-45.056 197.632-45.056 62.464 0 123.904 12.288 180.224 36.864 10.24 5.12 15.36 17.408 11.264 27.648-3.072 11.264-15.36 16.384-26.624 11.264 0 0 0 0 0 0zM920.576 190.976l-73.728-2.048-3.072 79.872c0 11.264-10.24 20.48-21.504 20.48s-20.48-10.24-20.48-21.504v0l3.072-95.232c0-14.336 12.288-25.6 26.624-25.6h1.024l90.112 3.072c11.264 1.024 20.48 10.24 20.48 21.504-1.024 11.264-10.24 20.48-22.528 19.456 0 0 0 0 0 0zM836.608 107.008l-73.728-2.048-3.072 79.872c0 11.264-10.24 20.48-21.504 20.48s-20.48-10.24-20.48-21.504l3.072-95.232c0-14.336 12.288-25.6 26.624-25.6h1.024l90.112 3.072c11.264 0 20.48 10.24 20.48 21.504s-10.24 20.48-22.528 19.456v0zM93.184 705.024l73.728 2.048 3.072-79.872c0-11.264 9.216-20.48 20.48-20.48h1.024c11.264 1.024 20.48 10.24 20.48 21.504l-3.072 96.256c0 14.336-12.288 25.6-26.624 25.6l-90.112-3.072c-11.264-1.024-20.48-10.24-20.48-21.504 0-12.288 9.216-21.504 21.504-20.48 0 0 0 0 0 0zM177.152 788.992l73.728 2.048 3.072-79.872c0-11.264 9.216-20.48 20.48-20.48h1.024c11.264 1.024 20.48 10.24 20.48 21.504l-3.072 95.232c0 14.336-12.288 25.6-26.624 25.6 0 0 0 0 0 0l-90.112-3.072c-11.264-2.048-19.456-12.288-17.408-24.576 1.024-8.192 9.216-15.36 18.432-16.384zM510.976 278.016c14.336 0 26.624 12.288 26.624 26.624 0 0 0 0 0 0v20.48c39.936 3.072 69.632 36.864 69.632 76.8 0 55.296-47.104 67.584-81.92 76.8-22.528 6.144-40.96 10.24-40.96 24.576 0 10.24 11.264 15.36 23.552 15.36 8.192 1.024 16.384-3.072 21.504-9.216 6.144-8.192 15.36-12.288 24.576-12.288 18.432 0 32.768 14.336 32.768 32.768 0 9.216-4.096 17.408-10.24 23.552-11.264 9.216-25.6 16.384-39.936 18.432v18.432c0 14.336-12.288 26.624-26.624 26.624s-26.624-12.288-26.624-26.624v0-17.408c-37.888-3.072-66.56-34.816-65.536-71.68 0-55.296 44.032-65.536 79.872-74.752 22.528-6.144 41.984-10.24 41.984-25.6 0-12.288-13.312-19.456-27.648-19.456-9.216 0-17.408 3.072-23.552 10.24-6.144 8.192-15.36 14.336-26.624 14.336h-5.12c-17.408 0-31.744-14.336-31.744-31.744 0-7.168 3.072-14.336 7.168-20.48 14.336-15.36 32.768-25.6 53.248-28.672v-19.456c-1.024-15.36 11.264-26.624 25.6-27.648z" />
<glyph unicode="&#xe902;" glyph-name="ticket" d="M967.68 808.448h-911.36c-13.312 0-24.576-10.24-24.576-23.552v-240.64c0-13.312 11.264-24.576 24.576-23.552 39.936 0 71.68-32.768 71.68-71.68 0-39.936-32.768-71.68-71.68-71.68-13.312 0-24.576-10.24-24.576-23.552v-240.64c0-13.312 11.264-24.576 24.576-23.552h911.36c13.312 0 24.576 10.24 24.576 23.552v238.592c0 13.312-11.264 24.576-24.576 23.552-39.936 0-71.68 32.768-71.68 71.68 0 39.936 32.768 71.68 71.68 71.68 13.312 0 24.576 10.24 24.576 23.552v242.688c0 13.312-11.264 23.552-24.576 23.552zM943.104 565.76c-64.512-11.264-108.544-73.728-96.256-138.24 9.216-49.152 47.104-88.064 96.256-96.256v-194.56h-862.208v194.56c64.512 11.264 108.544 73.728 96.256 138.24-9.216 49.152-47.104 88.064-96.256 96.256v194.56h862.208v-194.56z" />
<glyph unicode="&#xe903;" glyph-name="store" d="M61.44 19.968c-12.288 0-22.528 10.24-22.528 22.528v811.008c0 12.288 10.24 22.528 22.528 22.528 0 0 0 0 0 0h901.12c12.288 0 22.528-10.24 22.528-22.528v-811.008c0-12.288-10.24-22.528-22.528-22.528h-901.12zM466.944 380.416c12.288 0 22.528-10.24 22.528-22.528v-292.864h450.56v518.144c-49.152-37.888-118.784-28.672-156.672 20.48 0 1.024-1.024 1.024-1.024 2.048-92.16 28.672-192.512 12.288-270.336-46.080-35.84 50.176-105.472 61.44-155.648 24.576-9.216-7.168-18.432-15.36-24.576-24.576-35.84 50.176-106.496 61.44-155.648 24.576-9.216-7.168-17.408-14.336-24.576-23.552-24.576 0-48.128 8.192-67.584 23.552v-518.144h135.168v291.84c0 12.288 10.24 22.528 22.528 22.528 0 0 0 0 0 0h225.28zM264.192 65.024h180.224v270.336h-180.224v-270.336zM804.864 673.28c0-36.864 30.72-67.584 67.584-67.584s67.584 30.72 67.584 67.584v0 22.528h-135.168v-22.528zM624.64 673.28c0-36.864 29.696-67.584 67.584-67.584 36.864 0 67.584 30.72 67.584 67.584v22.528h-135.168v-22.528zM444.416 673.28c0-36.864 30.72-67.584 67.584-67.584s67.584 30.72 67.584 67.584v22.528h-135.168v-22.528zM264.192 673.28c0-36.864 30.72-67.584 67.584-67.584s67.584 30.72 67.584 67.584v22.528h-135.168v-22.528zM83.968 673.28c0-36.864 30.72-67.584 67.584-67.584s67.584 29.696 67.584 67.584v22.528h-135.168v-22.528zM83.968 740.864h856.064v90.112h-856.064v-90.112zM647.168 200.192c-12.288 0-22.528 9.216-23.552 21.504 0 12.288 9.216 22.528 21.504 23.552 1.024 0 1.024 0 2.048 0h135.168c12.288 0 22.528-11.264 21.504-23.552 0-12.288-10.24-21.504-21.504-21.504h-135.168zM647.168 335.36c-12.288 0-22.528 9.216-23.552 21.504 0 12.288 9.216 22.528 21.504 23.552 1.024 0 1.024 0 2.048 0h135.168c12.288 0 22.528-11.264 21.504-23.552 0-12.288-10.24-21.504-21.504-21.504h-135.168z" />
<glyph unicode="&#xe904;" glyph-name="share" d="M276.48 379.392c37.888 22.528 51.2 70.656 28.672 108.544s-70.656 51.2-108.544 28.672c-37.888-22.528-51.2-70.656-28.672-108.544 21.504-37.888 70.656-51.2 108.544-28.672 0 0 0 0 0 0zM350.208 336.384c-61.44-62.464-161.792-62.464-224.256-1.024s-62.464 161.792-1.024 224.256 160.768 62.464 223.232 1.024c1.024-1.024 1.024-1.024 2.048-2.048l283.648 163.84c-23.552 84.992 26.624 173.056 110.592 196.608s172.032-25.6 195.584-110.592c23.552-84.992-25.6-172.032-110.592-195.584-55.296-15.36-115.712 1.024-155.648 41.984l-283.648-163.84c8.192-27.648 8.192-57.344 0-86.016l282.624-162.816c61.44 62.464 161.792 63.488 224.256 2.048s63.488-161.792 2.048-224.256c-61.44-62.464-161.792-63.488-224.256-2.048-40.96 40.96-57.344 100.352-41.984 155.648l-282.624 162.816zM827.392 696.832c37.888 21.504 51.2 70.656 28.672 108.544-21.504 37.888-70.656 51.2-108.544 28.672-37.888-21.504-51.2-70.656-28.672-108.544 21.504-37.888 69.632-51.2 108.544-28.672 0 0 0 0 0 0zM745.472 60.928c37.888-21.504 87.040-9.216 108.544 28.672s9.216 87.040-28.672 108.544c-37.888 21.504-86.016 9.216-108.544-28.672s-9.216-86.016 28.672-108.544c0 0 0 0 0 0z" />
<glyph unicode="&#xe905;" glyph-name="search" d="M963.584 67.072l-240.64 239.616c126.976 167.936 94.208 406.528-73.728 533.504s-406.528 94.208-533.504-73.728-94.208-406.528 73.728-533.504c136.192-102.4 324.608-102.4 459.776 0l239.616-239.616c20.48-20.48 53.248-20.48 73.728 0 21.504 20.48 21.504 53.248 1.024 73.728v0zM147.456 535.040c0 151.552 122.88 274.432 274.432 274.432s274.432-122.88 274.432-274.432c0-72.704-28.672-141.312-78.848-193.536h-2.048v-2.048c-107.52-106.496-281.6-105.472-388.096 2.048-51.2 51.2-79.872 120.832-79.872 193.536z" />
<glyph unicode="&#xe906;" glyph-name="report" d="M624.64-26.112h-451.584c-24.576 0-45.056 20.48-45.056 45.056v0 858.112c0 24.576 19.456 45.056 45.056 45.056 0 0 0 0 0 0h676.864c24.576 0 45.056-20.48 45.056-45.056v-664.576l-238.592-238.592h-31.744zM173.056 18.944h451.584v181.248c0 24.576 20.48 45.056 45.056 45.056h181.248v631.808h-677.888v-858.112zM669.696 50.688l148.48 148.48h-148.48v-148.48zM263.168 109.056v45.056h271.36v-45.056h-271.36zM263.168 244.224v45.056h271.36v-45.056h-271.36zM234.496 413.184l87.040 157.696c6.144 11.264 19.456 15.36 30.72 9.216 1.024-1.024 3.072-2.048 4.096-3.072l88.064-78.848 77.824 210.944c4.096 11.264 17.408 17.408 28.672 13.312 4.096-1.024 7.168-4.096 9.216-7.168l73.728-90.112 95.232 183.296 39.936-20.48-110.592-215.040c-6.144-11.264-19.456-15.36-30.72-9.216-3.072 1.024-5.12 3.072-7.168 6.144l-70.656 86.016-75.776-204.8c-4.096-11.264-17.408-17.408-28.672-13.312-3.072 1.024-5.12 2.048-7.168 4.096l-92.16 81.92-72.704-132.096-38.912 21.504z" />
<glyph unicode="&#xe907;" glyph-name="receipt" d="M375.808-22.016l-91.136 80.896-74.752-68.608c-9.216-9.216-23.552-12.288-35.84-7.168-12.288 6.144-19.456 18.432-18.432 31.744v821.248c-2.048 48.128 35.84 88.064 82.944 90.112 1.024 0 1.024 0 2.048 0h543.744c48.128-1.024 86.016-40.96 84.992-89.088 0-1.024 0-1.024 0-2.048v-820.224c1.024-13.312-6.144-26.624-19.456-31.744-12.288-5.12-26.624-3.072-35.84 7.168l-74.752 68.608-91.136-80.896c-13.312-11.264-32.768-11.264-46.080 0l-90.112 81.92-90.112-80.896c-6.144-5.12-14.336-8.192-22.528-9.216-8.192 0-17.408 3.072-23.552 8.192zM535.552 98.816l89.088-80.896 91.136 80.896c12.288 12.288 31.744 12.288 44.032 1.024 0 0 0 0 1.024-1.024l63.488-60.416v797.696c2.048 23.552-15.36 44.032-38.912 45.056-1.024 0-1.024 0-2.048 0h-543.744c-23.552-1.024-40.96-20.48-39.936-44.032 0-1.024 0-1.024 0-2.048v-796.672l63.488 60.416c6.144 6.144 14.336 9.216 22.528 9.216s16.384-3.072 22.528-9.216l90.112-80.896 90.112 80.896c6.144 6.144 14.336 9.216 23.552 9.216h1.024c8.192 0 16.384-4.096 22.528-9.216zM310.272 179.712c-12.288 0-22.528 10.24-21.504 22.528 0 12.288 10.24 21.504 21.504 21.504h403.456c12.288 0 22.528-10.24 21.504-22.528 0-12.288-10.24-21.504-21.504-21.504h-403.456zM310.272 268.8c-12.288 0-22.528 10.24-21.504 22.528 0 12.288 10.24 21.504 21.504 21.504h403.456c12.288 0 22.528-10.24 21.504-22.528 0-12.288-10.24-21.504-21.504-21.504h-403.456zM310.272 369.152c-12.288 0-22.528 10.24-21.504 22.528 0 12.288 10.24 21.504 21.504 21.504h205.824c12.288 0 22.528-10.24 21.504-22.528 0-12.288-10.24-21.504-21.504-21.504h-205.824zM521.216 563.712c0 40.96 33.792 74.752 74.752 74.752s74.752-33.792 74.752-74.752c0-40.96-33.792-74.752-74.752-74.752v0c-41.984 0-74.752 32.768-74.752 74.752 0-1.024 0-1.024 0 0v0zM565.248 563.712c0-16.384 13.312-29.696 29.696-29.696s29.696 13.312 29.696 29.696c0 16.384-13.312 29.696-29.696 29.696v0c-16.384 0-29.696-13.312-29.696-29.696 0 0 0 0 0 0v0zM396.288 508.416c-6.144 0-11.264 2.048-15.36 6.144-8.192 9.216-8.192 23.552 0 32.768l238.592 237.568c9.216 7.168 23.552 5.12 30.72-4.096 6.144-8.192 6.144-19.456 0-26.624l-238.592-238.592c-4.096-4.096-9.216-7.168-15.36-7.168v0zM354.304 730.624c0 40.96 33.792 74.752 74.752 74.752s74.752-33.792 74.752-74.752c0-40.96-33.792-74.752-74.752-74.752 0 0 0 0 0 0-41.984 0-75.776 33.792-74.752 74.752v0zM398.336 730.624c0-16.384 13.312-29.696 29.696-29.696s29.696 13.312 29.696 29.696c0 16.384-13.312 29.696-29.696 29.696v0c-16.384 0-29.696-13.312-29.696-29.696v0z" />
<glyph unicode="&#xe908;" glyph-name="qr" d="M55.296 934.4c-16.384 0-30.72-13.312-30.72-30.72 0 0 0 0 0 0v-237.568c0-16.384 13.312-30.72 30.72-30.72s30.72 13.312 30.72 30.72v0 207.872h206.848c16.384 0 30.72 13.312 30.72 30.72s-13.312 30.72-30.72 30.72h-237.568zM728.064 934.4c-16.384-1.024-29.696-16.384-27.648-32.768 1.024-16.384 14.336-28.672 30.72-27.648h206.848v-206.848c0-16.384 13.312-30.72 30.72-30.72 16.384 0 30.72 13.312 30.72 30.72v237.568c0 16.384-13.312 30.72-30.72 30.72h-240.64zM192.512 799.232c-16.384 0-30.72-13.312-30.72-29.696 0 0 0 0 0 0v-208.896c0-16.384 13.312-30.72 29.696-30.72 0 0 0 0 0 0h189.44c16.384 0 30.72 13.312 30.72 30.72 0 0 0 0 0 0v0 208.896c0 16.384-13.312 29.696-30.72 30.72l-188.416-1.024zM462.848 799.232c-16.384-1.024-29.696-16.384-27.648-32.768 1.024-16.384 14.336-28.672 30.72-27.648h57.344v-204.8c0-16.384 13.312-30.72 29.696-30.72s30.72 13.312 30.72 29.696v236.544c0 16.384-13.312 29.696-30.72 30.72h-88.064c1.024-1.024 0-1.024-2.048-1.024zM644.096 799.232c-16.384 0-30.72-13.312-30.72-30.72v-208.896c0-16.384 13.312-30.72 29.696-30.72 0 0 0 0 0 0h189.44c16.384 0 30.72 13.312 30.72 29.696 0 0 0 0 0 0v210.944c0 16.384-13.312 30.72-30.72 30.72l-188.416-1.024zM222.208 738.816h128v-148.48h-128v148.48zM674.816 738.816h128v-148.48h-128v148.48zM187.392 480.768c-16.384-1.024-29.696-16.384-27.648-32.768 1.024-16.384 14.336-28.672 30.72-27.648h249.856v-292.864c0-16.384 13.312-30.72 29.696-30.72 0 0 0 0 0 0h99.328c16.384 0 30.72 13.312 30.72 29.696s-13.312 30.72-29.696 30.72h-70.656v293.888c0 16.384-13.312 30.72-30.72 30.72h-278.528c-1.024-1.024-2.048-1.024-3.072-1.024zM562.176 475.648c-16.384 0-30.72-13.312-30.72-30.72 0 0 0 0 0 0v-140.288c0-16.384 13.312-30.72 30.72-30.72 16.384 0 30.72 13.312 30.72 30.72 0 0 0 0 0 0v110.592h241.664c16.384 0 30.72 13.312 30.72 30.72 0 16.384-13.312 30.72-30.72 30.72l-272.384-1.024zM645.12 367.104c-16.384 0-30.72-13.312-30.72-29.696 0 0 0 0 0 0v-208.896c0-16.384 13.312-30.72 29.696-30.72s30.72 13.312 30.72 29.696v0 179.2h128v-178.176c0-16.384 13.312-30.72 29.696-30.72s30.72 13.312 30.72 29.696v208.896c0 16.384-13.312 30.72-29.696 30.72 0 0 0 0 0 0h-188.416zM188.416 367.104c-15.36-2.048-27.648-14.336-27.648-30.72v-208.896c0-16.384 13.312-30.72 29.696-30.72 0 0 0 0 0 0h189.44c16.384 0 30.72 13.312 30.72 30.72 0 0 0 0 0 0v208.896c0 16.384-13.312 30.72-30.72 30.72h-191.488zM222.208 305.664h128v-148.48h-128v148.48zM55.296 260.608c-16.384 0-29.696-14.336-29.696-30.72v-237.568c0-16.384 13.312-30.72 30.72-30.72h237.568c16.384 0 30.72 13.312 30.72 29.696s-13.312 30.72-29.696 30.72v0h-208.896v207.872c0 16.384-13.312 30.72-29.696 30.72 0 0 0 0-1.024 0v0zM967.68 260.608c-16.384 0-29.696-14.336-29.696-30.72v-206.848h-207.872c-16.384 0-30.72-13.312-30.72-30.72 0-16.384 13.312-30.72 30.72-30.72h237.568c16.384 0 30.72 13.312 30.72 30.72v237.568c0 16.384-13.312 30.72-29.696 30.72h-1.024z" />
<glyph unicode="&#xe909;" glyph-name="products" d="M503.808-17.92l-448.512 200.704c-7.168 3.072-11.264 9.216-11.264 16.384v496.64c0 7.168 4.096 14.336 11.264 16.384l448.512 201.728c5.12 3.072 11.264 3.072 16.384 0l448.512-201.728c7.168-3.072 11.264-9.216 11.264-16.384v-496.64c0-7.168-4.096-14.336-11.264-16.384l-448.512-201.728c-5.12-2.048-11.264-2.048-16.384 1.024v0zM539.648 477.696v-429.056l385.024 172.032v429.056l-385.024-172.032zM99.328 220.672l385.024-172.032v429.056l-159.744 70.656v-120.832c-1.024-15.36-13.312-26.624-28.672-26.624-14.336 1.024-25.6 12.288-26.624 26.624v145.408l-169.984 76.8v-429.056zM357.376 592.384l154.624-68.608 374.784 167.936-154.624 68.608-374.784-167.936zM137.216 690.688l155.648-68.608 374.784 167.936-155.648 68.608-374.784-167.936zM619.52 219.648c-7.168 5.12-12.288 13.312-12.288 22.528v128c0 10.24 6.144 19.456 16.384 23.552l194.56 87.040c8.192 4.096 18.432 3.072 26.624-2.048 8.192-4.096 13.312-12.288 12.288-21.504v-126.976c0-10.24-6.144-19.456-16.384-23.552l-194.56-87.040c-3.072-2.048-7.168-3.072-11.264-3.072-5.12-1.024-11.264 1.024-15.36 3.072zM662.528 351.744v-67.584l140.288 61.44v67.584l-140.288-61.44z" />
<glyph unicode="&#xe90a;" glyph-name="print" d="M259.072 16.896c-9.216 0-17.408 8.192-16.384 17.408 0 0 0 0 0 0v155.648h-99.328c-52.224 0-94.208 43.008-94.208 95.232v321.536c0 52.224 41.984 95.232 94.208 95.232h138.24v158.72c0 9.216 7.168 17.408 16.384 18.432 0 0 0 0 0 0h428.032c9.216 0 17.408-8.192 16.384-17.408 0 0 0 0 0 0v-158.72h138.24c52.224 0 94.208-43.008 94.208-95.232v-321.536c0-52.224-41.984-95.232-94.208-95.232 0 0 0 0 0 0h-99.328v-154.624c0-9.216-7.168-17.408-16.384-18.432 0 0 0 0 0 0h-505.856zM277.504 207.36v-155.648h470.016v311.296h-470.016v-155.648zM764.928 397.824c9.216 0 16.384-7.168 16.384-16.384 0 0 0 0 0-1.024v-155.648h99.328c32.768 0 59.392 27.648 59.392 60.416 0 0 0 0 0 0v0 321.536c0 32.768-26.624 60.416-59.392 60.416 0 0 0 0 0 0h-738.304c-32.768 0-59.392-27.648-59.392-60.416 0 0 0 0 0 0v-321.536c0-32.768 25.6-60.416 59.392-60.416 0 0 0 0 0 0h99.328v155.648c0 9.216 7.168 17.408 16.384 17.408 0 0 0 0 1.024 0h505.856zM316.416 701.952h392.192v141.312h-392.192v-141.312zM375.808 110.080c-9.216 0-17.408 8.192-17.408 17.408s8.192 17.408 17.408 17.408h253.952c9.216 0 17.408-7.168 18.432-16.384 0-9.216-7.168-17.408-16.384-18.432-1.024 0-1.024 0-2.048 0h-253.952zM375.808 187.904c-9.216 0-17.408 8.192-17.408 17.408s8.192 17.408 17.408 17.408h253.952c9.216 0 17.408-7.168 18.432-16.384 0-9.216-7.168-17.408-16.384-18.432-1.024 0-1.024 0-2.048 0h-253.952zM375.808 265.728c-9.216 0-17.408 8.192-17.408 17.408s8.192 17.408 17.408 17.408h78.848c9.216 0 17.408-8.192 17.408-17.408s-8.192-17.408-17.408-17.408v0h-78.848zM617.472 543.232c-9.216 0-17.408 8.192-17.408 17.408s8.192 17.408 17.408 17.408h179.2c9.216 0 17.408-8.192 17.408-17.408s-8.192-17.408-17.408-17.408h-179.2z" />
<glyph unicode="&#xe90b;" glyph-name="pdf" d="M932.864 732.672l-204.8 204.8c-3.072 3.072-7.168 5.12-12.288 5.12h-495.616c-35.84 0-65.536-29.696-65.536-65.536v-326.656c0-9.216 7.168-17.408 17.408-17.408 9.216 0 17.408 7.168 17.408 17.408v325.632c0 17.408 14.336 31.744 31.744 31.744h479.232v-187.392c0-9.216 7.168-17.408 17.408-17.408h187.392v-683.008c0-17.408-14.336-31.744-31.744-31.744h-653.312c-17.408 0-31.744 14.336-31.744 31.744v87.040c0 9.216-7.168 17.408-17.408 17.408-9.216 0-17.408-7.168-17.408-17.408v-87.040c0-35.84 29.696-65.536 65.536-65.536h651.264c35.84 0 65.536 29.696 65.536 65.536v700.416c2.048 4.096 0 9.216-3.072 12.288zM733.184 737.792v145.408l146.432-146.432h-146.432zM295.936 383.488c-11.264 6.144-24.576 8.192-36.864 7.168h-30.72v-71.68h33.792c12.288-2.048 24.576 2.048 33.792 9.216 7.168 7.168 11.264 17.408 11.264 27.648 2.048 11.264-3.072 20.48-11.264 27.648zM432.128 389.632h-29.696v-121.856h33.792c2.048 0 3.072 0 5.12 0 16.384 0 31.744 5.12 45.056 15.36 12.288 12.288 18.432 28.672 17.408 45.056-2.048 41.984-25.6 61.44-71.68 61.44zM746.496 158.208c0 0 0 0 0 0 30.72 0 55.296 24.576 55.296 55.296v230.4c0 0 0 1.024 0 1.024 0 30.72-24.576 54.272-55.296 54.272h-605.184c0 0-1.024 0-1.024 0-30.72 0-54.272-24.576-54.272-55.296v-230.4c0 0 0-1.024 0-1.024 0-30.72 24.576-54.272 55.296-54.272h605.184zM318.464 306.688c-17.408-11.264-37.888-16.384-58.368-14.336h-31.744v-52.224h-29.696v178.176h60.416c20.48 2.048 41.984-4.096 59.392-15.36 13.312-12.288 20.48-29.696 18.432-48.128 2.048-18.432-5.12-35.84-18.432-48.128zM507.904 263.68c-21.504-17.408-49.152-26.624-75.776-24.576h-58.368v177.152h60.416c26.624 2.048 52.224-7.168 73.728-23.552 17.408-16.384 26.624-39.936 25.6-64.512 0-22.528-9.216-46.080-25.6-64.512zM689.152 389.632h-88.064v-49.152h78.848v-28.672h-78.848v-72.704h-29.696v178.176h118.784l-1.024-27.648z" />
<glyph unicode="&#xe90c;" glyph-name="order" d="M860.16 28.16c-9.216 0-15.36 7.168-15.36 15.36 0 9.216 7.168 15.36 15.36 15.36v0h63.488c17.408 0 31.744 14.336 31.744 31.744v31.744h-294.912l-26.624-26.624c-3.072-3.072-7.168-5.12-11.264-5.12h-221.184c-4.096 0-8.192 2.048-11.264 5.12l-26.624 26.624h-294.912v-31.744c0-17.408 14.336-31.744 31.744-31.744v0h601.088c9.216 0 15.36-7.168 15.36-15.36 0-9.216-7.168-15.36-15.36-15.36h-601.088c-34.816 0-63.488 28.672-63.488 63.488 0 0 0 0 0 0v47.104c0 9.216 7.168 15.36 15.36 15.36h15.36v570.368c0 34.816 28.672 63.488 63.488 63.488v0h95.232c9.216 0 15.36-7.168 15.36-16.384 0-8.192-7.168-15.36-15.36-15.36h-95.232c-17.408 0-31.744-14.336-31.744-31.744 0 0 0 0 0 0v-569.344h269.312c4.096 0 8.192-2.048 11.264-5.12l26.624-26.624h208.896l26.624 26.624c3.072 3.072 7.168 5.12 11.264 5.12h316.416c9.216 0 15.36-7.168 15.36-15.36v-47.104c0-34.816-28.672-63.488-63.488-63.488v0h-61.44zM764.928 28.16c-9.216 0-15.36 7.168-15.36 15.36 0 9.216 7.168 15.36 15.36 15.36v0h31.744c9.216 0 15.36-7.168 15.36-15.36 0-9.216-7.168-15.36-15.36-15.36h-31.744zM495.616 155.136c-9.216 0-15.36 7.168-15.36 15.36 0 9.216 7.168 15.36 15.36 15.36h31.744c9.216 0 15.36-7.168 15.36-15.36 0-9.216-7.168-15.36-15.36-15.36h-31.744zM923.648 202.24v522.24c0 17.408-14.336 31.744-31.744 31.744 0 0 0 0 0 0h-95.232c-9.216 0-15.36 7.168-15.36 16.384 0 8.192 7.168 15.36 15.36 15.36h95.232c34.816 0 63.488-28.672 63.488-63.488v-522.24c0-9.216-7.168-15.36-15.36-15.36-9.216 0-16.384 7.168-16.384 15.36zM163.84 218.624c-9.216 0-15.36 7.168-15.36 15.36v458.752c0 9.216 7.168 15.36 15.36 15.36h47.104c9.216 0 15.36-7.168 15.36-15.36 0-9.216-7.168-15.36-15.36-15.36h-31.744v-427.008h664.576v427.008h-31.744c-9.216 0-15.36 7.168-15.36 15.36 0 9.216 7.168 15.36 15.36 15.36h48.128c9.216 0 15.36-7.168 15.36-15.36v-458.752c0-9.216-7.168-15.36-15.36-15.36h-696.32zM505.856 331.264v0l-222.208 110.592c-5.12 3.072-9.216 8.192-9.216 14.336v284.672c0 6.144 3.072 11.264 9.216 14.336l221.184 110.592c4.096 2.048 10.24 2.048 14.336 0l222.208-110.592c1.024 0 2.048-1.024 3.072-2.048 0 0 1.024 0 1.024-1.024 1.024-1.024 2.048-3.072 3.072-4.096 0 0 0 0 0 0s0-1.024 0-1.024c1.024-1.024 1.024-3.072 1.024-4.096 0 0 0-1.024 0-1.024v-285.696c0-6.144-3.072-11.264-9.216-14.336l-221.184-110.592c-2.048-1.024-4.096-2.048-6.144-2.048-3.072 0-6.144 0-7.168 2.048v0zM528.384 408.064v-37.888l189.44 95.232v249.856l-189.44-95.232v-148.48c0-9.216-7.168-15.36-15.36-15.36-9.216 0-15.36 7.168-15.36 15.36v148.48l-156.672 74.752c-7.168 4.096-10.24 14.336-5.12 21.504 4.096 7.168 12.288 9.216 19.456 7.168l156.672-75.776 186.368 93.184-186.368 92.16-205.824-102.4v-265.216l189.44-95.232v37.888c0 9.216 7.168 15.36 15.36 15.36 10.24 0 17.408-6.144 17.408-15.36v0z" />
<glyph unicode="&#xe90d;" glyph-name="net" d="M195.584 92.672v0l3.072-3.072c179.2-157.696 447.488-157.696 626.688 0l3.072 3.072c196.608 173.056 215.040 473.088 41.984 668.672-13.312 14.336-26.624 28.672-41.984 41.984v0l-3.072 3.072c-179.2 157.696-447.488 157.696-626.688 0l-3.072-3.072c-196.608-173.056-215.040-473.088-41.984-668.672 13.312-15.36 27.648-28.672 41.984-41.984zM266.24 431.616c0-82.944 13.312-165.888 38.912-244.736-34.816-16.384-66.56-37.888-96.256-62.464-87.040 79.872-137.216 190.464-141.312 307.2h198.656zM346.112 169.472c48.128 18.432 98.304 29.696 149.504 31.744v-196.608c-59.392 10.24-112.64 72.704-149.504 164.864zM528.384 4.608v196.608c51.2-2.048 101.376-13.312 149.504-31.744-36.864-92.16-90.112-154.624-149.504-164.864zM528.384 232.96v198.656h197.632c-1.024-78.848-13.312-156.672-37.888-232.448-51.2 21.504-105.472 32.768-159.744 33.792zM528.384 464.384v198.656c55.296 2.048 109.568 13.312 160.768 33.792 24.576-74.752 36.864-153.6 37.888-232.448h-198.656zM528.384 694.784v196.608c59.392-9.216 112.64-72.704 149.504-164.864-48.128-18.432-98.304-28.672-149.504-31.744zM495.616 891.392v-196.608c-51.2 2.048-101.376 13.312-149.504 31.744 36.864 92.16 90.112 154.624 149.504 164.864zM495.616 663.040v-198.656h-196.608c1.024 78.848 13.312 156.672 37.888 232.448 50.176-21.504 104.448-32.768 158.72-33.792zM495.616 431.616v-198.656c-55.296-2.048-109.568-13.312-160.768-33.792-24.576 74.752-36.864 153.6-37.888 232.448h198.656zM232.448 101.888c25.6 20.48 54.272 38.912 82.944 53.248 19.456-52.224 49.152-99.328 89.088-138.24-62.464 15.36-121.856 45.056-172.032 84.992zM708.608 155.136c29.696-14.336 57.344-32.768 82.944-53.248-50.176-40.96-109.568-70.656-172.032-86.016 38.912 39.936 69.632 87.040 89.088 139.264v0zM815.104 124.416c-29.696 24.576-61.44 45.056-96.256 62.464 25.6 78.848 38.912 161.792 38.912 244.736h198.656c-4.096-117.76-55.296-228.352-141.312-307.2v0zM956.416 464.384h-198.656c0 82.944-13.312 165.888-38.912 244.736 34.816 16.384 66.56 37.888 96.256 62.464 87.040-79.872 137.216-190.464 141.312-307.2zM791.552 794.112c-25.6-20.48-54.272-38.912-82.944-53.248-19.456 52.224-49.152 99.328-89.088 138.24 62.464-15.36 121.856-45.056 172.032-84.992zM315.392 740.864c-29.696 14.336-57.344 32.768-82.944 53.248 50.176 40.96 109.568 70.656 172.032 86.016-38.912-39.936-69.632-87.040-89.088-139.264zM208.896 772.608c29.696-24.576 61.44-45.056 96.256-62.464-25.6-78.848-38.912-161.792-38.912-244.736h-198.656c4.096 116.736 55.296 227.328 141.312 307.2z" />
<glyph unicode="&#xe90e;" glyph-name="minus" d="M512 920.064c-260.096 0-472.064-211.968-472.064-472.064s211.968-472.064 472.064-472.064 472.064 211.968 472.064 472.064-211.968 472.064-472.064 472.064zM512 31.232c-229.376 0-416.768 187.392-416.768 416.768s187.392 416.768 416.768 416.768 416.768-187.392 416.768-416.768-187.392-416.768-416.768-416.768zM712.704 482.816h-401.408c-19.456 0-34.816-15.36-34.816-34.816s15.36-34.816 34.816-34.816c0-1.024 403.456-1.024 401.408 0 19.456 0 34.816 15.36 34.816 34.816s-15.36 34.816-34.816 34.816z" />
<glyph unicode="&#xe90f;" glyph-name="menu" d="M104.448 266.752h816.128c24.576 0 45.056-20.48 45.056-45.056v0c0-24.576-20.48-45.056-45.056-45.056h-816.128c-24.576 0-45.056 20.48-45.056 45.056v0c-1.024 24.576 19.456 45.056 45.056 45.056zM104.448 493.056h816.128c24.576 0 45.056-20.48 45.056-45.056v0c0-24.576-20.48-45.056-45.056-45.056h-816.128c-24.576 0-45.056 20.48-45.056 45.056v0c-1.024 24.576 19.456 45.056 45.056 45.056zM104.448 720.384h816.128c24.576 0 45.056-20.48 45.056-45.056v0c0-24.576-20.48-45.056-45.056-45.056h-816.128c-24.576 0-45.056 20.48-45.056 45.056v0c-1.024 24.576 19.456 45.056 45.056 45.056z" />
<glyph unicode="&#xe910;" glyph-name="mail" d="M1004.544 143.872c0 1.024 0 1.024 0 2.048v604.16c0 1.024 0 2.048-1.024 3.072 0 3.072-1.024 5.12-3.072 7.168 0 1.024-1.024 1.024-1.024 2.048v0c-1.024 1.024-3.072 3.072-5.12 3.072v0c0 0-1.024 0-2.048 0s-2.048 0-3.072 1.024h-954.368c-2.048 0-4.096 0-5.12-1.024h-1.024c0 0-1.024-1.024-1.024-1.024-1.024-1.024-3.072-2.048-4.096-3.072v0c0-1.024-1.024-1.024-1.024-2.048-2.048-1.024-3.072-4.096-3.072-7.168 0-1.024 0-1.024 0-2.048v-605.184c0-1.024 0-1.024 0-2.048s0-2.048 1.024-3.072c0-1.024 1.024-2.048 1.024-3.072s1.024-1.024 1.024-2.048c0 0 0 0 1.024-1.024s2.048-2.048 4.096-3.072c0 0 1.024-1.024 2.048-1.024 2.048-1.024 4.096-1.024 7.168-1.024h953.344c2.048 0 4.096 1.024 7.168 1.024 0 0 1.024 1.024 1.024 1.024 1.024 1.024 3.072 2.048 4.096 3.072 0 0 0 0 1.024 1.024 0 1.024 1.024 1.024 1.024 2.048 1.024 1.024 1.024 2.048 1.024 3.072-1.024 2.048-1.024 3.072-1.024 4.096zM51.2 712.192l307.2-295.936-307.2-237.568v533.504zM537.6 341.504c-15.36-14.336-38.912-14.336-54.272 0l-408.576 392.192h872.448l-409.6-392.192zM382.976 393.728l78.848-75.776c27.648-26.624 71.68-26.624 99.328 0l78.848 75.776 302.080-231.424h-859.136l300.032 231.424zM662.528 416.256l310.272 295.936v-533.504l-310.272 237.568z" />
<glyph unicode="&#xe911;" glyph-name="label" d="M533.504 11.776l-457.728 457.728c-17.408 17.408-26.624 39.936-26.624 64.512v285.696c0 50.176 40.96 91.136 91.136 91.136h285.696c24.576 0 47.104-9.216 64.512-26.624l457.728-457.728c35.84-35.84 35.84-93.184 0-128l-286.72-286.72c-17.408-17.408-39.936-26.624-64.512-26.624h-1.024c-22.528 0-46.080 10.24-62.464 26.624zM96.256 819.712v-285.696c0-11.264 4.096-22.528 13.312-31.744l457.728-456.704c16.384-17.408 44.032-17.408 61.44-1.024 0 0 1.024 1.024 1.024 1.024l285.696 285.696c17.408 16.384 17.408 44.032 1.024 61.44 0 0-1.024 1.024-1.024 1.024l-457.728 456.704c-8.192 8.192-19.456 13.312-31.744 13.312h-285.696c-24.576 0-44.032-20.48-44.032-44.032 0 0 0 0 0 0zM217.088 695.808c0 25.6 21.504 47.104 47.104 47.104s47.104-21.504 47.104-47.104-21.504-47.104-47.104-47.104v0c-26.624 1.024-47.104 21.504-47.104 47.104v0z" />
<glyph unicode="&#xe912;" glyph-name="inventory" d="M159.744 111.104c-19.456 76.8 15.36 156.672 83.968 194.56l-72.704 501.76-119.808-16.384c-8.192-1.024-16.384 4.096-17.408 13.312l-8.192 59.392c-2.048 8.192 4.096 16.384 12.288 17.408 0 0 0 0 1.024 0l233.472 33.792c8.192 1.024 16.384-4.096 17.408-13.312 0 0 0 0 0 0l17.408-119.808 171.008 24.576 150.528 21.504h2.048l186.368 26.624c4.096 1.024 8.192 0 11.264-3.072 3.072-2.048 5.12-6.144 6.144-10.24l73.728-512 52.224 7.168c8.192 1.024 16.384-4.096 17.408-13.312l19.456-135.168c1.024-8.192-5.12-15.36-13.312-17.408l-493.568-71.68c-29.696-91.136-126.976-141.312-218.112-111.616-54.272 20.48-98.304 66.56-112.64 123.904zM307.2 296.448c-77.824-12.288-131.072-83.968-119.808-161.792s83.968-131.072 161.792-119.808c77.824 11.264 131.072 83.968 119.808 161.792-10.24 69.632-70.656 121.856-141.312 120.832-7.168 0-13.312-1.024-20.48-1.024zM898.048 298.496l-418.816-60.416c10.24-18.432 16.384-37.888 19.456-58.368 2.048-15.36 2.048-30.72 0-46.080l466.944 67.584-15.36 105.472-52.224-8.192zM310.272 751.104l61.44-430.080c33.792-9.216 64.512-28.672 88.064-56.32l418.816 60.416-71.68 496.64-157.696-22.528 38.912-267.264c1.024-8.192-5.12-16.384-13.312-17.408-3.072 0-7.168 0-10.24 2.048l-72.704 44.032-58.368-61.44c-3.072-3.072-7.168-5.12-11.264-5.12-2.048 0-3.072 0-5.12 1.024-5.12 2.048-9.216 6.144-10.24 12.288l-38.912 267.264-157.696-23.552zM194.56 837.12c3.072-2.048 5.12-6.144 6.144-10.24l73.728-508.928c21.504 7.168 45.056 10.24 67.584 8.192l-80.896 556.032-202.752-28.672 4.096-30.72 120.832 17.408c3.072 1.024 7.168 0 11.264-3.072v0zM498.688 778.752l33.792-235.52 45.056 48.128c5.12 5.12 12.288 6.144 18.432 3.072l56.32-32.768-33.792 235.52-119.808-18.432zM678.912 343.552c-7.168 0-14.336 5.12-15.36 13.312l-9.216 62.464c-1.024 8.192 4.096 16.384 13.312 17.408 0 0 0 0 0 0l132.096 19.456c4.096 1.024 8.192 0 11.264-3.072 3.072-2.048 5.12-6.144 6.144-10.24l9.216-62.464c1.024-8.192-4.096-16.384-13.312-17.408 0 0 0 0 0 0l-132.096-19.456c0 0-2.048 0-2.048 0zM687.104 408.064l4.096-32.768 101.376 15.36-4.096 32.768-101.376-15.36z" />
<glyph unicode="&#xe913;" glyph-name="document" d="M149.504 931.328c-12.288-1.024-21.504-10.24-22.528-22.528v-928.768c0-12.288 10.24-22.528 22.528-22.528h724.992c12.288 0 22.528 10.24 22.528 22.528v724.992c0 6.144-2.048 12.288-7.168 16.384l-202.752 203.776c-4.096 4.096-10.24 6.144-16.384 6.144h-521.216zM172.032 886.272h475.136v-181.248c0-12.288 10.24-22.528 22.528-22.528h181.248v-678.912h-678.912v882.688zM693.248 853.504l126.976-126.976h-126.976v126.976zM263.168 546.304c-12.288-1.024-22.528-11.264-21.504-23.552 1.024-11.264 10.24-20.48 21.504-21.504h498.688c12.288 1.024 22.528 11.264 21.504 23.552-1.024 11.264-10.24 20.48-21.504 21.504h-498.688zM263.168 365.056c-12.288-1.024-22.528-11.264-21.504-23.552 1.024-11.264 10.24-20.48 21.504-21.504h498.688c12.288 1.024 22.528 11.264 21.504 23.552-1.024 11.264-10.24 20.48-21.504 21.504h-498.688zM263.168 183.808c-12.288-1.024-22.528-11.264-21.504-23.552 1.024-11.264 10.24-20.48 21.504-21.504h498.688c12.288 1.024 22.528 11.264 21.504 23.552-1.024 11.264-10.24 20.48-21.504 21.504h-498.688z" />
<glyph unicode="&#xe914;" glyph-name="divide" d="M850.944 291.328c-20.48 19.456-53.248 19.456-72.704-1.024-19.456-19.456-19.456-51.2 0-71.68l21.504-21.504h-180.224c-28.672 0-51.2 23.552-51.2 51.2l-3.072 98.304c0 37.888-14.336 73.728-39.936 101.376 25.6 27.648 38.912 64.512 39.936 101.376l2.048 95.232v2.048c0 28.672 23.552 51.2 51.2 51.2h180.224l-20.48-19.456c-19.456-20.48-19.456-53.248 1.024-72.704 19.456-19.456 51.2-19.456 71.68 0l109.568 109.568c20.48 20.48 20.48 52.224 0 72.704l-109.568 109.568c-20.48 19.456-53.248 19.456-72.704-1.024-19.456-19.456-19.456-51.2 0-71.68l21.504-21.504h-180.224c-84.992 0-153.6-68.608-154.624-153.6l-2.048-95.232v-2.048c0-28.672-23.552-51.2-51.2-51.2h-311.296c-28.672 0-51.2-23.552-51.2-51.2 0-28.672 23.552-51.2 51.2-51.2h310.272c28.672 0 51.2-23.552 51.2-51.2l3.072-98.304c1.024-84.992 69.632-153.6 154.624-153.6h180.224l-21.504-22.528c-20.48-19.456-21.504-52.224-1.024-72.704s52.224-21.504 72.704-1.024c0 0 1.024 1.024 1.024 1.024l109.568 109.568c20.48 20.48 20.48 52.224 0 72.704l-109.568 108.544z" />
<glyph unicode="&#xe915;" glyph-name="close" d="M619.52 445.952l330.752 329.728c31.744 28.672 33.792 77.824 5.12 109.568s-77.824 33.792-109.568 5.12c-2.048-1.024-4.096-2.048-6.144-4.096l-329.728-330.752-330.752 330.752c-31.744 28.672-80.896 26.624-109.568-5.12-26.624-29.696-26.624-74.752 0-104.448l329.728-330.752-329.728-330.752c-28.672-31.744-26.624-80.896 5.12-109.568 29.696-26.624 74.752-26.624 104.448 0l330.752 329.728 329.728-329.728c31.744-28.672 80.896-26.624 109.568 5.12 26.624 29.696 26.624 74.752 0 104.448l-329.728 330.752z" />
<glyph unicode="&#xe916;" glyph-name="clients" d="M974.848 152.064h-439.296v37.888h412.672l-1.024 5.12c-4.096 16.384-9.216 34.816-9.216 34.816l-2.048 1.024-131.072 76.8h-141.312c-12.288-10.24-23.552-20.48-34.816-30.72-25.6-28.672-57.344-51.2-93.184-65.536v39.936c25.6 15.36 48.128 32.768 68.608 53.248 12.288 11.264 26.624 24.576 40.96 36.864l12.288 4.096h151.552l9.216-3.072 136.192-78.848c28.672-15.36 30.72-88.064 45.056-111.616h-24.576zM58.368 152.064h-32.768l17.408 28.672c3.072 7.168 6.144 14.336 9.216 22.528 9.216 23.552 19.456 52.224 34.816 61.44v0l148.48 86.016 72.704-72.704 74.752 74.752 13.312-11.264c15.36-13.312 29.696-26.624 44.032-39.936v0c17.408-18.432 36.864-33.792 57.344-48.128v-40.96c-31.744 14.336-60.416 34.816-83.968 61.44v0c-9.216 9.216-18.432 17.408-29.696 27.648l-63.488-62.464-13.312-13.312-13.312 13.312-65.536 64.512-122.88-71.68-2.048-1.024c-6.144-13.312-11.264-26.624-16.384-39.936h410.624v-37.888l-439.296-1.024zM321.536 357.888c-40.96-1.024-80.896 15.36-108.544 46.080-13.312-20.48-34.816-34.816-58.368-38.912-25.6-3.072-51.2 3.072-72.704 18.432h-1.024c-3.072 2.048-5.12 4.096-5.12 4.096l-21.504 17.408 23.552 13.312c0 0 2.048 2.048 4.096 3.072v0c7.168 3.072 13.312 7.168 19.456 11.264 3.072 2.048 6.144 5.12 9.216 7.168v0c0 4.096-1.024 8.192-2.048 12.288v0c-1.024 3.072-1.024 7.168-2.048 9.216v0l-2.048 13.312c-9.216 45.056-12.288 89.088-8.192 132.096v0c2.048 15.36 7.168 30.72 14.336 45.056 7.168 13.312 16.384 24.576 28.672 33.792l1.024 1.024c10.24 7.168 21.504 11.264 33.792 14.336 8.192 1.024 17.408 2.048 25.6 0 13.312 13.312 28.672 22.528 46.080 29.696 23.552 9.216 47.104 13.312 72.704 13.312h5.12c44.032 2.048 87.040-12.288 120.832-40.96 30.72-29.696 48.128-70.656 47.104-112.64 0-1.024 0-3.072 0-4.096 2.048-56.32-12.288-112.64-43.008-160.768-26.624-40.96-71.68-65.536-120.832-66.56h-1.024c-6.144-1.024 2.048-1.024-5.12-1.024v0zM227.328 450.048c10.24-16.384 24.576-30.72 40.96-39.936s34.816-13.312 54.272-13.312v0c5.12 0 3.072 0 2.048 0h1.024c36.864 1.024 70.656 19.456 91.136 51.2 25.6 41.984 38.912 90.112 35.84 139.264 0 1.024 0 2.048 0 4.096 1.024 31.744-11.264 63.488-34.816 86.016-26.624 21.504-60.416 32.768-95.232 30.72h-5.12c-20.48 0-39.936-4.096-58.368-11.264-15.36-6.144-28.672-15.36-38.912-27.648l-8.192-9.216-11.264 3.072c-6.144 2.048-13.312 2.048-20.48 1.024s-13.312-4.096-18.432-8.192c-7.168-5.12-12.288-12.288-17.408-20.48-5.12-10.24-8.192-21.504-10.24-32.768v0c-3.072-39.936 0-78.848 9.216-117.76 1.024-3.072 1.024-5.12 2.048-13.312v0c0-3.072 1.024-5.12 2.048-8.192v0c2.048-7.168 3.072-14.336 3.072-22.528l-1.024-6.144c0-1.024 0 0 0-1.024v0-2.048c-4.096-11.264-12.288-20.48-21.504-26.624 7.168-2.048 14.336-2.048 21.504-1.024 14.336 3.072 27.648 12.288 34.816 24.576v0c2.048 3.072 4.096 6.144 5.12 9.216s3.072 6.144 4.096 9.216l13.312 36.864 20.48-33.792zM546.816 584.192v0 4.096c1.024 23.552 7.168 47.104 19.456 67.584 9.216 16.384 23.552 28.672 40.96 35.84 6.144 9.216 14.336 16.384 22.528 22.528 26.624 17.408 56.32 26.624 88.064 27.648 33.792 2.048 68.608-4.096 99.328-20.48 19.456-10.24 35.84-24.576 48.128-41.984 62.464-87.040 17.408-266.24 17.408-266.24l-37.888 4.096c0 0-4.096 122.88-54.272 124.928-35.84 2.048-70.656 6.144-106.496 12.288-14.336 2.048-28.672 6.144-43.008 10.24-6.144-16.384-11.264-36.864-16.384-55.296l-1.024-3.072c-6.144-33.792-10.24-67.584-11.264-102.4l-37.888-2.048c0 2.048-26.624 140.288-27.648 182.272zM646.144 603.648c14.336-4.096 29.696-8.192 45.056-10.24 33.792-6.144 67.584-9.216 101.376-11.264 31.744-4.096 58.368-26.624 67.584-56.32 6.144 46.080-3.072 93.184-25.6 134.144-9.216 12.288-21.504 23.552-34.816 30.72-24.576 12.288-52.224 17.408-78.848 15.36-24.576-1.024-48.128-8.192-67.584-21.504-6.144-4.096-12.288-10.24-15.36-16.384l-4.096-7.168-9.216-3.072c-11.264-4.096-20.48-11.264-25.6-21.504-8.192-14.336-13.312-31.744-13.312-48.128v0-4.096c1.024-17.408 3.072-35.84 6.144-53.248 6.144 23.552 13.312 46.080 23.552 68.608l13.312 26.624 17.408-22.528z" />
<glyph unicode="&#xe917;" glyph-name="cash" d="M911.36 758.272h-798.72c-49.152 0-89.088-39.936-89.088-89.088v-443.392c0-49.152 39.936-89.088 89.088-89.088h798.72c49.152 0 89.088 39.936 89.088 89.088v443.392c-1.024 49.152-40.96 89.088-89.088 89.088zM911.36 226.816h-798.72v443.392h798.72v-443.392zM479.232 371.2c-6.144 10.24-10.24 21.504-11.264 32.768l-1.024 10.24-49.152-9.216v-7.168c1.024-16.384 5.12-31.744 13.312-45.056 7.168-11.264 17.408-21.504 29.696-27.648 10.24-5.12 21.504-8.192 32.768-10.24v-32.768h35.84v32.768c19.456 2.048 37.888 11.264 51.2 25.6 15.36 16.384 23.552 38.912 23.552 60.416 0 10.24-2.048 20.48-5.12 30.72-4.096 9.216-9.216 18.432-16.384 25.6-8.192 7.168-16.384 13.312-26.624 17.408-8.192 3.072-16.384 6.144-25.6 8.192v71.68c3.072-2.048 6.144-4.096 8.192-6.144 5.12-7.168 9.216-15.36 9.216-23.552l1.024-9.216 50.176 7.168-1.024 8.192c-2.048 20.48-12.288 39.936-28.672 53.248-11.264 9.216-25.6 15.36-39.936 17.408v16.384h-35.84v-15.36c-16.384-2.048-30.72-8.192-44.032-18.432-17.408-15.36-27.648-37.888-26.624-60.416 0-13.312 3.072-26.624 9.216-37.888s15.36-20.48 26.624-26.624c11.264-6.144 22.528-11.264 34.816-14.336v-81.92c-5.12-1.024-10.24 3.072-14.336 8.192zM531.456 431.616c7.168-3.072 13.312-7.168 17.408-11.264 5.12-6.144 7.168-14.336 7.168-22.528 0-10.24-3.072-19.456-10.24-27.648-4.096-5.12-9.216-8.192-14.336-10.24v71.68zM480.256 501.248c-5.12 6.144-7.168 13.312-7.168 21.504s3.072 16.384 8.192 21.504c4.096 4.096 8.192 7.168 13.312 9.216v-63.488c-5.12 3.072-10.24 7.168-14.336 11.264z" />
<glyph unicode="&#xe918;" glyph-name="card" d="M890.88 779.776h-757.76c-52.224 0-95.232-43.008-95.232-95.232v-474.112c0-52.224 43.008-95.232 95.232-95.232h757.76c52.224 0 95.232 43.008 95.232 95.232v474.112c0 52.224-43.008 95.232-95.232 95.232zM133.12 684.544h757.76v-95.232h-757.76v95.232zM133.12 211.456v284.672h757.76v-284.672h-757.76z" />
<glyph unicode="&#xe919;" glyph-name="arrow-rigth" d="M900.096 525.824h-587.776l217.088 217.088c30.72 30.72 30.72 79.872 0 110.592s-79.872 30.72-110.592 0l-350.208-350.208c0 0 0 0 0 0-7.168-7.168-13.312-16.384-17.408-25.6 0 0 0-1.024 0-1.024-4.096-9.216-6.144-18.432-6.144-28.672 0 0 0 0 0 0s0 0 0 0c0-10.24 2.048-19.456 5.12-28.672 0 0 0-1.024 0-1.024 4.096-10.24 10.24-18.432 17.408-25.6l350.208-350.208c15.36-15.36 34.816-22.528 55.296-22.528s39.936 7.168 55.296 22.528c30.72 30.72 30.72 79.872 0 110.592l-216.064 217.088h587.776c43.008 0 77.824 34.816 77.824 77.824s-33.792 77.824-77.824 77.824z" />
<glyph unicode="&#xe91a;" glyph-name="arrow-right-2" d="M779.264 451.072c-1.024 19.456-8.192 37.888-21.504 51.2l-377.856 393.216c-29.696 31.744-79.872 32.768-111.616 2.048-30.72-29.696-31.744-79.872-2.048-110.592v0l325.632-338.944-325.632-338.944c-29.696-31.744-28.672-80.896 2.048-111.616 31.744-29.696 80.896-28.672 111.616 2.048l377.856 394.24c14.336 15.36 22.528 35.84 21.504 57.344v0z" />
<glyph unicode="&#xe91b;" glyph-name="alert" d="M987.361 97.28l-433.152 750.592c-14.336 23.552-44.032 30.72-67.584 17.408-7.168-4.096-12.288-10.24-17.408-17.408l-432.128-750.592c-13.312-23.552-6.144-52.224 17.408-66.56 8.192-4.096 16.384-7.168 25.6-6.144h867.328c26.624 1.024 48.128 22.528 47.104 49.152-1.024 8.192-3.072 16.384-7.168 23.552zM511.201 158.72c-25.6 0-47.104 21.504-47.104 47.104s21.504 47.104 47.104 47.104c25.6 0 47.104-21.504 47.104-47.104v0c1.024-26.624-20.48-47.104-47.104-47.104 1.024 0 1.024 0 0 0zM576.737 559.104l-25.6-215.040c0-21.504-17.408-39.936-39.936-39.936-21.504 0-39.936 17.408-39.936 39.936l-25.6 215.040-1.024 8.192c0 26.624 29.696 48.128 66.56 48.128s66.56-21.504 66.56-48.128l-1.024-8.192z" />
<glyph unicode="&#xe91c;" glyph-name="add" d="M512 924.16c-262.144 0-476.16-214.016-476.16-476.16s214.016-476.16 476.16-476.16 476.16 214.016 476.16 476.16-214.016 476.16-476.16 476.16zM512 27.136c-232.448 0-420.864 188.416-420.864 420.864s188.416 420.864 420.864 420.864c232.448 0 420.864-188.416 420.864-420.864s-188.416-420.864-420.864-420.864zM714.752 482.816h-167.936v167.936c0 19.456-15.36 34.816-34.816 34.816s-34.816-15.36-34.816-34.816v-167.936h-167.936c-19.456 0-34.816-15.36-34.816-34.816s15.36-34.816 34.816-34.816h167.936v-167.936c0-19.456 15.36-34.816 34.816-34.816s34.816 15.36 34.816 34.816v167.936h167.936c19.456 0 34.816 15.36 34.816 34.816 1.024 19.456-15.36 34.816-34.816 34.816z" />
<glyph unicode="&#xe91d;" glyph-name="add-person" d="M827.392-6.656l-1.024 91.136-95.232-1.024c-12.288 0-22.528 10.24-22.528 22.528s10.24 22.528 22.528 22.528l95.232 1.024-1.024 91.136c1.024 12.288 12.288 21.504 24.576 20.48 10.24-1.024 19.456-9.216 20.48-19.456v-91.136l95.232 1.024c12.288-1.024 21.504-12.288 20.48-24.576-1.024-10.24-9.216-19.456-19.456-20.48l-95.232-1.024 1.024-92.16c-1.024-12.288-12.288-21.504-24.576-20.48-10.24 2.048-19.456 10.24-20.48 20.48v0zM59.392 86.528c-14.336 0-22.528 10.24-22.528 25.6 2.048 152.576 94.208 289.792 235.52 348.16 28.672 13.312 51.2-45.056 161.792-45.056s133.12 57.344 161.792 45.056c59.392-24.576 110.592-63.488 151.552-112.64 7.168-10.24 4.096-24.576-6.144-31.744-9.216-6.144-21.504-5.12-28.672 3.072-33.792 40.96-75.776 73.728-123.904 96.256-94.208-58.368-214.016-58.368-308.224 0-112.64-51.2-188.416-159.744-197.632-283.648h539.648c12.288 0 22.528-10.24 22.528-22.528s-10.24-22.528-22.528-22.528h-563.2zM201.728 698.88c2.048 125.952 106.496 226.304 232.448 224.256 122.88 4.096 226.304-91.136 231.424-215.040 2.048-62.464-21.504-123.904-66.56-167.936-43.008-41.984-101.376-65.536-161.792-65.536-126.976-3.072-232.448 97.28-235.52 223.232 0 0 0 1.024 0 1.024zM246.784 698.88c0-158.72 202.752-238.592 320.512-125.952 69.632 65.536 72.704 175.104 7.168 244.736-2.048 3.072-5.12 5.12-7.168 7.168-34.816 33.792-82.944 53.248-131.072 53.248-101.376 3.072-186.368-76.8-189.44-179.2 0 1.024 0 1.024 0 0z" />
<glyph unicode="&#xe91e;" glyph-name="arrow-left" d="M257.024 451.072c1.024 18.432 8.192 35.84 20.48 49.152l360.448 374.784c28.672 29.696 76.8 30.72 106.496 2.048s30.72-76.8 2.048-106.496l-310.272-322.56 310.272-323.584c28.672-29.696 27.648-77.824-2.048-106.496s-77.824-27.648-106.496 2.048l-360.448 375.808c-14.336 15.36-21.504 34.816-20.48 55.296z" />
<glyph unicode="&#xe91f;" glyph-name="check" d="M514.048-37.376c271.36 0 491.52 220.16 491.52 491.52s-220.16 491.52-491.52 491.52-491.52-220.16-491.52-491.52 219.136-491.52 491.52-491.52zM258.048 440.832c17.408 17.408 46.080 17.408 63.488 0l102.4-102.4 259.072 259.072c18.432 16.384 47.104 14.336 63.488-5.12 14.336-16.384 14.336-40.96 0-58.368l-290.816-290.816c-17.408-17.408-46.080-17.408-63.488 0l-134.144 134.144c-16.384 17.408-15.36 46.080 0 63.488z" />
</font>
</defs>
</svg>
