<svg xmlns="http://www.w3.org/2000/svg" width="240" height="240" viewBox="0 0 240 240">
  <g id="Grupo_6909" data-name="Grupo 6909" transform="translate(-805 -104)">
    <circle id="circle" cx="120" cy="120" r="120" transform="translate(805 104)" fill="#fff"/>
    <circle id="sky_blue" cx="100" cy="100" r="100" transform="translate(825 124)" fill="#dffcff"/>
    <g id="img_nueva_venta" transform="translate(657.699 -1694.904)">
      <g id="Grupo_1118" data-name="Grupo 1118" transform="translate(316.611 1967.707)">
        <path id="Trazado_11198" data-name="Trazado 11198" d="M1427.864,3117.237a22.183,22.183,0,0,1-4.381-4.795l9.6-6.063s-.013-.022-.041-.064a12.43,12.43,0,0,0,2.406,2.457,14.986,14.986,0,0,0,7.05,3.073,16.89,16.89,0,0,0,9.135-1.618,24.8,24.8,0,0,0,4.326-2.454l8.511,1.645-1.6,7.362a35.378,35.378,0,0,1-13.511,6.046A25.658,25.658,0,0,1,1427.864,3117.237Z" transform="translate(-1423.483 -3106.315)" fill="#65cefe"/>
      </g>
      <path id="Trazado_11199" data-name="Trazado 11199" d="M1570.33,2429.825l2.253-1.167,2.239,1.193a.349.349,0,0,0,.508-.365l-.414-2.5,1.827-1.76a.349.349,0,0,0-.19-.6l-2.509-.379-1.11-2.282a.349.349,0,0,0-.625,0l-1.136,2.269-2.513.35a.349.349,0,0,0-.2.594l1.807,1.782-.443,2.5A.349.349,0,0,0,1570.33,2429.825Z" transform="translate(-1235.449 -531.075)" fill="#c9edf9"/>
      <path id="Trazado_11200" data-name="Trazado 11200" d="M837.337,1882.747l2.253-1.168,2.239,1.194a.349.349,0,0,0,.508-.365l-.414-2.5,1.827-1.76a.349.349,0,0,0-.19-.6l-2.509-.379-1.11-2.282a.349.349,0,0,0-.625,0l-1.136,2.269-2.513.35a.349.349,0,0,0-.2.594l1.807,1.781-.444,2.5A.349.349,0,0,0,837.337,1882.747Z" transform="translate(-584.919 -45.543)" fill="#c9edf9"/>
      <path id="Trazado_11201" data-name="Trazado 11201" d="M1022.443,2094.573l2.253-1.168,2.239,1.194a.349.349,0,0,0,.508-.365l-.414-2.5,1.827-1.76a.349.349,0,0,0-.19-.6l-2.509-.38-1.11-2.282a.349.349,0,0,0-.625,0l-1.136,2.269-2.513.35a.349.349,0,0,0-.2.594l1.807,1.781-.443,2.5A.349.349,0,0,0,1022.443,2094.573Z" transform="translate(-749.2 -233.538)" fill="#c9edf9"/>
      <rect id="Rectángulo_1848" data-name="Rectángulo 1848" width="110.841" height="11.602" transform="translate(219.315 1944.588)" fill="#f47257"/>
      <g id="Grupo_1120" data-name="Grupo 1120" transform="translate(220.658 1925.395)">
        <path id="Trazado_11202" data-name="Trazado 11202" d="M650.594,2790.474a214.036,214.036,0,0,0-80.016-23.976l3.1-36.282a247.485,247.485,0,0,1,92.516,27.721Z" transform="translate(-570.578 -2730.216)" fill="#65cefe"/>
        <path id="Trazado_11203" data-name="Trazado 11203" d="M592.418,2781.332l2.111-22.628a5.188,5.188,0,0,0,5.872-4.3,245.676,245.676,0,0,1,77.57,23.243,5.515,5.515,0,0,0,2.828,6.906l-9.576,20.391a4.6,4.6,0,0,0-6.392,2.259,215.739,215.739,0,0,0-68.118-20.41A4.881,4.881,0,0,0,592.418,2781.332Z" transform="translate(-589.961 -2751.684)" fill="#c9edf9"/>
        <g id="Grupo_1119" data-name="Grupo 1119" transform="translate(12.263 14.109)">
          <path id="Trazado_11204" data-name="Trazado 11204" d="M907.373,2872.416a12.559,12.559,0,0,1-15.645,7.812,13.4,13.4,0,0,1-9.13-15.46c1.444-6.725,8.593-10.754,15.84-8.513S909.623,2865.94,907.373,2872.416Z" transform="translate(-859.501 -2855.633)" fill="#50bfa5"/>
          <path id="Trazado_11205" data-name="Trazado 11205" d="M943.9,2906.935l.54-2.173a11.747,11.747,0,0,1-2.627-1.23,1.4,1.4,0,0,1-.506-1.82l.04-.076a1.347,1.347,0,0,1,1.943-.474,8.648,8.648,0,0,0,2.408,1.115c1.316.368,2.346.131,2.584-.782.225-.865-.375-1.634-1.967-2.69-2.3-1.521-3.772-3.108-3.265-5.339.458-2.021,2.324-3.23,5.042-2.993q.267-1.087.533-2.175,1.2.332,2.395.677l-.513,2.009a11.07,11.07,0,0,1,2.127.948,1.4,1.4,0,0,1,.555,1.893h0a1.415,1.415,0,0,1-1.977.419,7.914,7.914,0,0,0-2.03-.895c-1.56-.443-2.222.064-2.378.7-.186.757.536,1.461,2.36,2.77,2.566,1.776,3.335,3.384,2.771,5.423-.562,2.022-2.478,3.291-5.216,2.99l-.6,2.326Q945.007,2907.242,943.9,2906.935Z" transform="translate(-911.723 -2884.622)" fill="#3c8f7c"/>
          <path id="Trazado_11206" data-name="Trazado 11206" d="M698.858,2878.781q-9.556-2.205-19.28-3.588l.449-3.489q9.852,1.4,19.55,3.638Z" transform="translate(-679.578 -2869.896)" fill="#50bfa5"/>
          <path id="Trazado_11207" data-name="Trazado 11207" d="M1149.87,3002.917q-8.893-4.349-18.081-7.914l1.162-3.3q9.309,3.612,18.334,8.024Z" transform="translate(-1080.915 -2976.393)" fill="#50bfa5"/>
        </g>
      </g>
      <g id="Grupo_1122" data-name="Grupo 1122" transform="translate(222.117 1908.355)">
        <path id="Trazado_11208" data-name="Trazado 11208" d="M673.785,2614.533a193.286,193.286,0,0,0-72.377,31.823l-17.859-30.815a223.476,223.476,0,0,1,83.684-36.794Z" transform="translate(-583.549 -2578.746)" fill="#65cefe"/>
        <path id="Trazado_11209" data-name="Trazado 11209" d="M638.852,2666.647l-11.005-19.333a5.684,5.684,0,0,0,1.947-7.152,221.8,221.8,0,0,1,70.165-30.85,4.9,4.9,0,0,0,5.922,3.692l4.253,22.3a4.853,4.853,0,0,0-3.464,5.86,194.773,194.773,0,0,0-61.615,27.091A4.208,4.208,0,0,0,638.852,2666.647Z" transform="translate(-622.863 -2605.874)" fill="#c9edf9"/>
        <g id="Grupo_1121" data-name="Grupo 1121" transform="translate(15.935 15.984)">
          <path id="Trazado_11210" data-name="Trazado 11210" d="M924.879,2737.277c1.94,6.591-1.354,13.637-7.211,16.16a11.634,11.634,0,0,1-15.324-6.485,13.063,13.063,0,0,1,6.965-16.841A11.294,11.294,0,0,1,924.879,2737.277Z" transform="translate(-881.559 -2728.176)" fill="#65cefe"/>
          <path id="Trazado_11211" data-name="Trazado 11211" d="M968.145,2781.159l-.808-2.071a10.223,10.223,0,0,1-2.622.692,1.273,1.273,0,0,1-1.384-1.125l-.013-.086a1.393,1.393,0,0,1,1.171-1.613,7.521,7.521,0,0,0,2.4-.645c1.176-.544,1.8-1.388,1.473-2.264-.314-.831-1.184-1.061-2.946-.888-2.544.255-4.51-.072-5.375-2.169-.784-1.9-.078-4.047,2.06-5.586l-.814-2.068q1.069-.5,2.143-.985l.737,1.923a9.66,9.66,0,0,1,2.1-.6,1.267,1.267,0,0,1,1.46,1.152h0a1.457,1.457,0,0,1-1.227,1.59,6.9,6.9,0,0,0-1.995.58c-1.4.64-1.6,1.463-1.364,2.071.283.72,1.207.821,3.28.7,2.881-.22,4.34.569,5.056,2.549.708,1.965,0,4.191-2.19,5.694l.848,2.232Q969.135,2780.7,968.145,2781.159Z" transform="translate(-933.343 -2757.68)" fill="#c9edf9"/>
          <path id="Trazado_11212" data-name="Trazado 11212" d="M743.02,2882.34q-8.278,4.323-16.224,9.408l-1.605-3.059q8.05-5.152,16.451-9.54Z" transform="translate(-725.191 -2861.337)" fill="#50bfa5"/>
          <path id="Trazado_11213" data-name="Trazado 11213" d="M1149.016,2724.259q-8.979,2.2-17.74,5.206l-.976-3.364q8.877-3.048,17.989-5.28Z" transform="translate(-1084.725 -2720.822)" fill="#65cefe"/>
        </g>
      </g>
      <g id="Grupo_1124" data-name="Grupo 1124" transform="translate(226.781 1929.901)">
        <path id="Trazado_11214" data-name="Trazado 11214" d="M714.688,2807.047a196.13,196.13,0,0,0-79.162,11.6L625,2784.089a226.762,226.762,0,0,1,91.529-13.415Q715.609,2788.86,714.688,2807.047Z" transform="translate(-625.001 -2770.262)" fill="#65cefe"/>
        <path id="Trazado_11215" data-name="Trazado 11215" d="M665.7,2826.561l-6.407-21.629a5.47,5.47,0,0,0,3.6-6.405,225.062,225.062,0,0,1,76.741-11.248,5.174,5.174,0,0,0,5.011,5.144q-.489,11.355-.978,22.711a4.694,4.694,0,0,0-4.8,4.753,197.643,197.643,0,0,0-67.391,9.877A4.448,4.448,0,0,0,665.7,2826.561Z" transform="translate(-655.434 -2785.286)" fill="#c9edf9"/>
        <g id="Grupo_1123" data-name="Grupo 1123" transform="translate(14.273 7.023)">
          <path id="Trazado_11216" data-name="Trazado 11216" d="M975.967,2843.877a13.026,13.026,0,0,1-10.912,13.727,12.329,12.329,0,0,1-13.68-10.34,12.588,12.588,0,0,1,10.828-14.451A11.942,11.942,0,0,1,975.967,2843.877Z" transform="translate(-928.772 -2832.69)" fill="#65cefe"/>
          <path id="Trazado_11217" data-name="Trazado 11217" d="M1021.412,2882.283q-.159-1.109-.319-2.218a10.586,10.586,0,0,1-2.76-.025,1.338,1.338,0,0,1-1.11-1.457c0-.029,0-.058.007-.087a1.353,1.353,0,0,1,1.537-1.25,7.777,7.777,0,0,0,2.526.011c1.293-.215,2.112-.865,1.988-1.8-.118-.888-.926-1.341-2.713-1.641-2.581-.428-4.454-1.266-4.823-3.524-.335-2.045.865-3.937,3.343-4.859q-.162-1.109-.325-2.217,1.176-.2,2.354-.385.141,1.029.283,2.057a9.941,9.941,0,0,1,2.217-.024,1.33,1.33,0,0,1,1.179,1.5h0a1.417,1.417,0,0,1-1.587,1.214,7.117,7.117,0,0,0-2.113.032c-1.535.248-1.932.991-1.835,1.643.113.772,1.006,1.114,3.088,1.549,2.907.551,4.17,1.7,4.419,3.808.244,2.089-.978,4.056-3.5,4.929l.321,2.385Q1022.5,2882.1,1021.412,2882.283Z" transform="translate(-986.01 -2859.439)" fill="#c9edf9"/>
          <path id="Trazado_11218" data-name="Trazado 11218" d="M771.023,2947.179q-9.214,1.989-18.275,4.8l-.879-3.386q9.18-2.852,18.531-4.869Z" transform="translate(-751.87 -2931.234)" fill="#50bfa5"/>
          <path id="Trazado_11219" data-name="Trazado 11219" d="M1218.147,2904.469q-9.413-.255-18.8.333-.092-1.757-.184-3.515,9.51-.6,19.063-.338Q1218.187,2902.709,1218.147,2904.469Z" transform="translate(-1148.843 -2893.201)" fill="#50bfa5"/>
        </g>
      </g>
      <rect id="Rectángulo_1849" data-name="Rectángulo 1849" width="110.841" height="48.782" transform="translate(219.315 1944.588)" fill="#ff6e53"/>
      <path id="Trazado_11220" data-name="Trazado 11220" d="M1282.092,3223.723h-27.427a2.256,2.256,0,0,0-2.2,2.306h0a2.255,2.255,0,0,0,2.2,2.306h-3.556a2.256,2.256,0,0,0-2.2,2.306h0a2.256,2.256,0,0,0,2.2,2.305h.616a2.256,2.256,0,0,0-2.2,2.306,2.393,2.393,0,0,0,.185.926h32.384Z" transform="translate(-951.935 -1242.807)" fill="#b32e69"/>
      <rect id="Rectángulo_1850" data-name="Rectángulo 1850" width="100.901" height="3.788" transform="translate(223.4 1946.989)" fill="#e74a60"/>
      <g id="Grupo_1125" data-name="Grupo 1125" transform="translate(218.095 1962.468)">
        <path id="Rectángulo_1851" data-name="Rectángulo 1851" d="M15.148,0H37.834A15.148,15.148,0,0,1,52.982,15.148v0A15.148,15.148,0,0,1,37.834,30.3H15.148A15.148,15.148,0,0,1,0,15.148v0A15.148,15.148,0,0,1,15.148,0Z" transform="translate(0 0)" fill="#6577ff"/>
        <rect id="Rectángulo_1852" data-name="Rectángulo 1852" width="13.047" height="7.586" transform="translate(3.406 6.025)" fill="#ffcb83"/>
        <rect id="Rectángulo_1853" data-name="Rectángulo 1853" width="23.137" height="1.416" transform="translate(26.491 4.103)" fill="#ffcb83"/>
        <rect id="Rectángulo_1854" data-name="Rectángulo 1854" width="42.58" height="1.749" transform="translate(5.328 20.286)" fill="#ffcb83"/>
        <rect id="Rectángulo_1855" data-name="Rectángulo 1855" width="42.58" height="1.749" transform="translate(5.328 24.405)" fill="#ffcb83"/>
      </g>
      <rect id="Rectángulo_1856" data-name="Rectángulo 1856" width="47.047" height="1.257" transform="translate(224.681 1957.042)" fill="#e74a60"/>
      <g id="Grupo_1127" data-name="Grupo 1127" transform="translate(288.178 1927.963)">
        <path id="Trazado_11221" data-name="Trazado 11221" d="M1189.809,2757.5a10.478,10.478,0,1,1-14.6-2.557A10.477,10.477,0,0,1,1189.809,2757.5Z" transform="translate(-1170.754 -2753.043)" fill="#ffcb83"/>
        <path id="Trazado_11222" data-name="Trazado 11222" d="M1201.727,2771.769a8.792,8.792,0,1,1-12.247-2.146A8.792,8.792,0,0,1,1201.727,2771.769Z" transform="translate(-1184.052 -2766.342)" fill="#e6a748"/>
        <g id="Grupo_1126" data-name="Grupo 1126" transform="translate(6.762 4.077)">
          <path id="Trazado_11223" data-name="Trazado 11223" d="M1235.594,2801.872l-.383-1.417a7.141,7.141,0,0,1-1.872.165.893.893,0,0,1-.847-.881v-.057a.891.891,0,0,1,.946-.9,5.2,5.2,0,0,0,1.693-.159c.85-.23,1.343-.715,1.182-1.312-.153-.567-.727-.8-1.932-.87-1.741-.105-3.031-.557-3.423-2a2.855,2.855,0,0,1,1.8-3.336l-.383-1.417,1.462-.4.355,1.313a6.586,6.586,0,0,1,1.414-.172.892.892,0,0,1,.892.882h0a.893.893,0,0,1-.911.9,4.74,4.74,0,0,0-1.361.168c-.969.262-1.169.765-1.057,1.182.133.492.74.664,2.137.8,1.944.146,2.882.773,3.245,2.115a2.961,2.961,0,0,1-1.908,3.477l.411,1.521Z" transform="translate(-1230.862 -2789.286)" fill="#eefbff"/>
        </g>
      </g>
      <g id="Grupo_1129" data-name="Grupo 1129" transform="translate(298.063 1961.497)">
        <path id="Trazado_11224" data-name="Trazado 11224" d="M1277.674,3055.575a10.478,10.478,0,1,1-14.6-2.557A10.478,10.478,0,0,1,1277.674,3055.575Z" transform="translate(-1258.619 -3051.116)" fill="#ffcb83"/>
        <path id="Trazado_11225" data-name="Trazado 11225" d="M1289.592,3069.841a8.792,8.792,0,1,1-12.247-2.146A8.793,8.793,0,0,1,1289.592,3069.841Z" transform="translate(-1271.917 -3064.413)" fill="#e6a748"/>
        <g id="Grupo_1128" data-name="Grupo 1128" transform="translate(6.762 4.077)">
          <path id="Trazado_11226" data-name="Trazado 11226" d="M1323.459,3099.944l-.383-1.417a7.132,7.132,0,0,1-1.872.165.893.893,0,0,1-.847-.881v-.057a.892.892,0,0,1,.946-.9,5.2,5.2,0,0,0,1.693-.159c.85-.23,1.343-.716,1.182-1.312-.153-.567-.727-.8-1.932-.87-1.741-.105-3.031-.556-3.423-2a2.855,2.855,0,0,1,1.8-3.336l-.383-1.417,1.462-.4.355,1.313a6.583,6.583,0,0,1,1.414-.171.891.891,0,0,1,.892.882h0a.892.892,0,0,1-.911.9,4.746,4.746,0,0,0-1.36.168c-.969.262-1.17.764-1.057,1.182.133.492.74.664,2.137.8,1.944.146,2.882.773,3.245,2.116a2.961,2.961,0,0,1-1.909,3.477l.411,1.521Z" transform="translate(-1318.727 -3087.358)" fill="#fff"/>
        </g>
      </g>
      <g id="Grupo_1131" data-name="Grupo 1131" transform="translate(277.701 1948.38)">
        <circle id="Elipse_77" data-name="Elipse 77" cx="10.478" cy="10.478" r="10.478" fill="#ffcb83"/>
        <circle id="Elipse_78" data-name="Elipse 78" cx="8.792" cy="8.792" r="8.792" transform="matrix(0.21, -0.978, 0.978, 0.21, 0.036, 17.229)" fill="#e6a748"/>
        <g id="Grupo_1130" data-name="Grupo 1130" transform="translate(6.286 4.297)">
          <path id="Trazado_11227" data-name="Trazado 11227" d="M1134.967,2984.545l.5-1.38a7.127,7.127,0,0,1-1.627-.94.893.893,0,0,1-.187-1.208l.032-.047a.892.892,0,0,1,1.294-.2,5.2,5.2,0,0,0,1.477.843c.828.3,1.51.186,1.721-.4.2-.552-.138-1.069-1.081-1.822-1.365-1.086-2.162-2.2-1.651-3.606a2.855,2.855,0,0,1,3.392-1.7l.5-1.38,1.423.516-.463,1.278a6.607,6.607,0,0,1,1.256.672.892.892,0,0,1,.223,1.234h0a.893.893,0,0,1-1.266.217,4.737,4.737,0,0,0-1.21-.644c-.944-.342-1.4-.046-1.544.36-.174.479.224.969,1.29,1.881,1.507,1.237,1.915,2.288,1.441,3.6a2.961,2.961,0,0,1-3.56,1.75l-.537,1.481Z" transform="translate(-1133.498 -2972.719)" fill="#eefbff"/>
        </g>
      </g>
      <rect id="Rectángulo_1857" data-name="Rectángulo 1857" width="47.454" height="25.432" transform="translate(276.846 1964.9)" fill="#e74a60"/>
      <path id="Trazado_11228" data-name="Trazado 11228" d="M1252.463,3226.028h0a2.255,2.255,0,0,0,2.2,2.306h-3.556a2.256,2.256,0,0,0-2.2,2.306h0a2.256,2.256,0,0,0,2.2,2.305h.616a2.108,2.108,0,0,0-.885.195h25.4v-9.417h-21.572A2.256,2.256,0,0,0,1252.463,3226.028Z" transform="translate(-951.935 -1242.807)" fill="#b32e69"/>
      <g id="Grupo_1133" data-name="Grupo 1133" transform="translate(180.521 1982.403)">
        <path id="Trazado_11229" data-name="Trazado 11229" d="M213.809,3322.207h0c0,.552.309,1,.69,1H386.547c.381,0,.69-.448.69-1h0c0-.552-.309-1-.69-1H214.5C214.118,3321.207,213.809,3321.655,213.809,3322.207Z" transform="translate(-213.809 -3311.729)" fill="#5393d0"/>
        <path id="Trazado_11230" data-name="Trazado 11230" d="M1306.687,3314.225h-28.324a2.058,2.058,0,0,1-2.058-2.058h0a2.058,2.058,0,0,1,2.058-2.058h28.324a2.058,2.058,0,0,1,2.057,2.058h0A2.058,2.058,0,0,1,1306.687,3314.225Z" transform="translate(-1156.773 -3301.878)" fill="#e6a748"/>
        <path id="Trazado_11231" data-name="Trazado 11231" d="M1301.568,3277.644h-28.324a2.058,2.058,0,0,1-2.058-2.058h0a2.057,2.057,0,0,1,2.058-2.058h28.324a2.057,2.057,0,0,1,2.058,2.058h0A2.058,2.058,0,0,1,1301.568,3277.644Z" transform="translate(-1152.23 -3269.413)" fill="#ffcb83"/>
        <path id="Trazado_11232" data-name="Trazado 11232" d="M1331.11,3241.062h-28.324a2.058,2.058,0,0,1-2.058-2.058h0a2.058,2.058,0,0,1,2.058-2.058h28.324a2.058,2.058,0,0,1,2.058,2.058h0A2.058,2.058,0,0,1,1331.11,3241.062Z" transform="translate(-1178.45 -3236.946)" fill="#e6a748"/>
      </g>
      <path id="Trazado_11233" data-name="Trazado 11233" d="M1064.3,2294.889l.36,2.438-3.859,1.013.087,3.629-2.764,1.23.623,1.4,3.7-1.646-.083-3.439,4.014-1.054-.542-3.668Z" transform="translate(-782.617 -418.381)" fill="#65cefe"/>
      <path id="Trazado_11234" data-name="Trazado 11234" d="M498.5,1939.42l.36,2.438-3.859,1.013.087,3.63-2.764,1.23.623,1.4,3.7-1.646-.083-3.439,4.014-1.054-.542-3.669Z" transform="translate(-280.474 -102.903)" fill="#65cefe"/>
      <g id="Grupo_1134" data-name="Grupo 1134" transform="translate(243.345 1852.979)">
        <path id="Trazado_11235" data-name="Trazado 11235" d="M774.084,2102.328l.744-1.845a9.663,9.663,0,0,1-2.159-1.352,1.211,1.211,0,0,1-.2-1.644l.046-.062a1.208,1.208,0,0,1,1.762-.2,7.055,7.055,0,0,0,1.961,1.212c1.107.446,2.037.324,2.35-.453.3-.738-.136-1.455-1.378-2.52-1.8-1.537-2.823-3.079-2.064-4.963.689-1.709,2.433-2.564,4.676-2.135l.744-1.845,1.9.767-.689,1.709a8.931,8.931,0,0,1,1.669.97,1.209,1.209,0,0,1,.244,1.683h0a1.21,1.21,0,0,1-1.725.233,6.437,6.437,0,0,0-1.609-.93c-1.263-.509-1.889-.129-2.109.415-.258.641.257,1.323,1.658,2.61,1.983,1.747,2.484,3.191,1.78,4.939-.7,1.729-2.515,2.712-4.905,2.2l-.8,1.981Z" transform="translate(-772.238 -2086.517)" fill="#ff6e53"/>
      </g>
      <path id="Trazado_11236" data-name="Trazado 11236" d="M775.18,2488.286a.773.773,0,0,1-.133.974,7.609,7.609,0,0,1-2.414,1.456,6.112,6.112,0,0,1-4.7-.065,5.634,5.634,0,0,1-2.42-2.2l-.893.335a.587.587,0,0,1-.756-.343l-.009-.023a.587.587,0,0,1,.343-.756l.733-.275c-.118-.243-.2-.4-.252-.532a5.756,5.756,0,0,1-.232-.827l-.756.284a.587.587,0,0,1-.756-.343h0a.587.587,0,0,1,.343-.756l.916-.344a6.028,6.028,0,0,1,.437-3.221,6.486,6.486,0,0,1,3.684-3.342,6.626,6.626,0,0,1,2.292-.454.792.792,0,0,1,.8.755v.013a.794.794,0,0,1-.765.829,5.683,5.683,0,0,0-1.782.378,4.225,4.225,0,0,0-2.4,2.156,3.524,3.524,0,0,0-.269,2.139l5.153-1.934a.587.587,0,0,1,.756.343h0a.587.587,0,0,1-.343.756l-5.382,2.02c.071.261.143.521.2.682.077.206.155.412.281.678l5.393-2.024a.6.6,0,0,1,.772.35h0a.6.6,0,0,1-.351.772L767.5,2487.7a3.731,3.731,0,0,0,1.512,1.314,4.127,4.127,0,0,0,3.307.039,6.471,6.471,0,0,0,1.72-.969.773.773,0,0,1,1.137.2Z" transform="translate(-520.602 -580.847)" fill="#c9edf9"/>
      <path id="Trazado_11237" data-name="Trazado 11237" d="M623.759,2189.534l-2.34.238-.8-3.722-3.464-.075-1.053-2.688-1.361.533,1.408,3.595,3.282.071.83,3.872,3.521-.357Z" transform="translate(-389.118 -319.422)" fill="#ff6e53"/>
      <path id="Trazado_11238" data-name="Trazado 11238" d="M1150.067,1829.622l2.339.237.8-3.722,3.464-.075,1.053-2.688,1.361.533-1.408,3.595-3.282.071-.83,3.872-3.521-.357Z" transform="translate(-864.192)" fill="#ff6e53"/>
      <path id="Trazado_11239" data-name="Trazado 11239" d="M1489.766,2225.4l-2.34.237-.8-3.722-3.464-.075-1.053-2.688-1.361.533,1.408,3.6,3.282.071.83,3.872,3.521-.357Z" transform="translate(-1157.698 -351.256)" fill="#ff6e53"/>
      <g id="Grupo_1135" data-name="Grupo 1135" transform="translate(276.039 1888.008)">
        <path id="Trazado_11240" data-name="Trazado 11240" d="M1065.615,2401.99l2.5.825s3.969-1.286,4.359-2.095.5-2.771,1.066-2.825a1.71,1.71,0,0,1,1.916,1.473c.188.975-1.239,3.793-1.016,4.093a13.694,13.694,0,0,0,2.612,1.063,1.951,1.951,0,0,1,1.291,1.574v0a1.074,1.074,0,0,1-.671,1.154l-.72.278.23.743a1.074,1.074,0,0,1-.679,1.332l-.557.187.178.453a1.073,1.073,0,0,1-.693,1.419l-.487.141.02.13a1.072,1.072,0,0,1-.781,1.2l-.483.127-6.666-2.2a4.751,4.751,0,0,1-1.69-.981l-2.214-1.168a.55.55,0,0,1-.258-.668l2.052-5.91A.548.548,0,0,1,1065.615,2401.99Z" transform="translate(-1062.845 -2397.887)" fill="#ffcb83"/>
      </g>
      <path id="Trazado_11241" data-name="Trazado 11241" d="M899.514,2390.629l.53-2.627,2.464-1.053a.368.368,0,0,0,.036-.659l-2.334-1.316-.24-2.669a.368.368,0,0,0-.616-.238l-1.973,1.814-2.613-.6a.368.368,0,0,0-.417.512l1.115,2.437-1.375,2.3a.368.368,0,0,0,.358.555l2.662-.308,1.763,2.019A.368.368,0,0,0,899.514,2390.629Z" transform="translate(-636.992 -495.753)" fill="#ffcb83"/>
      <path id="Trazado_11242" data-name="Trazado 11242" d="M1337.214,1955.56l.53-2.627,2.464-1.053a.368.368,0,0,0,.036-.66l-2.334-1.316-.24-2.669a.368.368,0,0,0-.616-.238l-1.973,1.813-2.612-.6a.368.368,0,0,0-.417.512l1.115,2.437-1.375,2.3a.368.368,0,0,0,.358.555l2.662-.308,1.763,2.019A.368.368,0,0,0,1337.214,1955.56Z" transform="translate(-1025.451 -109.629)" fill="#ffcb83"/>
      <g id="Grupo_1138" data-name="Grupo 1138" transform="translate(176.302 1866.772)">
        <g id="Grupo_1136" data-name="Grupo 1136" transform="translate(0 44.732)">
          <path id="Trazado_11243" data-name="Trazado 11243" d="M404.476,3208.737a34.992,34.992,0,0,0-3.8,3.074c-.745,1.018,5.565,2.921,4.876,1.729-.158-.274-.613-1.2-.632-1.287-.106-.485,1.233-1.792,1.233-1.792Z" transform="translate(-375.377 -3141.012)" fill="#f7a491"/>
          <path id="Trazado_11244" data-name="Trazado 11244" d="M403.445,3229.034l-2.23-3.152a6.079,6.079,0,0,1-2.822-1.932,5.228,5.228,0,0,0-2.075,1.553,36.35,36.35,0,0,0,3.794,3.42,10.535,10.535,0,0,0,3.249,1.845C405.245,3231.406,403.445,3229.034,403.445,3229.034Z" transform="translate(-371.566 -3154.514)" fill="#063e70"/>
          <path id="Trazado_11245" data-name="Trazado 11245" d="M177.951,2822.455s.4.357.547.466c.168.127.7.471.7.471a10.267,10.267,0,0,0,1.982.947.95.95,0,0,0-.033-.667c-.095-.109-.371-.221-.466-.33a.352.352,0,0,1-.005-.45c.122-.121.777.236.777.236a2.443,2.443,0,0,1,.753.651,3.161,3.161,0,0,1,.639,1.461,29.8,29.8,0,0,0,2.81,1.4s8.039,3.342,8.472,3.524h.006a2.334,2.334,0,0,1-.243,1.044c-.192,1.148-.534,1.225-.795,2.332-1.233-.624-9.768-5.326-10.636-5.816,0,0-1.3-.222-2.112-.388a7.237,7.237,0,0,1-1.743-.762,7.628,7.628,0,0,1-1.559-.945c-.689-.534.2-.333.2-.333s1.448.767,1.485.646c.029-.094-.785-.468-1.553-1.05-.2-.15-.392-.3-.569-.437-.466-.362-.385-.742.161-.438a6.1,6.1,0,0,1,.716.457,5.006,5.006,0,0,0,.7.389,6.507,6.507,0,0,0,.719.4c0-.029.115-.038-.09-.2-.246-.2-.86-.51-1.2-.829-.193-.181-.618-.536-.618-.536a5.342,5.342,0,0,1-.52-.7c.145-.234.641.111.872.39a4.093,4.093,0,0,1,.674.491s1.055.589,1.136.445a13.956,13.956,0,0,0-1.1-1.016c-.491-.481-.911-1.045-.833-1.152C177.35,2821.976,177.951,2822.455,177.951,2822.455Z" transform="translate(-176.302 -2797.887)" fill="#f8a492"/>
          <path id="Trazado_11246" data-name="Trazado 11246" d="M390.3,2987.881l.52,2.569,13.061,11.88-9.349,9.461,2.524,2.58s13.807-10.139,14.305-11.468c.766-2.045-9.9-15.6-9.9-15.6Z" transform="translate(-366.221 -2944.494)" fill="#063e70"/>
          <path id="Trazado_11247" data-name="Trazado 11247" d="M284.385,3268.6s-2.635,2.871-3.152,3.578c-.745,1.018,4.819,2.52,4.13,1.328-.158-.274-.613-1.2-.632-1.287-.106-.485,1.233-1.792,1.233-1.792Z" transform="translate(-269.367 -3194.138)" fill="#f7a491"/>
          <path id="Trazado_11248" data-name="Trazado 11248" d="M282.473,3300.94l-3.626-1.325a5.683,5.683,0,0,1-3.461.113,4.8,4.8,0,0,0-.784,2.359s6.874.876,8.787.329S282.473,3300.94,282.473,3300.94Z" transform="translate(-263.544 -3221.666)" fill="#063e70"/>
          <path id="Trazado_11249" data-name="Trazado 11249" d="M307.475,2994.974l.586,16.21-11.589,14.209,3.135,1.717s12.819-11,14.227-14.068c.873-1.9,3.811-19.084,3.811-19.084Z" transform="translate(-282.954 -2950.396)" fill="#064c91"/>
          <path id="Trazado_11250" data-name="Trazado 11250" d="M417.71,2804.907c-1.062-2.4-.939-19.584-5.073-23.61-1.455.246-2.492.383-2.735.447-.216,1.771-.453,8.267-.6,14.222-.1,3.967,0,8.127-.485,10.32C408.515,2807.645,418.681,2807.1,417.71,2804.907Z" transform="translate(-382.654 -2761.659)" fill="#eefbff"/>
          <path id="Trazado_11251" data-name="Trazado 11251" d="M253.224,2786.114c-1.161.265-2.015.451-3.536,2.7-1.456,2.151-4.69,7.256-4.69,7.256l-8.517-3.783-.4,4.314s9.635,5.008,10.994,4.557,5.181-6.038,5.464-6.415c.066-.088-.321,5.967-.321,6.934s-1.847,9.391-1.847,9.391,4.687,1.154,5.6-.942c2.8-6.424.652-24.9.652-24.9S254.059,2785.923,253.224,2786.114Z" transform="translate(-229.358 -2765.142)" fill="#ff6e53"/>
          <path id="Trazado_11252" data-name="Trazado 11252" d="M538.162,2609.316a2.553,2.553,0,0,1-.573-1.48l-.159-.612c.145-.06,2.986-.464,3.842-.486a1.561,1.561,0,0,1,.1.646c-.127.7-1.021,5.245-1.021,5.245l-2.446.049S538.435,2609.983,538.162,2609.316Z" transform="translate(-496.803 -2606.738)" fill="#f7a491"/>
          <path id="Trazado_11253" data-name="Trazado 11253" d="M451.335,2667.207s1.678,4.776,3.059,4.087,9.14-8.6,9.217-8.98.614-10.091.614-10.091l-3.069-.612-1.765,7.951s-5.678,5.428-6.829,5.963A2.133,2.133,0,0,0,451.335,2667.207Z" transform="translate(-420.394 -2646.563)" fill="#ff6e53"/>
          <path id="Trazado_11254" data-name="Trazado 11254" d="M448.306,2800.757a5.2,5.2,0,0,0,1.891-.314s-1.769-9.972-2.8-19.86c-.406-3.906-.783-5.507-2.4-5.225-.466.081-1.728.563-2.187.64,4.05,11.458,4.064,20.277,4.637,22.835C447.742,2800.115,447.992,2800.765,448.306,2800.757Z" transform="translate(-412.834 -2756.36)" fill="#ff6e53"/>
          <path id="Trazado_11255" data-name="Trazado 11255" d="M415.338,2745.339l.424,1.731s.1,1.507-.6,1.643c-.844.163-2.1-1.1-2.1-1.1l-.726-4.882Z" transform="translate(-385.782 -2727.432)" fill="#f7a491"/>
          <path id="Trazado_11256" data-name="Trazado 11256" d="M415.338,2745.339l.424,1.731s.1,1.507-.6,1.643c-.844.163-2.1-1.1-2.1-1.1l-.726-4.882Z" transform="translate(-385.782 -2727.432)" fill="#f7a491"/>
          <path id="Trazado_11257" data-name="Trazado 11257" d="M412.4,2742.932l2.995,2.585.317,1.293A5.014,5.014,0,0,1,412.4,2742.932Z" transform="translate(-385.838 -2727.61)" fill="#f47458"/>
          <path id="Trazado_11258" data-name="Trazado 11258" d="M413.534,2703a1.768,1.768,0,0,1,1.631,1.223,15.37,15.37,0,0,1,.654,2.506c.317,1.878-.752,3.6-1.682,3.733a3.52,3.52,0,0,1-3.636-3.139c-.21-1.14-.486-2.635.451-3.421A4.217,4.217,0,0,1,413.534,2703Z" transform="translate(-383.968 -2692.175)" fill="#f7a491"/>
          <path id="Trazado_11259" data-name="Trazado 11259" d="M387.768,2690.154s-3.279-2.922-3.422-5.206,1.965-3.506,3.768-3.57a12.216,12.216,0,0,1,2.207.114c1.806.228,2.977,1.029,2.565,2.508-.553,1.987-4.3.311-5.069.927-.633.509.393,1.733-.222,2.2-.578.439-.283.29-.092,1.125A14.721,14.721,0,0,1,387.768,2690.154Z" transform="translate(-360.934 -2672.973)" fill="#031322"/>
          <path id="Trazado_11260" data-name="Trazado 11260" d="M403.441,2727.378c.081.547.416.951.747.9s.534-.532.453-1.079-.416-.951-.747-.9S403.359,2726.831,403.441,2727.378Z" transform="translate(-377.872 -2712.844)" fill="#f7a491"/>
          <path id="Trazado_11261" data-name="Trazado 11261" d="M545.418,2608.813a3.932,3.932,0,0,1,1.059,1s1.383-.887,1.334-1.168c-.064-.372-1.478.319-1.478.319Z" transform="translate(-503.892 -2608.334)" fill="#f47458"/>
        </g>
        <g id="Grupo_1137" data-name="Grupo 1137" transform="translate(3.733 0)">
          <path id="Trazado_11262" data-name="Trazado 11262" d="M211.616,2235.977l37.341,19.227a4.281,4.281,0,0,0,5.674-2.08l9.536-18.52a4.281,4.281,0,0,0-1.6-5.827l-37.341-19.227a4.281,4.281,0,0,0-5.674,2.08l-9.536,18.52A4.281,4.281,0,0,0,211.616,2235.977Z" transform="translate(-209.482 -2209.127)" fill="#1bd5ea"/>
          <rect id="Rectángulo_1858" data-name="Rectángulo 1858" width="6.319" height="50.184" transform="matrix(0.458, -0.889, 0.889, 0.458, 0.746, 20.606)" fill="#34538a"/>
        </g>
        <rect id="Rectángulo_1859" data-name="Rectángulo 1859" width="11.064" height="6.137" transform="translate(18.739 3.067) rotate(27.293)" fill="#ffcb83"/>
        <path id="Trazado_11263" data-name="Trazado 11263" d="M538.307,2599.25c-.065-.176-.193-.421-.13-.517.4-.608-.031-1.269-.321-.752a3.25,3.25,0,0,0-.438,1.306c.018.249.271,1.2.271,1.2A.882.882,0,0,0,538.307,2599.25Z" transform="translate(-496.791 -2554.069)" fill="#f7a491"/>
      </g>
      <g id="Grupo_1144" data-name="Grupo 1144" transform="translate(305.477 1877.968)">
        <g id="Grupo_1143" data-name="Grupo 1143" transform="translate(0 0)">
          <g id="Grupo_1140" data-name="Grupo 1140" transform="translate(10.221 19.419)">
            <path id="Trazado_11264" data-name="Trazado 11264" d="M1490.119,3179.422a23.543,23.543,0,0,0-.043,3.793c.1.5.656,1.524.4,1.992a1.271,1.271,0,0,1-.547.586l-6.612.1c-.36.006-.122-.222.168-.432a13.426,13.426,0,0,1,2.377-1.293c.1-.047.459-.272.589-.351a4.541,4.541,0,0,0,.946-.821c.475-.52.516-3.041.516-3.041Z" transform="translate(-1475.513 -3100.879)" fill="#f7a491"/>
            <path id="Trazado_11265" data-name="Trazado 11265" d="M1480.613,2835.554s-2.842-1.4-2.3,1.646,4.71,37.312,4.71,37.312l3.9.216s.5-11.424.389-13.064a29.946,29.946,0,0,0-.755-4.179l-.331-10.135-3.679-12.513Z" transform="translate(-1471.175 -2795.059)" fill="#063e70"/>
            <path id="Trazado_11266" data-name="Trazado 11266" d="M1482.7,3217.377a6.079,6.079,0,0,0,3.764-.146,2.947,2.947,0,0,1,.3,1.548c-.16.46-.37.665-.572.67-1.6.042-5.87,0-7.088.013a.2.2,0,0,1-.155-.322A32.343,32.343,0,0,1,1482.7,3217.377Z" transform="translate(-1471.756 -3134.435)" fill="#063e70"/>
            <path id="Trazado_11267" data-name="Trazado 11267" d="M1424.457,2501.163a45.048,45.048,0,0,1-2.776-6.32c-.373-1.7-1.664-10.244-1.555-10.795s2.15-1.875,1.9-2.342-2.2-.469-2.641-.429a4.026,4.026,0,0,0-1.723.615c-.383.316.431,10.559.674,12.764s3.228,9,3.228,9Z" transform="translate(-1417.313 -2481.26)" fill="#f7a491"/>
            <g id="Grupo_1139" data-name="Grupo 1139" transform="translate(3.695 12.698)">
              <path id="Trazado_11268" data-name="Trazado 11268" d="M1645.274,2940.182a23.545,23.545,0,0,0,2.423-2.918c.236-.45.45-1.6.944-1.8a1.271,1.271,0,0,1,.794-.11l5.2,4.084c.283.223-.045.25-.4.229a13.379,13.379,0,0,1-2.661-.493c-.107-.026-.529-.078-.679-.1a4.553,4.553,0,0,0-1.252.042c-.7.1-2.317,2.036-2.317,2.036Z" transform="translate(-1623.105 -2896.947)" fill="#f7a491"/>
              <path id="Trazado_11269" data-name="Trazado 11269" d="M1671.425,2938.2a6.079,6.079,0,0,0-3.015-2.259c.182-.521.382-1.2.721-1.412.415-.256.7-.2.861-.08,1.266.974,4.581,3.64,5.536,4.395a.2.2,0,0,1-.083.347A32.346,32.346,0,0,1,1671.425,2938.2Z" transform="translate(-1643.638 -2896.073)" fill="#063e70"/>
              <path id="Trazado_11270" data-name="Trazado 11270" d="M1506.716,2599.924a5.791,5.791,0,0,0-6.614-3.323,6.091,6.091,0,0,0-3.948-2.4c-3.015-.427-6.906,1.036-6.509,4.183-.953,2.2-.719,5.235,1.184,6.723-.349,2.894,2.552,5.461,5.986,5.115a6.224,6.224,0,0,0,6.03,2.59,13.579,13.579,0,0,1,1.5-.277c-.176-.02,3.917,2.661,6.74-2.112C1513.965,2605.552,1511.128,2600.107,1506.716,2599.924Z" transform="translate(-1484.5 -2594.128)" fill="#031322"/>
              <path id="Trazado_11271" data-name="Trazado 11271" d="M1489.1,2831.017s6.373-2.833,6.474-2.51c.8,2.574,3.285,1.743,4.761,6.276.618,1.9,1.252,14.525,1.252,14.525s2.513-2.085,6.1-5.73c.276-.28,2.976,2.288,2.976,2.288-7.129,9.632-10.2,10.134-11.394,9.595-2.483-1.126-7.722-16.872-7.714-16.87C1490.931,2837.365,1489.1,2831.017,1489.1,2831.017Z" transform="translate(-1484.5 -2802.116)" fill="#064c91"/>
              <path id="Trazado_11272" data-name="Trazado 11272" d="M1583.021,2670s9.212-.012,11.184-.125c1.785-.1,8.865.077,9.142.045s2.107-3.131,2.411-2.8-1.018,1.537-.609,1.849,4.8-.387,4.745-.062c-.109.608-2.673.53-2.67.823s2.683-.164,2.865.323-2.578.2-2.688.416,2.56.615,2.287,1.069c-.148.246-2.366-.411-2.355-.075s1.629,1.1,1.43,1.366-1.27-.82-2.208-.834-1.611-.5-3.109-.092c-.74.2-6.389.894-11.161,1.3-4.893.418-8.9.551-8.9.551Z" transform="translate(-1567.855 -2658.89)" fill="#f7a491"/>
              <path id="Trazado_11273" data-name="Trazado 11273" d="M1449.72,2659.067a11.723,11.723,0,0,1,.235-3.109c-.447-1.536-1.4-4.814-1.741-5.458,0,0,1.6-3.082,3.246-3.061,0,0,1.677,3.78,2.973,4.456a3.211,3.211,0,0,0,.652.195c1.252-.009,5.626-.141,6.442-.156l-.459,6.206c-3.17,6.213-2.311,9.473-1.105,10.679.567.567-7.909,2.869-8.3,2.066C1451.2,2669.937,1449.967,2662.057,1449.72,2659.067Z" transform="translate(-1448.214 -2641.441)" fill="#ffcb83"/>
              <path id="Trazado_11274" data-name="Trazado 11274" d="M1546.8,2687.574c.807-.385,6.645-.192,6.645-.192s.816,4.065.157,5.043c0,0-5.221.777-5.072,1.205Z" transform="translate(-1535.706 -2676.848)" fill="#ffcb83"/>
              <path id="Trazado_11275" data-name="Trazado 11275" d="M1502.849,2656.9a30.252,30.252,0,0,0,0,3.141,3.231,3.231,0,0,1-2.9,3.127c-1.957.037-.287-2.078-.116-2.987s.377-4.467.377-4.467Z" transform="translate(-1493.289 -2648.783)" fill="#f7a491"/>
              <path id="Trazado_11276" data-name="Trazado 11276" d="M1508.788,2655.711s-.048.826-.116,1.783a2.278,2.278,0,0,0,2.72.664c.012-.687.039-1.262.039-1.262Z" transform="translate(-1501.87 -2648.783)" fill="#f47458"/>
              <path id="Trazado_11277" data-name="Trazado 11277" d="M1505.442,2606.915a3.252,3.252,0,0,1,1.73,1.44c.622,1.109.884,4.265-1.506,5.565s-4.029-.885-3.919-2.9S1502.471,2606.354,1505.442,2606.915Z" transform="translate(-1495.719 -2605.409)" fill="#f7a491"/>
              <path id="Trazado_11278" data-name="Trazado 11278" d="M1496.912,2629.506c.162.5.529.827.819.733s.395-.575.233-1.074-.529-.826-.819-.732S1496.75,2629.007,1496.912,2629.506Z" transform="translate(-1491.365 -2624.559)" fill="#f7a491"/>
              <path id="Trazado_11279" data-name="Trazado 11279" d="M1531.671,2606.725s1.214,3.318,2.455,3.693,1.111,1.993,1.111,1.993.23-3.743-.893-4.683A4.984,4.984,0,0,0,1531.671,2606.725Z" transform="translate(-1522.282 -2605.308)" fill="#031322"/>
              <path id="Trazado_11280" data-name="Trazado 11280" d="M1547.845,2639.578c-.2.511-.086,1.037.26,1.173s.79-.167.992-.678.086-1.037-.26-1.173S1548.048,2639.067,1547.845,2639.578Z" transform="translate(-1536.549 -2633.833)" fill="#f7a491"/>
            </g>
            <path id="Trazado_11281" data-name="Trazado 11281" d="M1415.373,2487.29s2.7.118,3.016.118,1.239-.954,1.239-.954Z" transform="translate(-1415.373 -2485.87)" fill="#f47458"/>
          </g>
          <g id="Grupo_1142" data-name="Grupo 1142">
            <path id="Trazado_11282" data-name="Trazado 11282" d="M1343.572,2313.106a10.478,10.478,0,1,1-14.6-2.557A10.477,10.477,0,0,1,1343.572,2313.106Z" transform="translate(-1324.518 -2308.647)" fill="#ffcb83"/>
            <path id="Trazado_11283" data-name="Trazado 11283" d="M1355.49,2327.372a8.792,8.792,0,1,1-12.247-2.146A8.792,8.792,0,0,1,1355.49,2327.372Z" transform="translate(-1337.815 -2321.944)" fill="#e6a748"/>
            <g id="Grupo_1141" data-name="Grupo 1141" transform="translate(6.762 4.077)">
              <path id="Trazado_11284" data-name="Trazado 11284" d="M1389.357,2357.475l-.383-1.417a7.13,7.13,0,0,1-1.872.165.893.893,0,0,1-.847-.881v-.057a.891.891,0,0,1,.946-.9,5.2,5.2,0,0,0,1.693-.159c.85-.23,1.343-.715,1.182-1.312-.153-.567-.727-.8-1.932-.87-1.741-.105-3.032-.557-3.423-2a2.855,2.855,0,0,1,1.8-3.336l-.383-1.417,1.462-.4.355,1.312a6.6,6.6,0,0,1,1.414-.171.892.892,0,0,1,.892.882h0a.892.892,0,0,1-.911.9,4.756,4.756,0,0,0-1.36.168c-.969.262-1.17.764-1.057,1.182.133.492.74.664,2.136.8,1.944.146,2.882.773,3.245,2.115a2.961,2.961,0,0,1-1.909,3.477l.411,1.521Z" transform="translate(-1384.625 -2344.889)" fill="#eefbff"/>
            </g>
          </g>
        </g>
        <path id="Trazado_11285" data-name="Trazado 11285" d="M1442.182,2480.864l1.114-1s-.526-.629-.307-.75c.355-.2.964.563.91.748a4.365,4.365,0,0,1-.708.78Z" transform="translate(-1428.945 -2459.907)" fill="#f7a491"/>
      </g>
    </g>
  </g>
</svg>
