<svg xmlns="http://www.w3.org/2000/svg" xmlns:xlink="http://www.w3.org/1999/xlink" width="281.483" height="183.183" viewBox="0 0 281.483 183.183">
  <defs>
    <linearGradient id="linear-gradient" x1="0.252" y1="-2.331" x2="0.949" y2="4.898" gradientUnits="objectBoundingBox">
      <stop offset="0" stop-color="#5393d0"/>
      <stop offset="0.119" stop-color="#5393d0" stop-opacity="0.976"/>
      <stop offset="0.258" stop-color="#5393d0" stop-opacity="0.91"/>
      <stop offset="0.407" stop-color="#5393d0" stop-opacity="0.796"/>
      <stop offset="0.562" stop-color="#5393d0" stop-opacity="0.639"/>
      <stop offset="0.723" stop-color="#5393d0" stop-opacity="0.439"/>
      <stop offset="0.885" stop-color="#5393d0" stop-opacity="0.196"/>
      <stop offset="1" stop-color="#5393d0" stop-opacity="0"/>
    </linearGradient>
    <linearGradient id="linear-gradient-2" x1="0.552" y1="1.081" x2="0.492" y2="-0.17" gradientUnits="objectBoundingBox">
      <stop offset="0" stop-color="#f5ebcb"/>
      <stop offset="0.414" stop-color="#b7c2b1"/>
      <stop offset="0.84" stop-color="#759696"/>
    </linearGradient>
    <radialGradient id="radial-gradient" cx="-0.152" cy="-0.115" r="1.897" gradientTransform="translate(0.141) scale(0.718 1)" gradientUnits="objectBoundingBox">
      <stop offset="0.005" stop-color="#22567d"/>
      <stop offset="0.255" stop-color="#1f4e75"/>
      <stop offset="0.63" stop-color="#1a3962"/>
      <stop offset="1" stop-color="#131f49"/>
    </radialGradient>
    <linearGradient id="linear-gradient-3" x1="-1.118" y1="-0.231" x2="2.216" y2="1.205" gradientUnits="objectBoundingBox">
      <stop offset="0.168" stop-color="#bdb58f"/>
      <stop offset="0.256" stop-color="#b3ab87"/>
      <stop offset="0.406" stop-color="#989273"/>
      <stop offset="0.598" stop-color="#6d6953"/>
      <stop offset="0.823" stop-color="#333126"/>
      <stop offset="1"/>
    </linearGradient>
    <linearGradient id="linear-gradient-4" x1="-0.422" y1="-0.553" x2="1.059" y2="1.069" gradientUnits="objectBoundingBox">
      <stop offset="0" stop-color="#858274"/>
      <stop offset="0.722" stop-color="#252420"/>
      <stop offset="1"/>
    </linearGradient>
    <linearGradient id="linear-gradient-5" x1="-0.149" y1="-2.001" x2="0.531" y2="0.621" xlink:href="#linear-gradient-3"/>
    <clipPath id="clip-path">
      <rect id="Rectángulo_1984" data-name="Rectángulo 1984" width="15.476" height="13.459" fill="none"/>
    </clipPath>
  </defs>
  <g id="img_illustration" transform="translate(21851.703 20111.557)">
    <g id="Grupo_1188" data-name="Grupo 1188" transform="translate(-21823.508 -20045.84)">
      <g id="Grupo_1181" data-name="Grupo 1181" transform="translate(0 0)">
        <path id="Trazado_11335" data-name="Trazado 11335" d="M105.439,267.993c.839-4.971,8.495-7.215,8.345-3.971l35.094.205a4.684,4.684,0,0,1,4.4,4.887l.073,92.3a4.832,4.832,0,0,1-4.48,5.078l-35.826.307a2.866,2.866,0,0,1-1.294,1.246c-4.109.088-6.079-1.941-6.8-4.235a5.522,5.522,0,0,1-.356-2.014C104.743,360.595,105.18,269.159,105.439,267.993Z" transform="translate(-104.599 -262.503)" fill="#5393d0"/>
        <g id="Grupo_1180" data-name="Grupo 1180" transform="translate(2.893 0.013)">
          <g id="Grupo_1179" data-name="Grupo 1179">
            <path id="Trazado_11336" data-name="Trazado 11336" d="M121.421,368.1l41.123-.265a4.967,4.967,0,0,0,4.637-5.216l-.154-94.92a4.819,4.819,0,0,0-4.564-5.011l-40.324-.131a4.845,4.845,0,0,0-4.632,5l-.731,95.359A4.886,4.886,0,0,0,121.421,368.1Z" transform="translate(-116.776 -262.559)" fill="#8accfb"/>
            <path id="Trazado_11337" data-name="Trazado 11337" d="M122.744,369.443a3.706,3.706,0,0,0,.52.032l41.11-.311a4.337,4.337,0,0,0,4-4.564l-.142-94.816a4.206,4.206,0,0,0-3.94-4.386l-40.321-.175c-.063,0-.127,0-.19,0a3.816,3.816,0,0,0-2.672,1.3,4.56,4.56,0,0,0-1.136,3.019L119.256,365A4.287,4.287,0,0,0,122.744,369.443Z" transform="translate(-118.666 -264.59)" fill="#34538a"/>
            <path id="Trazado_11338" data-name="Trazado 11338" d="M126.017,285.438l-.693,95.123,46.312-.277-.118-94.846Z" transform="translate(-123.293 -280.002)" fill="#fff"/>
          </g>
        </g>
      </g>
      <g id="Grupo_1183" data-name="Grupo 1183" transform="translate(5.576 5.449)">
        <g id="Grupo_1182" data-name="Grupo 1182">
          <path id="Trazado_11339" data-name="Trazado 11339" d="M184.683,285.439l10.981,14.915c0,.006,0,.012,0,.019-.108,2.929,6.155,2.935,6.346.006a.171.171,0,0,0,0-.019l-10.831-14.921Z" transform="translate(-171.233 -285.439)" fill="#e6f2ff"/>
          <path id="Trazado_11340" data-name="Trazado 11340" d="M212.033,285.439l10.831,14.921a.16.16,0,0,0,0,.019c-.138,2.928,6.122,2.934,6.344.006,0-.006,0-.012,0-.019l-10.68-14.928Z" transform="translate(-192.085 -285.439)" fill="#e8595b"/>
          <path id="Trazado_11341" data-name="Trazado 11341" d="M157.327,285.438l11.132,14.908v.019c0,.011,0,.022,0,.033-.1,2.726,6.183,3.058,6.35-.027a.17.17,0,0,0,0-.019l-10.981-14.915Z" transform="translate(-150.376 -285.438)" fill="#e8595b"/>
          <path id="Trazado_11342" data-name="Trazado 11342" d="M128.07,285.438l11.532,14.9v.019c-.073,3.8,6.363,3.35,6.548.04,0-.011,0-.022,0-.033v-.019l-11.132-14.908Z" transform="translate(-128.07 -285.438)" fill="#e6f2ff"/>
          <path id="Trazado_11343" data-name="Trazado 11343" d="M300.527,285.44h-6.49l10.377,14.94c0,.007,0,.013,0,.019-.227,2.927,6.246,2.933,6.56.007,0-.007,0-.013,0-.019Z" transform="translate(-254.606 -285.44)" fill="#e6f2ff"/>
          <path id="Trazado_11344" data-name="Trazado 11344" d="M239.373,285.439l10.68,14.928a.173.173,0,0,0,0,.019c-.168,2.928,6.09,2.934,6.341.007a.166.166,0,0,0,0-.019l-10.528-14.934Z" transform="translate(-212.929 -285.439)" fill="#e6f2ff"/>
          <path id="Trazado_11345" data-name="Trazado 11345" d="M266.71,285.44l10.528,14.934c0,.007,0,.013,0,.019-.2,2.927,6.058,2.933,6.34.006a.172.172,0,0,0,0-.019L273.2,285.44Z" transform="translate(-233.771 -285.44)" fill="#e8595b"/>
        </g>
        <path id="Trazado_11346" data-name="Trazado 11346" d="M183.154,348.28c-.185,3.31-6.622,3.759-6.548-.04" transform="translate(-165.074 -333.319)" fill="#009fe2" opacity="0.3" style="mix-blend-mode: multiply;isolation: isolate"/>
        <path id="Trazado_11347" data-name="Trazado 11347" d="M210.691,348.28c-.185,3.31-6.622,3.759-6.549-.04" transform="translate(-186.068 -333.319)" fill="#cc2537"/>
        <path id="Trazado_11348" data-name="Trazado 11348" d="M230.9,348.3l6.346.006C237.053,351.23,230.791,351.224,230.9,348.3Z" transform="translate(-206.467 -333.361)" fill="#009fe2" opacity="0.3" style="mix-blend-mode: multiply;isolation: isolate"/>
        <path id="Trazado_11349" data-name="Trazado 11349" d="M257.611,348.322l6.344.006C263.733,351.256,257.472,351.25,257.611,348.322Z" transform="translate(-226.832 -333.382)" fill="#cc2537"/>
        <path id="Trazado_11350" data-name="Trazado 11350" d="M284.313,348.349l6.341.007C290.4,351.283,284.145,351.277,284.313,348.349Z" transform="translate(-247.19 -333.402)" fill="#009fe2" opacity="0.3" style="mix-blend-mode: multiply;isolation: isolate"/>
        <path id="Trazado_11351" data-name="Trazado 11351" d="M311,348.377l6.34.006C317.062,351.31,310.806,351.3,311,348.377Z" transform="translate(-267.538 -333.424)" fill="#cc2537"/>
        <path id="Trazado_11352" data-name="Trazado 11352" d="M344.25,348.411c-.314,2.926-6.787,2.92-6.56-.007Z" transform="translate(-287.883 -333.444)" fill="#009fe2" opacity="0.3" style="mix-blend-mode: multiply;isolation: isolate"/>
      </g>
      <g id="Grupo_1187" data-name="Grupo 1187" transform="translate(9.84 26.425)">
        <g id="Grupo_1185" data-name="Grupo 1185">
          <path id="Trazado_11353" data-name="Trazado 11353" d="M181.3,378.328l-33.116-.194a2.2,2.2,0,0,1-2.162-2.216,2.169,2.169,0,0,1,2.162-2.19l33.116.218a2.184,2.184,0,0,1,2.138,2.2A2.152,2.152,0,0,1,181.3,378.328Zm-33.116-4.454a2.025,2.025,0,0,0-2.019,2.044,2.055,2.055,0,0,0,2.019,2.069l33.116.195a2.009,2.009,0,0,0,2-2.033,2.039,2.039,0,0,0-2-2.058Z" transform="translate(-146.017 -373.728)" fill="#0093fb"/>
          <path id="Trazado_11354" data-name="Trazado 11354" d="M283.447,374.879,280,374.856V379.1l3.445.021a2.078,2.078,0,0,0,2.067-2.106A2.109,2.109,0,0,0,283.447,374.879Z" transform="translate(-248.169 -374.588)" fill="#5ab6fb"/>
          <g id="Grupo_1184" data-name="Grupo 1184" transform="translate(32.931 0.821)">
            <path id="Trazado_11355" data-name="Trazado 11355" d="M285.7,379.379a1.059,1.059,0,0,1-.758-.326,1.118,1.118,0,0,1,0-1.552,1.046,1.046,0,0,1,.758-.317,1.058,1.058,0,0,1,.757.327h0a1.118,1.118,0,0,1,0,1.552A1.045,1.045,0,0,1,285.7,379.379Zm0-1.93a.792.792,0,0,0-.575.24.848.848,0,0,0,0,1.178.8.8,0,0,0,.575.247.793.793,0,0,0,.574-.24.848.848,0,0,0,0-1.177A.8.8,0,0,0,285.7,377.449Z" transform="translate(-284.625 -377.184)" fill="#fff"/>
            <path id="Trazado_11356" data-name="Trazado 11356" d="M292.362,385.331l-.812-.844.183-.186.812.844Z" transform="translate(-289.905 -382.61)" fill="#fff"/>
            <path id="Trazado_11357" data-name="Trazado 11357" d="M293.255,386.091h0a.229.229,0,0,1-.329,0l-.68-.7.329-.335.68.7A.243.243,0,0,1,293.255,386.091Z" transform="translate(-290.435 -383.183)" fill="#fff"/>
          </g>
        </g>
        <path id="Trazado_11358" data-name="Trazado 11358" d="M184.138,455.406l-37.4-.12V417.043l37.4.162Z" transform="translate(-146.57 -406.752)" fill="#7ebefb"/>
        <path id="Trazado_11359" data-name="Trazado 11359" d="M182.5,656.516l-34.114-.018a1.641,1.641,0,0,1-1.64-1.641v-2.877a1.641,1.641,0,0,1,1.642-1.641l34.114.024a1.641,1.641,0,0,1,1.64,1.641v2.871A1.641,1.641,0,0,1,182.5,656.516Z" transform="translate(-146.571 -584.621)" fill="#5ab6fb"/>
        <rect id="Rectángulo_1973" data-name="Rectángulo 1973" width="37.396" height="1.352" transform="translate(0.172 52.091)" fill="#7ebefb"/>
        <rect id="Rectángulo_1974" data-name="Rectángulo 1974" width="19.996" height="1.352" transform="translate(0.172 54.947)" fill="#e4e4e4"/>
        <rect id="Rectángulo_1975" data-name="Rectángulo 1975" width="19.996" height="1.352" transform="translate(0.172 57.804)" fill="#e4e4e4"/>
        <g id="Grupo_1186" data-name="Grupo 1186" transform="translate(4.647 20.147)">
          <path id="Trazado_11360" data-name="Trazado 11360" d="M206.94,458.633a12.334,12.334,0,0,0,6.482-.107c2.467,3.049-1.879,4.5-4.592,3.841S206.94,458.633,206.94,458.633Z" transform="translate(-197.023 -458.526)" fill="#cbe4fb"/>
          <path id="Trazado_11361" data-name="Trazado 11361" d="M202.055,458.526a3.126,3.126,0,0,1-1.428,2.021c-1.846,1.087-4.23-.078-5.054-1.915a17.667,17.667,0,0,0-3.66.815v21.031l14.522.05V459.506A16.894,16.894,0,0,0,202.055,458.526Z" transform="translate(-185.656 -458.526)" fill="#398cdb"/>
          <path id="Trazado_11362" data-name="Trazado 11362" d="M171.833,462.405l-6.257,4.926,4.115,5.513,6.125-4.643Z" transform="translate(-165.575 -461.484)" fill="#398cdb"/>
          <path id="Trazado_11363" data-name="Trazado 11363" d="M240.459,462.652l6.257,4.972-4.11,5.478-6.128-4.688Z" transform="translate(-219.633 -461.672)" fill="#398cdb"/>
        </g>
      </g>
      <path id="Trazado_11364" data-name="Trazado 11364" d="M174.322,628.568l.508,1.029,1.136.165-.822.8.194,1.131-1.016-.534-1.016.534.194-1.131-.822-.8,1.136-.165Z" transform="translate(-156.503 -541.596)" fill="#ffbf10"/>
      <path id="Trazado_11365" data-name="Trazado 11365" d="M196.74,628.568l.508,1.029,1.136.165-.822.8.194,1.131-1.016-.534-1.016.534.194-1.131-.822-.8,1.136-.165Z" transform="translate(-173.595 -541.596)" fill="#ffbf10"/>
      <path id="Trazado_11366" data-name="Trazado 11366" d="M219.158,628.568l.508,1.029,1.136.165-.822.8.194,1.131-1.016-.534-1.016.534.194-1.131-.822-.8,1.136-.165Z" transform="translate(-190.687 -541.596)" fill="#ffbf10"/>
      <path id="Trazado_11367" data-name="Trazado 11367" d="M241.576,628.568l.508,1.029,1.136.165-.822.8.194,1.131-1.016-.534-1.016.534.194-1.131-.822-.8,1.136-.165Z" transform="translate(-207.778 -541.596)" fill="#ffbf10"/>
      <path id="Trazado_11368" data-name="Trazado 11368" d="M263.993,628.568l.508,1.029,1.136.165-.822.8.194,1.131-1.016-.534-1.016.534.194-1.131-.822-.8,1.136-.165Z" transform="translate(-224.87 -541.596)" fill="#ccc"/>
    </g>
    <g id="Grupo_1253" data-name="Grupo 1253" transform="translate(-21851.018 -20005.637)">
      <g id="Grupo_1198" data-name="Grupo 1198" transform="translate(0 24.79)">
        <g id="Grupo_1191" data-name="Grupo 1191" transform="translate(28.059 20.005)">
          <g id="Grupo_1190" data-name="Grupo 1190">
            <g id="Grupo_1189" data-name="Grupo 1189">
              <path id="Trazado_11369" data-name="Trazado 11369" d="M119.936,623.056l.675,4.046,4.57,24.68h.737l-3.323-24.68-.491-4.046Z" transform="translate(-119.936 -623.056)" fill="#dcdcdc"/>
            </g>
          </g>
          <path id="Trazado_11370" data-name="Trazado 11370" d="M122.1,623.056h-2.167l.675,4.046h1.983Z" transform="translate(-119.936 -623.056)" fill="#a8a8a8"/>
        </g>
        <g id="Grupo_1194" data-name="Grupo 1194" transform="translate(13.708 20.005)">
          <g id="Grupo_1193" data-name="Grupo 1193">
            <g id="Grupo_1192" data-name="Grupo 1192">
              <path id="Trazado_11371" data-name="Trazado 11371" d="M61.487,651.782h.737l4.57-24.68.675-4.046H65.3l-.491,4.046Z" transform="translate(-61.487 -623.056)" fill="#dcdcdc"/>
            </g>
          </g>
          <path id="Trazado_11372" data-name="Trazado 11372" d="M75.513,623.056l-.491,4.046h1.983l.675-4.046Z" transform="translate(-71.699 -623.056)" fill="#a8a8a8"/>
        </g>
        <g id="Grupo_1197" data-name="Grupo 1197" transform="translate(0 20.005)">
          <g id="Grupo_1196" data-name="Grupo 1196">
            <g id="Grupo_1195" data-name="Grupo 1195">
              <path id="Trazado_11373" data-name="Trazado 11373" d="M5.661,651.782H6.4l4.57-24.68.675-4.046H9.475L8.984,627.1Z" transform="translate(-5.661 -623.056)" fill="#dcdcdc"/>
            </g>
          </g>
          <path id="Trazado_11374" data-name="Trazado 11374" d="M19.2,627.1h1.983l.675-4.046H19.686Z" transform="translate(-15.872 -623.056)" fill="#a8a8a8"/>
        </g>
        <path id="Trazado_11375" data-name="Trazado 11375" d="M10.419,563.49H43.906v-3.529H31.37l-4.213-18.377H11.7Z" transform="translate(-9.251 -541.584)" fill="#dcdcdc"/>
        <path id="Trazado_11376" data-name="Trazado 11376" d="M10.419,563.49h1.825l1.19-21.905H11.7Z" transform="translate(-9.251 -541.584)" fill="#a8a8a8"/>
      </g>
      <g id="Grupo_1252" data-name="Grupo 1252" transform="translate(0 0)">
        <g id="Grupo_1218" data-name="Grupo 1218" transform="translate(5.251 27.714)">
          <g id="Grupo_1207" data-name="Grupo 1207" transform="translate(1.756 0.194)">
            <g id="Grupo_1204" data-name="Grupo 1204" transform="translate(7.575 28.144)">
              <g id="Grupo_1199" data-name="Grupo 1199" transform="translate(0.17)">
                <path id="Trazado_11377" data-name="Trazado 11377" d="M91.752,689.242c-.632.079-17.873-3.944-18.433-4.486-.068-.06.539-3.4.539-3.4C74.128,680,78.826,668.9,78.826,668.9L90.1,671.684,85.322,681.99s2.149,1.454,4,2.841c0,0,0,0,0,.006a24.687,24.687,0,0,1,2.336,1.869C92.205,687.362,92.382,689.168,91.752,689.242Z" transform="translate(-73.312 -668.903)" fill="#ffaba1"/>
                <path id="Trazado_11378" data-name="Trazado 11378" d="M73.315,709.732c.56.543,17.8,4.566,18.435,4.486s.452-1.879-.094-2.536a25.1,25.1,0,0,0-2.337-1.868s0,0-.006-.006c-1.845-1.387-3.994-2.843-3.994-2.843l1.063-2.3-10.922-2.661c-.827,2.061-1.507,3.835-1.606,4.33C73.855,706.338,73.246,709.673,73.315,709.732Z" transform="translate(-73.309 -693.88)" fill="#ececec"/>
              </g>
              <g id="Grupo_1203" data-name="Grupo 1203" transform="translate(0 9.448)">
                <path id="Trazado_11379" data-name="Trazado 11379" d="M91.275,720.142c-.653.068-18.034-3.828-18.6-4.4-.219-.212.2-2.774.8-5.856l.02-.1,11.241,2.388-.047.189s5.985,4.463,6.543,5.153S91.927,720.077,91.275,720.142Z" transform="translate(-72.616 -709.202)" fill="#ffbf10"/>
                <g id="Grupo_1202" data-name="Grupo 1202" transform="translate(0.924)">
                  <g id="Grupo_1201" data-name="Grupo 1201">
                    <path id="Trazado_11380" data-name="Trazado 11380" d="M94.068,737.057c-2.914-.729-14.734-3.392-17.67-3.891-.024,0-.027.012,0,.018,2.872.785,14.714,3.353,17.664,3.921C94.119,737.117,94.129,737.073,94.068,737.057Z" transform="translate(-76.378 -726.834)" fill="#1a2e35"/>
                    <path id="Trazado_11381" data-name="Trazado 11381" d="M115.846,719.539a4.19,4.19,0,0,0-3.62.01c-.041.024-.006.083.034.079a16.626,16.626,0,0,1,3.549.055A.075.075,0,0,0,115.846,719.539Z" transform="translate(-103.41 -716.247)" fill="#1a2e35"/>
                    <path id="Trazado_11382" data-name="Trazado 11382" d="M118.777,722.338a4.189,4.189,0,0,0-3.62.01c-.041.024-.006.082.034.079a16.633,16.633,0,0,1,3.549.055A.075.075,0,0,0,118.777,722.338Z" transform="translate(-105.621 -718.358)" fill="#1a2e35"/>
                    <path id="Trazado_11383" data-name="Trazado 11383" d="M121.708,725.138a4.191,4.191,0,0,0-3.62.01c-.041.024-.006.082.034.079a16.625,16.625,0,0,1,3.549.055A.076.076,0,0,0,121.708,725.138Z" transform="translate(-107.833 -720.471)" fill="#1a2e35"/>
                    <g id="Grupo_1200" data-name="Grupo 1200" transform="translate(6.731)">
                      <path id="Trazado_11384" data-name="Trazado 11384" d="M122.631,710.22c-.313-.725-1.22-.634-1.792-.338a6.3,6.3,0,0,0-2.368,2.239.031.031,0,0,0,.018.047.147.147,0,0,0,.149.184,10.511,10.511,0,0,0,3.109-.61C122.305,711.481,122.927,710.906,122.631,710.22Zm-2.474,1.6c-.505.08-1.012.136-1.514.235a18.877,18.877,0,0,1,1.412-1.277,6.734,6.734,0,0,1,.759-.522c.413-.235,1.92-.594,1.433.624C121.979,711.555,120.76,711.728,120.158,711.824Z" transform="translate(-114.863 -709.103)" fill="#1a2e35"/>
                      <path id="Trazado_11385" data-name="Trazado 11385" d="M104.537,709.444a10.518,10.518,0,0,0,2.945,1.166c.1.033.179-.065.18-.154a.032.032,0,0,0,.026-.044,6.3,6.3,0,0,0-1.92-2.633c-.508-.4-1.383-.65-1.823.005C103.529,708.4,104.035,709.083,104.537,709.444Zm-.336-.938c-.256-1.286,1.16-.659,1.523-.352a6.852,6.852,0,0,1,.651.652,18.879,18.879,0,0,1,1.155,1.513c-.476-.189-.964-.336-1.446-.507C105.509,709.608,104.342,709.215,104.2,708.506Z" transform="translate(-103.791 -707.382)" fill="#1a2e35"/>
                    </g>
                  </g>
                </g>
                <path id="Trazado_11386" data-name="Trazado 11386" d="M127.964,737.044c2.732.6,4.85,1.023,5.069,1,.654-.065.509-1.93-.045-2.618a24.909,24.909,0,0,0-2.274-1.9Z" transform="translate(-114.374 -727.104)" opacity="0.2"/>
              </g>
            </g>
            <g id="Grupo_1206" data-name="Grupo 1206">
              <path id="Trazado_11387" data-name="Trazado 11387" d="M62.273,595.132l-11.965-2.821s9.986-22.886,9.108-24.049c-.439-.582-11.579-.753-15.122-3.755-4.6-3.9-1.514-9.857-1.514-9.857l12.441-.369s-.15,2.6.335,2.99c.32.261,15.144,1.507,16.772,6.5C74.325,569.9,62.273,595.132,62.273,595.132Z" transform="translate(-41.766 -554.281)" fill="#34538a"/>
              <g id="Grupo_1205" data-name="Grupo 1205" transform="translate(9.737 36.219)">
                <path id="Trazado_11388" data-name="Trazado 11388" d="M92.189,704.569c-.314-.149-3.412-1.056-4.107-1.234-1.4-.358-2.8-.71-4.212-1.031-.735-.168-2.309-.534-2.406-.516-.046.008-.055.087-.013.1,1.365.451,2.75.831,4.135,1.216s6.152,1.533,6.57,1.561C92.2,704.668,92.233,704.59,92.189,704.569Z" transform="translate(-81.424 -701.787)" fill="#1a2e35"/>
              </g>
              <path id="Trazado_11389" data-name="Trazado 11389" d="M66.185,570.926a1.9,1.9,0,0,0-.939-.292q-2.694-.45-5.387-.9c-1.681-.281-3.37-.532-5.043-.855a11.572,11.572,0,0,1-3.992-1.378,5.784,5.784,0,0,1-2.446-3.2,10.32,10.32,0,0,1-.317-4.1c.032-.334.094-.667.156-1,0-.025-.035-.033-.04-.008-.455,2.548-.5,5.505,1.415,7.536a7.645,7.645,0,0,0,3.517,1.948,40.087,40.087,0,0,0,4.525.879q2.694.451,5.388.9c.864.144,1.742.256,2.6.435a.883.883,0,0,1,.468.207.668.668,0,0,1,.076.622c-.087.423-.2.841-.322,1.256-.98,3.345-8.217,20.411-8.411,20.779-.021.039.04.068.062.031,1.648-2.934,7.062-16.366,8.15-19.53a19.972,19.972,0,0,0,.706-2.463A.838.838,0,0,0,66.185,570.926Z" transform="translate(-46.407 -557.976)" fill="#1a2e35"/>
            </g>
          </g>
          <g id="Grupo_1217" data-name="Grupo 1217">
            <g id="Grupo_1213" data-name="Grupo 1213" transform="translate(26.196 31.913)">
              <g id="Grupo_1208" data-name="Grupo 1208">
                <path id="Trazado_11390" data-name="Trazado 11390" d="M160.843,700.982c-.6.2-17.859-.04-18.516-.46-.719-.684-1.024-16.965-1.024-16.965l11.1-.092.692,11.689s2.4,1,4.482,1.99c0,0,.005,0,.005.005a24.741,24.741,0,0,1,2.662,1.367C160.913,699.05,161.447,700.784,160.843,700.982Z" transform="translate(-141.303 -683.465)" fill="#ffaba1"/>
                <path id="Trazado_11391" data-name="Trazado 11391" d="M142.529,723.056c.165,3.658.4,7.033.722,7.334.657.421,17.915.665,18.517.46s.071-1.93-.6-2.464a24.932,24.932,0,0,0-2.664-1.367s0,0,0-.006c-2.086-.992-4.483-1.99-4.483-1.99l-.117-1.967Z" transform="translate(-142.228 -713.335)" fill="#ececec"/>
              </g>
              <g id="Grupo_1212" data-name="Grupo 1212" transform="translate(0.305 8.25)">
                <path id="Trazado_11392" data-name="Trazado 11392" d="M162.135,735.268c-.623.206-18.436.121-19.111-.313-.26-.16-.4-2.753-.476-5.89v-.1l11.492-.073-.005.195s6.8,3.078,7.5,3.633S162.758,735.064,162.135,735.268Z" transform="translate(-142.546 -725.988)" fill="#ffbf10"/>
                <g id="Grupo_1211" data-name="Grupo 1211" transform="translate(1.278)">
                  <g id="Grupo_1210" data-name="Grupo 1210">
                    <path id="Trazado_11393" data-name="Trazado 11393" d="M165.863,751.739c-3-.088-15.12-.16-18.094-.019-.024,0-.024.018,0,.019,2.974.152,15.092.126,18.094.05C165.927,751.786,165.927,751.741,165.863,751.739Z" transform="translate(-147.751 -743.15)" fill="#1a2e35"/>
                    <path id="Trazado_11394" data-name="Trazado 11394" d="M183.665,728.774a4.189,4.189,0,0,0-3.534.785c-.035.032.012.082.05.07a16.615,16.615,0,0,1,3.478-.705A.075.075,0,0,0,183.665,728.774Z" transform="translate(-172.172 -725.83)" fill="#1a2e35"/>
                    <path id="Trazado_11395" data-name="Trazado 11395" d="M187.128,730.881a4.189,4.189,0,0,0-3.534.785c-.035.032.012.082.05.07a16.619,16.619,0,0,1,3.478-.705A.075.075,0,0,0,187.128,730.881Z" transform="translate(-174.784 -727.42)" fill="#1a2e35"/>
                    <path id="Trazado_11396" data-name="Trazado 11396" d="M190.592,732.988a4.188,4.188,0,0,0-3.533.785c-.035.032.011.082.05.07a16.642,16.642,0,0,1,3.478-.705A.075.075,0,0,0,190.592,732.988Z" transform="translate(-177.398 -729.009)" fill="#1a2e35"/>
                    <g id="Grupo_1209" data-name="Grupo 1209" transform="translate(5.386)">
                      <path id="Trazado_11397" data-name="Trazado 11397" d="M189.631,717.44c-.461-.641-1.327-.358-1.823.054a6.3,6.3,0,0,0-1.833,2.694.031.031,0,0,0,.028.042.147.147,0,0,0,.185.148,10.5,10.5,0,0,0,2.905-1.261C189.583,718.741,190.067,718.046,189.631,717.44Zm-2.072,2.1c-.476.187-.959.349-1.429.553a18.96,18.96,0,0,1,1.1-1.55,6.825,6.825,0,0,1,.63-.673c.353-.318,1.748-.991,1.534.3C189.28,718.883,188.127,719.314,187.559,719.536Z" transform="translate(-181.974 -717.063)" fill="#1a2e35"/>
                      <path id="Trazado_11398" data-name="Trazado 11398" d="M170.686,722.08a10.507,10.507,0,0,0,3.127.509.147.147,0,0,0,.142-.189.032.032,0,0,0,.016-.048,6.3,6.3,0,0,0-2.44-2.162c-.581-.277-1.49-.339-1.78.4C169.478,721.28,170.118,721.835,170.686,722.08Zm-.529-.844c-.526-1.2.991-.891,1.412-.67a6.8,6.8,0,0,1,.776.5,18.909,18.909,0,0,1,1.453,1.231c-.505-.083-1.013-.122-1.521-.186C171.671,722.032,170.447,721.9,170.157,721.236Z" transform="translate(-169.686 -719.277)" fill="#1a2e35"/>
                    </g>
                  </g>
                </g>
              </g>
            </g>
            <g id="Grupo_1216" data-name="Grupo 1216">
              <path id="Trazado_11399" data-name="Trazado 11399" d="M73.221,596.85l-12.521,0s.158-22.591-.823-23.844c-1.308-1.671-19.614-1.632-23.54-7.081-3.526-4.894-.55-11.819-.55-11.819l13.863-.411a28.507,28.507,0,0,1-1.285,4.36s16.7,3.078,21.378,8.193C72.9,569.7,73.221,596.85,73.221,596.85Z" transform="translate(-34.614 -553.647)" fill="#34538a"/>
              <g id="Grupo_1215" data-name="Grupo 1215" transform="translate(1.51)">
                <path id="Trazado_11400" data-name="Trazado 11400" d="M86.569,567.588a6.622,6.622,0,0,0-1.175.376c-.4.151-.79.324-1.173.51a23.265,23.265,0,0,0-2.193,1.239c-.022.014,0,.044.022.033.75-.389,1.525-.739,2.3-1.073l1.12-.482a11.921,11.921,0,0,0,1.132-.5C86.65,567.665,86.625,567.578,86.569,567.588Z" transform="translate(-71.89 -564.126)" fill="#1a2e35"/>
                <path id="Trazado_11401" data-name="Trazado 11401" d="M91.248,553.536c-.159.632-.3,1.269-.479,1.895-.083.287-.165.58-.274.858-.092.235-.231.5-.5.556-.314.061-.4-.208-.379-.467.028-.289.1-.579.16-.864.066-.328.133-.656.192-.985.03-.165.061-.329.089-.494.007-.041.038-.357.06-.447,0,.008.007.015.017.014l.011,0a.022.022,0,0,0,.019-.016c0-.025,0-.03-.016-.047a.025.025,0,0,0-.029,0c-.06.033-.064.115-.084.176-.051.16-.1.319-.15.481-.087.3-.173.6-.249.909s-.152.609-.227.914a1.425,1.425,0,0,0-.061.7.536.536,0,0,0,.5.4c-.011.021-.024.04-.033.062-.028.062-.048.129-.071.192s-.046.131-.065.2a.576.576,0,0,0-.018.1c0,.037,0,.072,0,.109a.053.053,0,0,0,.1.035c.016-.033.041-.058.059-.089a.565.565,0,0,0,.045-.106c.022-.063.04-.127.056-.191s.036-.128.047-.193a1.145,1.145,0,0,0,.012-.117.723.723,0,0,0,.365-.139,1.218,1.218,0,0,0,.378-.577c.1-.263.169-.536.244-.805a11.839,11.839,0,0,0,.4-2.036A.059.059,0,0,0,91.248,553.536Z" transform="translate(-77.4 -553.492)" fill="#1a2e35"/>
                <path id="Trazado_11402" data-name="Trazado 11402" d="M49.577,559.9c-.057.314-.094.63-.166.941s-.153.608-.254.9a3.227,3.227,0,0,1-.386.814,3.05,3.05,0,0,1-.614.625,5.251,5.251,0,0,1-1.486.826,6.967,6.967,0,0,1-.826.242c-.146.033-.293.058-.441.077a.927.927,0,0,0-.356.082.072.072,0,0,0,.007.123,1.283,1.283,0,0,0,.657.021,4.819,4.819,0,0,0,.7-.123,5.1,5.1,0,0,0,1.327-.559,4.178,4.178,0,0,0,1.11-.907,3.142,3.142,0,0,0,.593-1.3,6.4,6.4,0,0,0,.193-1.764A.031.031,0,0,0,49.577,559.9Z" transform="translate(-43.973 -558.309)" fill="#1a2e35"/>
                <path id="Trazado_11403" data-name="Trazado 11403" d="M67.143,584.694q-.185-2.948-.49-5.887c-.05-.483-.1-.967-.159-1.449a4.541,4.541,0,0,0-.244-1.1,2.185,2.185,0,0,0-1.644-1.3c-.876-.221-1.782-.353-2.673-.5-.911-.148-1.824-.28-2.738-.407-1.851-.258-3.7-.5-5.548-.806a44.322,44.322,0,0,1-5.444-1.224,12.386,12.386,0,0,1-4.628-2.239c-2.821-2.442-2.924-6.535-2.58-9.959.049-.483.108-.966.166-1.448,0-.025-.036-.034-.039-.008a27.243,27.243,0,0,0-.291,5.811,9.478,9.478,0,0,0,1.542,4.5,8.436,8.436,0,0,0,3.9,2.869,30.63,30.63,0,0,0,5.193,1.495c3.659.765,7.391,1.09,11.073,1.719q.681.117,1.36.248a5.619,5.619,0,0,1,1.226.328,2.265,2.265,0,0,1,1.17,2.026c.24,1.95.4,3.913.545,5.873.285,3.95.436,7.921.429,11.881,0,.489,0,2.133-.009,2.622,0,.044.066.039.068,0C67.444,593.774,67.392,588.655,67.143,584.694Z" transform="translate(-40.765 -557.162)" fill="#1a2e35"/>
                <g id="Grupo_1214" data-name="Grupo 1214" transform="translate(25.404 41.113)">
                  <path id="Trazado_11404" data-name="Trazado 11404" d="M155.334,721.057c-2.856-.194-10.991-.115-11.081-.075-.043.019-.032.1.012.1,1.434.1,10.647.151,11.06.075C155.364,721.15,155.383,721.06,155.334,721.057Z" transform="translate(-144.226 -720.931)" fill="#1a2e35"/>
                </g>
              </g>
              <path id="Trazado_11405" data-name="Trazado 11405" d="M90.709,571.594a46.708,46.708,0,0,1,7.562,1.55,52.878,52.878,0,0,1,7.3,2.639c1.326.6,2.61,1.261,3.883,1.961.025.014,0,.051-.023.038a59.222,59.222,0,0,0-7.1-3.094,57.2,57.2,0,0,0-7.39-2.143c-1.413-.307-2.835-.545-4.26-.782C90.588,571.746,90.614,571.584,90.709,571.594Z" transform="translate(-76.871 -567.149)" fill="#1a2e35"/>
              <path id="Trazado_11406" data-name="Trazado 11406" d="M117.59,632.591c-.09-1.361-.231-2.719-.453-4.065-.09-.544-.115-1.246-.684-1.517a62.682,62.682,0,0,0-6.332-1.033.035.035,0,0,0-.016.066c.069.031,5.111.985,5.752,1.136a1,1,0,0,1,.708.368,2.594,2.594,0,0,1,.215.872,56.047,56.047,0,0,1,.7,7.988q.03,1.11.038,2.22c.006.76-.026,1.53.031,2.288a.062.062,0,0,0,.124,0c.058-.689.037-1.39.042-2.081s.006-1.389,0-2.083C117.713,635.362,117.681,633.975,117.59,632.591Z" transform="translate(-91.555 -608.178)" fill="#1a2e35"/>
            </g>
          </g>
        </g>
        <g id="Grupo_1251" data-name="Grupo 1251">
          <g id="Grupo_1226" data-name="Grupo 1226" transform="translate(15.537 5.978)">
            <g id="Grupo_1224" data-name="Grupo 1224" transform="translate(0.31)">
              <g id="Grupo_1219" data-name="Grupo 1219" transform="translate(11.976)">
                <path id="Trazado_11407" data-name="Trazado 11407" d="M129.677,465.312l-3.085,7.585a.284.284,0,0,0,.2.455l4.058.57a.663.663,0,0,0,.621-.339L134.556,466a.284.284,0,0,0-.2-.454l-4.058-.57A.663.663,0,0,0,129.677,465.312Z" transform="translate(-126.54 -464.969)" fill="#2b454e"/>
                <path id="Trazado_11408" data-name="Trazado 11408" d="M131.641,465.571l-3.085,7.585a.284.284,0,0,0,.2.454l4.058.57a.663.663,0,0,0,.622-.339l3.085-7.585a.284.284,0,0,0-.2-.454l-4.058-.57A.662.662,0,0,0,131.641,465.571Z" transform="translate(-128.022 -465.164)" fill="#375a64"/>
                <path id="Trazado_11409" data-name="Trazado 11409" d="M143.478,467.483a.348.348,0,1,1-.287-.4A.348.348,0,0,1,143.478,467.483Z" transform="translate(-138.797 -466.561)" fill="#1a2e35"/>
              </g>
              <path id="Trazado_11410" data-name="Trazado 11410" d="M78.126,495.45c1.564,5.226,5.765,12.338,7.891,12.684,1.012.165,2.785.677,4.289-.288a21.33,21.33,0,0,0,7.345-9.314c.324-.963-4.17-3.827-5-3.127-1.947,1.638-4.436,5.052-4.727,4.986-1.078-.246-4.811-4.433-7.414-7.379C77.349,489.436,77.5,493.367,78.126,495.45Z" transform="translate(-77.765 -485.036)" fill="#ffaba1"/>
              <g id="Grupo_1223" data-name="Grupo 1223" transform="translate(11.44 1.749)">
                <path id="Trazado_11411" data-name="Trazado 11411" d="M153.7,480.791c-.209-2.086-.583-2.589.175-4.443.5-1.216-.066-2.056-1.112-1.177a6.366,6.366,0,0,0-1.835,5.167Z" transform="translate(-144.374 -474.141)" fill="#ffaba1"/>
                <g id="Grupo_1220" data-name="Grupo 1220" transform="translate(1.724)">
                  <path id="Trazado_11412" data-name="Trazado 11412" d="M137.734,484.667a13.4,13.4,0,0,0,1.312-4.91,8.148,8.148,0,0,0-4.376-7.277c-.947-.557-2.692-.679-1.475.793.864,1.045,1.728,1.447,2.12,2.147,0,0-2.238.108-2.759,1.079a20.312,20.312,0,0,0-1.181,2.634,4.285,4.285,0,0,0,.473.265,3.3,3.3,0,0,0,.055,2.409Z" transform="translate(-131.375 -472.094)" fill="#ffaba1"/>
                </g>
                <path id="Trazado_11413" data-name="Trazado 11413" d="M133.511,485.272a12.185,12.185,0,0,0-3-2.607c-1.456-.8-4.474-1.936-5.05-.856-.423.792.692,1.329.692,1.329s-1.347-.208-1.572.591c-.205.728.682,1.092.682,1.092s-.839.014-.9.753c-.075.89,1.7.714,2.4,1.681C126.912,487.473,133.511,485.272,133.511,485.272Z" transform="translate(-124.355 -479.091)" fill="#ffaba1"/>
                <g id="Grupo_1221" data-name="Grupo 1221" transform="translate(1.787 4.028)">
                  <path id="Trazado_11414" data-name="Trazado 11414" d="M135.413,489.725a6.609,6.609,0,0,0-3.745-1.223c-.034,0-.052.027-.02.033a16.288,16.288,0,0,1,3.758,1.2C135.414,489.742,135.42,489.73,135.413,489.725Z" transform="translate(-131.631 -488.5)" fill="#1a2e35"/>
                </g>
                <g id="Grupo_1222" data-name="Grupo 1222" transform="translate(0.876 5.693)">
                  <path id="Trazado_11415" data-name="Trazado 11415" d="M131.768,496.286a7.418,7.418,0,0,0-3.812-1c-.034,0-.05.029-.018.034a17.443,17.443,0,0,1,3.824.978C131.77,496.3,131.775,496.291,131.768,496.286Z" transform="translate(-127.921 -495.28)" fill="#1a2e35"/>
                </g>
              </g>
            </g>
            <g id="Grupo_1225" data-name="Grupo 1225" transform="translate(0 6.524)">
              <path id="Trazado_11416" data-name="Trazado 11416" d="M96.441,500.556s-5.117,7.2-7.543,7.757a7.942,7.942,0,0,1-4.6-.105,2.329,2.329,0,0,1-.837-.571c-2.065-2-5.327-8.455-6.516-11.988-.891-2.656-.415-4.867,1.387-3.862a6.492,6.492,0,0,1,1.594,1.392c3.072,3.471,6.729,6.887,6.938,6.814s2.71-2.969,2.71-2.969Z" transform="translate(-76.504 -491.54)" fill="#ffc800"/>
              <path id="Trazado_11417" data-name="Trazado 11417" d="M96.441,500.556s-5.117,7.2-7.543,7.757a7.942,7.942,0,0,1-4.6-.105,2.329,2.329,0,0,1-.837-.571c-2.065-2-5.327-8.455-6.516-11.988-.891-2.656-.415-4.867,1.387-3.862a6.492,6.492,0,0,1,1.594,1.392c3.072,3.471,6.729,6.887,6.938,6.814s2.71-2.969,2.71-2.969Z" transform="translate(-76.504 -491.54)" fill="#f7a200"/>
              <path id="Trazado_11418" data-name="Trazado 11418" d="M133.623,522.744c-.239-.184-2.569-1.518-3.081-1.8s-2.6-1.439-3.148-1.683a.021.021,0,0,0-.021.036c.5.342,2.595,1.518,3.111,1.813s2.849,1.563,3.124,1.667C133.631,522.789,133.64,522.757,133.623,522.744Z" transform="translate(-114.875 -512.455)" fill="#ffbf10"/>
            </g>
          </g>
          <g id="Grupo_1227" data-name="Grupo 1227" transform="translate(4.737 11.471)">
            <path id="Trazado_11419" data-name="Trazado 11419" d="M49.623,506.946c-.365.407-16.994,3.329-17.085,3.223-.244-.288,1.781-16.228,8.109-22.116a3.856,3.856,0,0,1,4.048-.264,10.439,10.439,0,0,1,2.569,4.5C47.757,494.271,49.853,506.687,49.623,506.946Z" transform="translate(-32.519 -487.339)" fill="#ffbf10"/>
            <path id="Trazado_11420" data-name="Trazado 11420" d="M45.175,519.56l12.306-.768c-.054-.3-.105-.588-.156-.864l-11.805.736C45.4,518.961,45.286,519.259,45.175,519.56Z" transform="translate(-42.067 -510.418)" fill="none" stroke="#f7a200" stroke-linecap="round" stroke-linejoin="round" stroke-width="1.37"/>
            <path id="Trazado_11421" data-name="Trazado 11421" d="M42.616,526.662l13.241-.83c-.054-.293-.1-.583-.154-.864l-12.786.8C42.812,526.065,42.713,526.364,42.616,526.662Z" transform="translate(-40.137 -515.729)" fill="none" stroke="#f7a200" stroke-linecap="round" stroke-linejoin="round" stroke-width="1.37"/>
          </g>
          <g id="Grupo_1237" data-name="Grupo 1237" transform="translate(0 12.174)">
            <g id="Grupo_1229" data-name="Grupo 1229">
              <g id="Grupo_1228" data-name="Grupo 1228">
                <path id="Trazado_11422" data-name="Trazado 11422" d="M24.977,490.6c-5.64,2.863-12.114,9.327-11.734,11.478.423,2.4,8.527-1.652,8.444-2.012-.07-.306,1.632-2.879,4.066-6.566C28.23,489.749,26.372,489.89,24.977,490.6Z" transform="translate(-13.227 -490.202)" fill="#f7a200"/>
              </g>
            </g>
            <g id="Grupo_1231" data-name="Grupo 1231">
              <g id="Grupo_1230" data-name="Grupo 1230">
                <path id="Trazado_11423" data-name="Trazado 11423" d="M24.977,490.6c-5.64,2.863-12.114,9.327-11.734,11.478.423,2.4,8.527-1.652,8.444-2.012-.07-.306,1.632-2.879,4.066-6.566C28.23,489.749,26.372,489.89,24.977,490.6Z" transform="translate(-13.227 -490.202)" fill="none" stroke="#f7a200" stroke-linecap="round" stroke-linejoin="round" stroke-width="1.37"/>
              </g>
            </g>
            <g id="Grupo_1236" data-name="Grupo 1236" transform="translate(0.001 9.381)">
              <g id="Grupo_1234" data-name="Grupo 1234" transform="translate(0 0.022)">
                <path id="Trazado_11424" data-name="Trazado 11424" d="M13.247,530.968c.5,1.673,2.99,2.794,9.007,6.206.833.472,5.745-4.507,4.882-5.057-1.087-.693-5.457-3.145-5.8-3.284C18.451,527.661,12.911,529.834,13.247,530.968Z" transform="translate(-13.233 -528.497)" fill="#ffaba1"/>
                <g id="Grupo_1233" data-name="Grupo 1233" transform="translate(6.618 2.897)">
                  <path id="Trazado_11425" data-name="Trazado 11425" d="M46.28,540.3a20.092,20.092,0,0,1,3.735,2.44,10.275,10.275,0,0,1,2.491,4.241c.518,1.719.583,6.233-.714,6.479-1.174.222-1.007-4.4-1.007-4.4s.607,4.736-.856,4.744-.964-5.342-.964-5.342.514,4.881-1,4.65c-1.141-.174-.963-5.045-.963-5.045s.413,4.2-.768,4.069c-1.305-.142-1.422-4.649-1.422-4.649a6.71,6.71,0,0,1-4.63-3.664C40.037,543.526,46.28,540.3,46.28,540.3Z" transform="translate(-40.184 -540.296)" fill="#ffaba1"/>
                  <g id="Grupo_1232" data-name="Grupo 1232" transform="translate(6.678 6.999)">
                    <path id="Trazado_11426" data-name="Trazado 11426" d="M82.865,569.233c.092.554.188,1.114.23,1.674s.064,1.122.054,1.683a9.6,9.6,0,0,1-.248,2.18,20.672,20.672,0,0,0,.041-3.858c-.042-.559-.055-1.12-.1-1.679C82.843,569.22,82.863,569.22,82.865,569.233Z" transform="translate(-79.047 -569.12)" fill="#1a2e35"/>
                    <path id="Trazado_11427" data-name="Trazado 11427" d="M74.632,569.7c.086.712.2,1.416.252,2.132s.044,1.394.049,2.108c0,.055-.029.037-.032-.018-.034-.714-.12-1.371-.162-2.084s-.057-1.429-.124-2.137C74.614,569.695,74.631,569.694,74.632,569.7Z" transform="translate(-72.839 -569.477)" fill="#1a2e35"/>
                    <path id="Trazado_11428" data-name="Trazado 11428" d="M67.419,568.815a16.037,16.037,0,0,1,.137,3.29c0,.055-.038.027-.039-.029-.025-1.094-.036-1.953-.135-3.255C67.379,568.8,67.415,568.793,67.419,568.815Z" transform="translate(-67.381 -568.802)" fill="#1a2e35"/>
                  </g>
                </g>
              </g>
              <g id="Grupo_1235" data-name="Grupo 1235" transform="translate(0.013 0.01)">
                <path id="Trazado_11429" data-name="Trazado 11429" d="M27.277,531.5s-6.929,5.277-7,5.25-6.879-4.023-6.988-5.818,5.526-3.139,8.085-2.148S27.277,531.5,27.277,531.5Z" transform="translate(-13.286 -528.448)" fill="#f7a200"/>
                <path id="Trazado_11430" data-name="Trazado 11430" d="M27.277,531.5s-6.929,5.277-7,5.25-6.879-4.023-6.988-5.818,5.526-3.139,8.085-2.148S27.277,531.5,27.277,531.5Z" transform="translate(-13.286 -528.448)" fill="none" stroke="#f7a200" stroke-linecap="round" stroke-linejoin="round" stroke-width="1.37"/>
                <path id="Trazado_11431" data-name="Trazado 11431" d="M42.974,537.757c-.271.163-2.458,1.925-2.925,2.318s-2.392,1.982-2.839,2.427a.022.022,0,0,0,.027.035c.523-.353,2.468-1.95,2.952-2.341S42.8,538.014,43,537.786C43.022,537.767,42.993,537.746,42.974,537.757Z" transform="translate(-31.33 -535.469)" fill="#ffbf10"/>
              </g>
              <path id="Trazado_11432" data-name="Trazado 11432" d="M33.643,528.485a6.378,6.378,0,0,1,3.558.435c.015.007.008.026-.008.021a10.909,10.909,0,0,0-3.545-.435C33.632,528.508,33.628,528.488,33.643,528.485Z" transform="translate(-28.624 -528.406)" fill="#ffbf10"/>
            </g>
          </g>
          <g id="Grupo_1250" data-name="Grupo 1250" transform="translate(13.031)">
            <path id="Trazado_11433" data-name="Trazado 11433" d="M72.749,487.343c.706.63.965,2.718-.39,3.128s-3.23-1.794-3.45-2.993S71.185,485.949,72.749,487.343Z" transform="translate(-68.257 -475.182)" fill="#2b454e"/>
            <g id="Grupo_1249" data-name="Grupo 1249">
              <g id="Grupo_1239" data-name="Grupo 1239" transform="translate(0.861 8.244)">
                <g id="Grupo_1238" data-name="Grupo 1238">
                  <path id="Trazado_11434" data-name="Trazado 11434" d="M73.042,480.7c-.968.212-2.6-1.288-3.234-2.491-.043-.083.352-3.349.363-4,0-.134,4.1,1.067,4.1,1.067a10.436,10.436,0,0,0-.44,2.509C73.83,477.881,73.977,480.5,73.042,480.7Z" transform="translate(-69.805 -474.198)" fill="#ffaba1"/>
                </g>
                <path id="Trazado_11435" data-name="Trazado 11435" d="M71.82,474.236c.191,1.06.9,3.818,3.136,3.909a2.627,2.627,0,0,0,.4-.017c0-.179-.009-.3-.009-.316a10.437,10.437,0,0,1,.438-2.507s-.006,0-.011,0a.616.616,0,0,0-.068-.02.018.018,0,0,0-.011,0c-.031-.012-.068-.02-.114-.034-.014-.006-.028-.009-.045-.014l-.091-.026-.114-.034-.191-.054a.488.488,0,0,0-.071-.02l-.148-.043c-.179-.051-.372-.108-.577-.165-.074-.02-.148-.043-.222-.063-.094-.025-.188-.051-.281-.08l-.281-.077-.037-.009c-.162-.045-.324-.088-.478-.131l-.159-.043-.3-.08-.2-.051-.4-.094-.088-.017C71.865,474.245,71.843,474.239,71.82,474.236Z" transform="translate(-71.325 -474.227)" fill="#1a2e35"/>
              </g>
              <g id="Grupo_1248" data-name="Grupo 1248">
                <g id="Grupo_1240" data-name="Grupo 1240" transform="translate(0.95 1.309)">
                  <path id="Trazado_11436" data-name="Trazado 11436" d="M70.543,447.851c-.64,1.383-.45,5.659.45,6.73,1.305,1.553,3.728,2.017,5.122.385,1.35-1.582,1-7.15-.028-8.153A3.642,3.642,0,0,0,70.543,447.851Z" transform="translate(-70.166 -445.952)" fill="#ffaba1"/>
                </g>
                <g id="Grupo_1246" data-name="Grupo 1246" transform="translate(4.226 4.93)">
                  <g id="Grupo_1241" data-name="Grupo 1241" transform="translate(0.279 1.082)">
                    <path id="Trazado_11437" data-name="Trazado 11437" d="M86.3,466.283c0-.011-.022.015-.021.026.021.288,0,.621-.262.727-.008,0-.006.018,0,.016C86.332,466.995,86.361,466.552,86.3,466.283Z" transform="translate(-85.673 -465.992)" fill="#1a2e35"/>
                    <path id="Trazado_11438" data-name="Trazado 11438" d="M85,465.106c-.465-.017-.465.914-.034.929S85.388,465.12,85,465.106Z" transform="translate(-84.644 -465.106)" fill="#1a2e35"/>
                  </g>
                  <g id="Grupo_1242" data-name="Grupo 1242" transform="translate(2.477 1.114)">
                    <path id="Trazado_11439" data-name="Trazado 11439" d="M93.613,466.457c0-.011.023.014.022.026-.009.288.029.62.29.715.008,0,.007.017,0,.016C93.6,467.17,93.558,466.729,93.613,466.457Z" transform="translate(-93.593 -466.155)" fill="#1a2e35"/>
                    <path id="Trazado_11440" data-name="Trazado 11440" d="M93.892,465.237c.464-.035.5.895.071.927S93.5,465.266,93.892,465.237Z" transform="translate(-93.614 -465.236)" fill="#1a2e35"/>
                  </g>
                  <path id="Trazado_11441" data-name="Trazado 11441" d="M83.772,461.356a3.679,3.679,0,0,0,.361-.127.619.619,0,0,0,.343-.2.2.2,0,0,0-.032-.238.489.489,0,0,0-.493-.05.717.717,0,0,0-.413.31A.21.21,0,0,0,83.772,461.356Z" transform="translate(-83.507 -460.699)" fill="#1a2e35"/>
                  <path id="Trazado_11442" data-name="Trazado 11442" d="M93.839,462.692a3.6,3.6,0,0,1-.37-.1.62.62,0,0,1-.359-.17.2.2,0,0,1,.011-.24.489.489,0,0,1,.486-.092.717.717,0,0,1,.439.274A.21.21,0,0,1,93.839,462.692Z" transform="translate(-90.725 -461.734)" fill="#1a2e35"/>
                  <path id="Trazado_11443" data-name="Trazado 11443" d="M85.7,477.158c.069.068.138.16.243.169a.761.761,0,0,0,.31-.073.01.01,0,0,1,.013.015.389.389,0,0,1-.366.156.307.307,0,0,1-.227-.255C85.665,477.155,85.687,477.149,85.7,477.158Z" transform="translate(-85.138 -473.114)" fill="#1a2e35"/>
                  <g id="Grupo_1244" data-name="Grupo 1244" transform="translate(0.856 0.054)">
                    <g id="Grupo_1243" data-name="Grupo 1243">
                      <path id="Trazado_11444" data-name="Trazado 11444" d="M87,464.046a.983.983,0,0,0,.656.437,1.243,1.243,0,0,0,.354.016.35.35,0,0,0,.068-.008c.021,0,.04-.005.063-.01a.072.072,0,0,0,.058-.065v0a.152.152,0,0,0,0-.03v-.027c.006-.222-.016-.56-.016-.56.081.041.5.227.489.11a14.765,14.765,0,0,0-.382-2.97.027.027,0,0,0-.053.007c.019.925.2,1.84.234,2.769a1.719,1.719,0,0,0-.464-.14c-.031.009.054.652.043.751a.04.04,0,0,1,0,.01,1.364,1.364,0,0,1-1.017-.315C87.005,464,86.983,464.023,87,464.046Z" transform="translate(-86.994 -460.917)" fill="#1a2e35"/>
                    </g>
                  </g>
                  <g id="Grupo_1245" data-name="Grupo 1245" transform="translate(0.741 3.174)">
                    <path id="Trazado_11445" data-name="Trazado 11445" d="M87.525,473.974a1.165,1.165,0,0,1-.467.362.525.525,0,0,1-.319.02c-.231-.061-.236-.272-.194-.452a1.248,1.248,0,0,1,.1-.277A1.51,1.51,0,0,0,87.525,473.974Z" transform="translate(-86.525 -473.626)" fill="#1a2e35"/>
                    <path id="Trazado_11446" data-name="Trazado 11446" d="M87.058,475.186a.523.523,0,0,1-.319.02c-.231-.06-.236-.272-.194-.452A.541.541,0,0,1,87.058,475.186Z" transform="translate(-86.525 -474.477)" fill="#ff99bc"/>
                  </g>
                </g>
                <path id="Trazado_11447" data-name="Trazado 11447" d="M74.45,444.524c-1.508.945-3.454-.657-3.454-.657a1.6,1.6,0,0,1-1.66.942s-.39,2.469-1.044,2.437c-1-.047-1.167-3.442-.825-4.094a1.781,1.781,0,0,1,1.2-.787,1.629,1.629,0,0,1,.719-.958c.7-.493,3.026.3,3.026.3a2.186,2.186,0,0,1,.635-.787.617.617,0,0,1,.885.118,1.473,1.473,0,0,0-.264.6c-.147.721.447.745.469.086a1.026,1.026,0,0,0-.2-.688c.311-.418.8-.539,1.076-.3C75.512,441.186,75.7,443.739,74.45,444.524Z" transform="translate(-67.058 -440.622)" fill="#0052ae"/>
                <g id="Grupo_1247" data-name="Grupo 1247" transform="translate(0 5.5)">
                  <path id="Trazado_11448" data-name="Trazado 11448" d="M68.05,464.251s-.788-1.463-1.442-1.2-.172,2.309.518,2.661a.739.739,0,0,0,1.029-.279Z" transform="translate(-66.298 -463.021)" fill="#ffaba1"/>
                  <path id="Trazado_11449" data-name="Trazado 11449" d="M68.147,465.523c-.011,0-.015.014-.006.019a1.865,1.865,0,0,1,.823,1.271.408.408,0,0,0-.593-.181c-.014.008,0,.03.011.029a.455.455,0,0,1,.478.215,2.181,2.181,0,0,1,.191.429c.018.048.1.033.092-.021l0-.012A1.64,1.64,0,0,0,68.147,465.523Z" transform="translate(-67.684 -464.909)" fill="#1a2e35"/>
                </g>
              </g>
            </g>
          </g>
        </g>
      </g>
    </g>
    <g id="Grupo_6850" data-name="Grupo 6850" transform="translate(-21660.666 -20045.84)">
      <g id="Grupo_1163" data-name="Grupo 1163" transform="translate(13.463 0)">
        <g id="Grupo_1145" data-name="Grupo 1145" transform="translate(0.9 15.448)">
          <rect id="Rectángulo_1895" data-name="Rectángulo 1895" width="64.028" height="75.073" fill="#34538a"/>
          <rect id="Rectángulo_1896" data-name="Rectángulo 1896" width="57.332" height="72.185" transform="translate(3.348 2.887)" fill="#5393d0"/>
        </g>
        <g id="Grupo_1153" data-name="Grupo 1153" transform="translate(39.82 26.564)">
          <g id="Grupo_1146" data-name="Grupo 1146" transform="translate(0 8.361)">
            <rect id="Rectángulo_1897" data-name="Rectángulo 1897" width="6.294" height="5.725" transform="translate(2.432)" fill="#5ab6fb"/>
            <rect id="Rectángulo_1898" data-name="Rectángulo 1898" width="4.574" height="4.253" transform="translate(8.726 1.471)" fill="#5ab6fb"/>
            <rect id="Rectángulo_1899" data-name="Rectángulo 1899" width="4.089" height="5.478" transform="translate(17.671 0.247)" fill="#5ab6fb"/>
            <rect id="Rectángulo_1900" data-name="Rectángulo 1900" width="21.76" height="1.025" transform="translate(0 5.725)" fill="#9cd5ff"/>
          </g>
          <g id="Grupo_1147" data-name="Grupo 1147" transform="translate(0 26.785)">
            <rect id="Rectángulo_1901" data-name="Rectángulo 1901" width="6.294" height="5.725" transform="translate(2.432)" fill="#5ab6fb"/>
            <rect id="Rectángulo_1902" data-name="Rectángulo 1902" width="4.574" height="4.253" transform="translate(8.726 1.471)" fill="#5ab6fb"/>
            <rect id="Rectángulo_1903" data-name="Rectángulo 1903" width="4.089" height="5.478" transform="translate(17.671 0.247)" fill="#5ab6fb"/>
            <rect id="Rectángulo_1904" data-name="Rectángulo 1904" width="21.76" height="1.025" transform="translate(0 5.725)" fill="#9cd5ff"/>
          </g>
          <g id="Grupo_1148" data-name="Grupo 1148" transform="translate(0 45.21)">
            <rect id="Rectángulo_1905" data-name="Rectángulo 1905" width="6.294" height="5.725" transform="translate(2.432)" fill="#5ab6fb"/>
            <rect id="Rectángulo_1906" data-name="Rectángulo 1906" width="4.574" height="4.253" transform="translate(8.726 1.471)" fill="#5ab6fb"/>
            <rect id="Rectángulo_1907" data-name="Rectángulo 1907" width="4.089" height="5.478" transform="translate(17.671 0.247)" fill="#5ab6fb"/>
            <rect id="Rectángulo_1908" data-name="Rectángulo 1908" width="21.76" height="1.025" transform="translate(0 5.725)" fill="#9cd5ff"/>
          </g>
          <g id="Grupo_1149" data-name="Grupo 1149" transform="translate(0 18.166)">
            <rect id="Rectángulo_1909" data-name="Rectángulo 1909" width="3.126" height="2.523" transform="translate(2.613 2.691)" fill="#5ab6fb"/>
            <rect id="Rectángulo_1910" data-name="Rectángulo 1910" width="4.446" height="4.637" transform="translate(6.939 0.577)" fill="#5ab6fb"/>
            <rect id="Rectángulo_1911" data-name="Rectángulo 1911" width="2.967" height="3.578" transform="translate(13.3 1.636)" fill="#5ab6fb"/>
            <rect id="Rectángulo_1912" data-name="Rectángulo 1912" width="4.089" height="5.214" transform="translate(17.671)" fill="#5ab6fb"/>
            <rect id="Rectángulo_1913" data-name="Rectángulo 1913" width="21.76" height="1.025" transform="translate(0 5.214)" fill="#9cd5ff"/>
          </g>
          <g id="Grupo_1150" data-name="Grupo 1150" transform="translate(0 35.761)">
            <rect id="Rectángulo_1914" data-name="Rectángulo 1914" width="3.126" height="2.523" transform="translate(2.613 2.691)" fill="#5ab6fb"/>
            <rect id="Rectángulo_1915" data-name="Rectángulo 1915" width="4.446" height="4.637" transform="translate(6.939 0.577)" fill="#5ab6fb"/>
            <rect id="Rectángulo_1916" data-name="Rectángulo 1916" width="2.967" height="3.578" transform="translate(13.3 1.636)" fill="#5ab6fb"/>
            <rect id="Rectángulo_1917" data-name="Rectángulo 1917" width="4.089" height="5.214" transform="translate(17.671)" fill="#5ab6fb"/>
            <rect id="Rectángulo_1918" data-name="Rectángulo 1918" width="21.76" height="1.025" transform="translate(0 5.214)" fill="#9cd5ff"/>
          </g>
          <g id="Grupo_1151" data-name="Grupo 1151" transform="translate(0 54.852)">
            <rect id="Rectángulo_1919" data-name="Rectángulo 1919" width="3.126" height="2.523" transform="translate(2.613 2.691)" fill="#5ab6fb"/>
            <rect id="Rectángulo_1920" data-name="Rectángulo 1920" width="4.446" height="4.637" transform="translate(6.939 0.577)" fill="#5ab6fb"/>
            <rect id="Rectángulo_1921" data-name="Rectángulo 1921" width="2.967" height="3.578" transform="translate(13.3 1.636)" fill="#5ab6fb"/>
            <rect id="Rectángulo_1922" data-name="Rectángulo 1922" width="4.089" height="5.214" transform="translate(17.671)" fill="#5ab6fb"/>
            <rect id="Rectángulo_1923" data-name="Rectángulo 1923" width="21.76" height="1.025" transform="translate(0 5.214)" fill="#9cd5ff"/>
          </g>
          <g id="Grupo_1152" data-name="Grupo 1152">
            <rect id="Rectángulo_1924" data-name="Rectángulo 1924" width="3.126" height="2.523" transform="translate(2.613 2.691)" fill="#5ab6fb"/>
            <rect id="Rectángulo_1925" data-name="Rectángulo 1925" width="4.446" height="4.637" transform="translate(6.939 0.577)" fill="#5ab6fb"/>
            <rect id="Rectángulo_1926" data-name="Rectángulo 1926" width="2.967" height="3.578" transform="translate(13.3 1.636)" fill="#5ab6fb"/>
            <rect id="Rectángulo_1927" data-name="Rectángulo 1927" width="4.089" height="5.214" transform="translate(17.671)" fill="#5ab6fb"/>
            <rect id="Rectángulo_1928" data-name="Rectángulo 1928" width="21.76" height="1.025" transform="translate(0 5.214)" fill="#9cd5ff"/>
          </g>
        </g>
        <g id="Grupo_1161" data-name="Grupo 1161" transform="translate(4.173 26.564)">
          <g id="Grupo_1154" data-name="Grupo 1154" transform="translate(0 8.361)">
            <rect id="Rectángulo_1929" data-name="Rectángulo 1929" width="6.294" height="5.725" transform="translate(13.034)" fill="#5ab6fb"/>
            <rect id="Rectángulo_1930" data-name="Rectángulo 1930" width="4.574" height="4.253" transform="translate(8.46 1.471)" fill="#5ab6fb"/>
            <rect id="Rectángulo_1931" data-name="Rectángulo 1931" width="4.089" height="5.478" transform="translate(0 0.247)" fill="#5ab6fb"/>
            <rect id="Rectángulo_1932" data-name="Rectángulo 1932" width="21.76" height="1.025" transform="translate(0 5.725)" fill="#9cd5ff"/>
          </g>
          <g id="Grupo_1155" data-name="Grupo 1155" transform="translate(0 26.785)">
            <rect id="Rectángulo_1933" data-name="Rectángulo 1933" width="6.294" height="5.725" transform="translate(13.034)" fill="#5ab6fb"/>
            <rect id="Rectángulo_1934" data-name="Rectángulo 1934" width="4.574" height="4.253" transform="translate(8.46 1.471)" fill="#5ab6fb"/>
            <rect id="Rectángulo_1935" data-name="Rectángulo 1935" width="4.089" height="5.478" transform="translate(0 0.247)" fill="#5ab6fb"/>
            <rect id="Rectángulo_1936" data-name="Rectángulo 1936" width="21.76" height="1.025" transform="translate(0 5.725)" fill="#9cd5ff"/>
          </g>
          <g id="Grupo_1156" data-name="Grupo 1156" transform="translate(0 45.21)">
            <rect id="Rectángulo_1937" data-name="Rectángulo 1937" width="6.294" height="5.725" transform="translate(13.034)" fill="#5ab6fb"/>
            <rect id="Rectángulo_1938" data-name="Rectángulo 1938" width="4.574" height="4.253" transform="translate(8.46 1.471)" fill="#5ab6fb"/>
            <rect id="Rectángulo_1939" data-name="Rectángulo 1939" width="4.089" height="5.478" transform="translate(0 0.247)" fill="#5ab6fb"/>
            <rect id="Rectángulo_1940" data-name="Rectángulo 1940" width="21.76" height="1.025" transform="translate(0 5.725)" fill="#9cd5ff"/>
          </g>
          <g id="Grupo_1157" data-name="Grupo 1157" transform="translate(0 18.166)">
            <rect id="Rectángulo_1941" data-name="Rectángulo 1941" width="3.126" height="2.523" transform="translate(16.021 2.691)" fill="#5ab6fb"/>
            <rect id="Rectángulo_1942" data-name="Rectángulo 1942" width="4.446" height="4.637" transform="translate(10.375 0.577)" fill="#5ab6fb"/>
            <rect id="Rectángulo_1943" data-name="Rectángulo 1943" width="2.967" height="3.578" transform="translate(5.494 1.636)" fill="#5ab6fb"/>
            <rect id="Rectángulo_1944" data-name="Rectángulo 1944" width="4.089" height="5.214" fill="#5ab6fb"/>
            <rect id="Rectángulo_1945" data-name="Rectángulo 1945" width="21.76" height="1.025" transform="translate(0 5.214)" fill="#9cd5ff"/>
          </g>
          <g id="Grupo_1158" data-name="Grupo 1158" transform="translate(0 35.761)">
            <rect id="Rectángulo_1946" data-name="Rectángulo 1946" width="3.126" height="2.523" transform="translate(16.021 2.691)" fill="#5ab6fb"/>
            <rect id="Rectángulo_1947" data-name="Rectángulo 1947" width="4.446" height="4.637" transform="translate(10.375 0.577)" fill="#5ab6fb"/>
            <rect id="Rectángulo_1948" data-name="Rectángulo 1948" width="2.967" height="3.578" transform="translate(5.494 1.636)" fill="#5ab6fb"/>
            <rect id="Rectángulo_1949" data-name="Rectángulo 1949" width="4.089" height="5.214" fill="#5ab6fb"/>
            <rect id="Rectángulo_1950" data-name="Rectángulo 1950" width="21.76" height="1.025" transform="translate(0 5.214)" fill="#9cd5ff"/>
          </g>
          <g id="Grupo_1159" data-name="Grupo 1159" transform="translate(0 54.852)">
            <rect id="Rectángulo_1951" data-name="Rectángulo 1951" width="3.126" height="2.523" transform="translate(16.021 2.691)" fill="#5ab6fb"/>
            <rect id="Rectángulo_1952" data-name="Rectángulo 1952" width="4.446" height="4.637" transform="translate(10.375 0.577)" fill="#5ab6fb"/>
            <rect id="Rectángulo_1953" data-name="Rectángulo 1953" width="2.967" height="3.578" transform="translate(5.494 1.636)" fill="#5ab6fb"/>
            <rect id="Rectángulo_1954" data-name="Rectángulo 1954" width="4.089" height="5.214" fill="#5ab6fb"/>
            <rect id="Rectángulo_1955" data-name="Rectángulo 1955" width="21.76" height="1.025" transform="translate(0 5.214)" fill="#9cd5ff"/>
          </g>
          <g id="Grupo_1160" data-name="Grupo 1160">
            <rect id="Rectángulo_1956" data-name="Rectángulo 1956" width="3.126" height="2.523" transform="translate(16.021 2.691)" fill="#5ab6fb"/>
            <rect id="Rectángulo_1957" data-name="Rectángulo 1957" width="4.446" height="4.637" transform="translate(10.375 0.577)" fill="#5ab6fb"/>
            <rect id="Rectángulo_1958" data-name="Rectángulo 1958" width="2.967" height="3.578" transform="translate(5.494 1.636)" fill="#5ab6fb"/>
            <rect id="Rectángulo_1959" data-name="Rectángulo 1959" width="4.089" height="5.214" fill="#5ab6fb"/>
            <rect id="Rectángulo_1960" data-name="Rectángulo 1960" width="21.76" height="1.025" transform="translate(0 5.214)" fill="#9cd5ff"/>
          </g>
        </g>
        <path id="Trazado_11290" data-name="Trazado 11290" d="M803.944,345.947a2.546,2.546,0,1,1,4.872,1.37,4.168,4.168,0,0,1,7.956,0,4.168,4.168,0,0,1,7.956,0,4.168,4.168,0,0,1,7.956,0,4.168,4.168,0,0,1,7.956,0,4.168,4.168,0,0,1,7.957,0,2.546,2.546,0,1,1,4.872-1.37V334.006H803.944Z" transform="translate(-795.793 -318.558)" fill="#009fe2" opacity="0.3" style="mix-blend-mode: multiply;isolation: isolate"/>
        <g id="Grupo_1162" data-name="Grupo 1162" transform="translate(0.9)">
          <path id="Trazado_11291" data-name="Trazado 11291" d="M831.371,266.186h-54.5l-4.764,14.581V285a4.168,4.168,0,0,0,8.145,1.243,4.168,4.168,0,0,0,7.956,0,10.374,10.374,0,0,1,11.934,2.924,4.168,4.168,0,0,1,7.956,0,4.168,4.168,0,0,1,7.956,0,4.168,4.168,0,0,1,7.956,0,4.168,4.168,0,0,1,7.956,0A4.167,4.167,0,0,0,836.135,285v-4.231Z" transform="translate(-772.107 -266.186)" fill="#e8595b"/>
          <path id="Trazado_11292" data-name="Trazado 11292" d="M818.188,266.186h-6.867l-3.453,14.581v5.474a4.168,4.168,0,0,0,7.956,0v-5.474Z" transform="translate(-799.723 -266.186)" fill="#e6f2ff"/>
          <path id="Trazado_11293" data-name="Trazado 11293" d="M878.881,266.186l-1.151,14.581v5.474a4.168,4.168,0,0,0,7.956,0V266.186Z" transform="translate(-853.672 -266.186)" fill="#e6f2ff"/>
          <path id="Trazado_11294" data-name="Trazado 11294" d="M943.69,280.767v5.474a4.168,4.168,0,0,0,7.956,0v-5.474l-2.3-14.581h-6.805Z" transform="translate(-903.719 -266.186)" fill="#e6f2ff"/>
          <path id="Trazado_11295" data-name="Trazado 11295" d="M1009.725,289.165a4.167,4.167,0,0,0,4.167-4.167v-4.231l-4.764-14.581h-6.834l3.453,14.581v5.474A4.169,4.169,0,0,0,1009.725,289.165Z" transform="translate(-949.864 -266.186)" fill="#e6f2ff"/>
          <path id="Trazado_11296" data-name="Trazado 11296" d="M776.274,338.6a4.169,4.169,0,0,0,3.978-2.924,4.168,4.168,0,0,0,7.956,0,10.374,10.374,0,0,1,11.934,2.924,4.168,4.168,0,0,1,7.956,0,4.168,4.168,0,0,1,7.956,0,4.168,4.168,0,0,1,7.956,0,4.168,4.168,0,0,1,7.956,0,4.167,4.167,0,0,0,4.167-4.167V330.2H772.107v4.231A4.167,4.167,0,0,0,776.274,338.6Z" transform="translate(-772.107 -315.622)" fill="#009fe2" opacity="0.3" style="mix-blend-mode: multiply;isolation: isolate"/>
        </g>
        <rect id="Rectángulo_1961" data-name="Rectángulo 1961" width="56.208" height="4.475" transform="translate(4.81 90.52)" fill="#34538a"/>
        <rect id="Rectángulo_1962" data-name="Rectángulo 1962" width="65.828" height="4.476" transform="translate(0 94.721)" fill="#34538a"/>
      </g>
      <g id="Grupo_1178" data-name="Grupo 1178" transform="translate(36.016 33.199)">
        <path id="Trazado_11297" data-name="Trazado 11297" d="M879.9,472.868l-6.515,1.583s-8.813,10.758-5.474,13.643,23.21,1.619,23.21,1.619,5.009-.175,3.339-4.463-6.232-11.3-6.232-11.3S886.882,472.623,879.9,472.868Z" transform="translate(-867.158 -458.966)" fill="#ff3e71"/>
        <g id="Grupo_1168" data-name="Grupo 1168" transform="translate(4.881 32.721)">
          <g id="Grupo_1164" data-name="Grupo 1164" transform="translate(13.657 39.373)">
            <path id="Trazado_11298" data-name="Trazado 11298" d="M949.07,728.638s-.835,3.14-.4,3.682,5.742.614,7.041.217-.217-1.842-1.841-1.823c0,0-1.689-.921-2.057-1.222s-.217-1-.65-1.033A19.62,19.62,0,0,0,949.07,728.638Z" transform="translate(-948.544 -728.453)" fill="#ff3e71"/>
            <path id="Trazado_11299" data-name="Trazado 11299" d="M958.775,734.844a1.359,1.359,0,0,1,1.241-.921" transform="translate(-956.445 -732.677)" fill="none" stroke="#e6f2ff" stroke-linecap="round" stroke-linejoin="round" stroke-width="1.207"/>
            <path id="Trazado_11300" data-name="Trazado 11300" d="M964.222,737.33s.286-.8,1-.8" transform="translate(-960.651 -734.691)" fill="none" stroke="#e6f2ff" stroke-linecap="round" stroke-linejoin="round" stroke-width="1.207"/>
            <path id="Trazado_11301" data-name="Trazado 11301" d="M953.051,736.411a.466.466,0,1,1-.466-.466A.466.466,0,0,1,953.051,736.411Z" transform="translate(-951.305 -734.239)" fill="#e6f2ff"/>
            <path id="Trazado_11302" data-name="Trazado 11302" d="M948.548,739.435a.975.975,0,0,0,.125.548c.436.541,5.741.614,7.041.216,1.282-.392-.177-1.8-1.776-1.822a1.465,1.465,0,0,0-.317,1.389A13.621,13.621,0,0,1,948.548,739.435Z" transform="translate(-948.547 -736.117)" fill="#e6f2ff"/>
          </g>
          <g id="Grupo_1165" data-name="Grupo 1165" transform="translate(0 40.183)">
            <path id="Trazado_11303" data-name="Trazado 11303" d="M890.849,732.01s-.854,1.879-1.067,2.22c0,0-1.11.043-1.2,1.751,0,0,1.708.9,4.783,0l-.213-3.971Z" transform="translate(-888.586 -732.01)" fill="#ff3e71"/>
            <path id="Trazado_11304" data-name="Trazado 11304" d="M897.765,738.864a2.509,2.509,0,0,0-2.546-.354" transform="translate(-893.708 -736.9)" fill="none" stroke="#e6f2ff" stroke-linecap="round" stroke-linejoin="round" stroke-width="1.207"/>
            <path id="Trazado_11305" data-name="Trazado 11305" d="M899.413,734.46a2.756,2.756,0,0,0-2.06-.237" transform="translate(-895.356 -733.643)" fill="none" stroke="#e6f2ff" stroke-linecap="round" stroke-linejoin="round" stroke-width="1.207"/>
            <path id="Trazado_11306" data-name="Trazado 11306" d="M888.586,743.505s1.708.9,4.783,0l-.053-.979c-.113.237-.253.433-.417.475,0,0,0-1.29-3.117-1.247C889.782,741.754,888.671,741.8,888.586,743.505Z" transform="translate(-888.586 -739.534)" fill="#e6f2ff"/>
          </g>
          <g id="Grupo_1167" data-name="Grupo 1167" transform="translate(1.349)">
            <path id="Trazado_11307" data-name="Trazado 11307" d="M897.6,555.591l10.034.064s1.98,21.926,2.124,24.453,1.052,14.1.763,15.041-3.537.794-3.754.505-2.063-12.514-2.207-13.886-1.4-10.44-1.4-10.44-1.444,7.724-1.8,9.529-2.6,14.87-2.6,14.87c-1.011,1.011-3.9.505-4.187,0s.615-15.23.591-16.964C895.1,574.792,897.6,555.591,897.6,555.591Z" transform="translate(-894.507 -555.591)" fill="#34538a"/>
            <g id="Grupo_1166" data-name="Grupo 1166" transform="translate(0.468 0.064)">
              <path id="Trazado_11308" data-name="Trazado 11308" d="M900.119,555.872s-.593,3.911-1.011,8.129c-.263,2.658-1.194,14.04-1.339,15.484s-1.21,16.734-1.21,16.734" transform="translate(-896.56 -555.872)" fill="none" stroke="#82d3f6" stroke-linecap="round" stroke-linejoin="round" stroke-width="1.207" stroke-dasharray="4.828"/>
              <path id="Trazado_11309" data-name="Trazado 11309" d="M933.836,609.16s1.68,11.666,1.891,13.759,1.585,14.192,1.585,14.192" transform="translate(-925.345 -597.022)" fill="none" stroke="#82d3f6" stroke-linecap="round" stroke-linejoin="round" stroke-width="1.207" stroke-dasharray="4.828"/>
              <path id="Trazado_11310" data-name="Trazado 11310" d="M911.229,558.444s.505,3.393,0,3.826a4.924,4.924,0,0,1-1.965.578" transform="translate(-906.37 -557.858)" fill="none" stroke="#82d3f6" stroke-linecap="round" stroke-linejoin="round" stroke-width="1.207"/>
              <path id="Trazado_11311" data-name="Trazado 11311" d="M947.366,558.444l.395,3.393,1.154,1.011" transform="translate(-935.793 -557.858)" fill="none" stroke="#82d3f6" stroke-linecap="round" stroke-linejoin="round" stroke-width="1.207"/>
              <path id="Trazado_11312" data-name="Trazado 11312" d="M932.47,573.531s.722-9.023.65-15.087" transform="translate(-924.291 -557.858)" fill="none" stroke="#82d3f6" stroke-linecap="round" stroke-linejoin="round" stroke-width="1.207"/>
              <path id="Trazado_11313" data-name="Trazado 11313" d="M936.22,555.872a20.717,20.717,0,0,1,0,4.267,1.273,1.273,0,0,1-1.137.722" transform="translate(-926.308 -555.872)" fill="none" stroke="#82d3f6" stroke-linecap="round" stroke-linejoin="round" stroke-width="1.207"/>
            </g>
          </g>
        </g>
        <g id="Grupo_1174" data-name="Grupo 1174" transform="translate(9.513 0)">
          <g id="Grupo_1169" data-name="Grupo 1169" transform="translate(1.672 9.515)">
            <path id="Trazado_11314" data-name="Trazado 11314" d="M916.682,453.707a10,10,0,0,1-.42,4.67,2.944,2.944,0,0,0,3.991,0,9.01,9.01,0,0,1-.144-3.639Z" transform="translate(-916.262 -453.707)" fill="#ffaba1"/>
            <path id="Trazado_11315" data-name="Trazado 11315" d="M918.106,453.707a11.564,11.564,0,0,1,.1,2.073c.527.757,1.326,1.643,2.184,1.643a1.764,1.764,0,0,0,1.073-.4,11.936,11.936,0,0,1,.074-2.283Z" transform="translate(-917.686 -453.707)" fill="#db7e7e"/>
          </g>
          <g id="Grupo_1173" data-name="Grupo 1173">
            <path id="Trazado_11316" data-name="Trazado 11316" d="M950.854,429.844a3.645,3.645,0,0,0,2.019.29c1.083-.18.086,1.871-1.707,2.3A3.126,3.126,0,0,1,950.854,429.844Z" transform="translate(-941.193 -425.765)" fill="#00428b"/>
            <path id="Trazado_11317" data-name="Trazado 11317" d="M920.954,420.541c3.573,1.227,3.068,4.475,2.057,6.713-.855,1.893-2.625,3.862-4.719,3.284s-4-2.676-2.788-6.641C916.407,420.938,918.595,419.731,920.954,420.541Z" transform="translate(-913.714 -418.391)" fill="#ffaba1"/>
            <path id="Trazado_11318" data-name="Trazado 11318" d="M916.215,416.81s1.148.018,2.547-1.715a8.567,8.567,0,0,0,4.665,1.5c2.779.054,3.339-1.756,2.148-2.009,0,0,1.227-2.033.072-2.539s-2.472.9-4.511.4-3.462-.686-3.642.668a1.1,1.1,0,0,0-1.447.217c-.6.758-.152,4.391-.152,4.391Z" transform="translate(-914.183 -411.934)" fill="#0052ae"/>
            <g id="Grupo_1170" data-name="Grupo 1170" transform="translate(0 3.334)">
              <path id="Trazado_11319" data-name="Trazado 11319" d="M910.354,430.583l.6-2.47s-.058-1.671-1.027-1.534C908.734,426.748,908.3,430.436,910.354,430.583Z" transform="translate(-908.923 -426.571)" fill="#ffa7a7"/>
              <path id="Trazado_11320" data-name="Trazado 11320" d="M910.392,426.579c-.392.055-.7.491-.869,1.056a1.812,1.812,0,0,1,1.877.553l.018-.075S911.361,426.442,910.392,426.579Z" transform="translate(-909.387 -426.571)" fill="#db7e7e" opacity="0.5"/>
            </g>
            <g id="Grupo_1171" data-name="Grupo 1171" transform="translate(8.385 7.301)">
              <path id="Trazado_11321" data-name="Trazado 11321" d="M945.735,446.907l1.223-2.228s1.17-1.194,1.793-.439C949.518,445.17,947.351,448.186,945.735,446.907Z" transform="translate(-945.735 -443.989)" fill="#ffa7a7"/>
              <path id="Trazado_11322" data-name="Trazado 11322" d="M952.771,444.24c-.623-.755-1.793.439-1.793.439l-.037.068a1.807,1.807,0,0,1,1.756.864A1.331,1.331,0,0,0,952.771,444.24Z" transform="translate(-949.755 -443.989)" fill="#db7e7e" opacity="0.5"/>
            </g>
            <g id="Grupo_1172" data-name="Grupo 1172" transform="translate(2.108 4.156)">
              <path id="Trazado_11323" data-name="Trazado 11323" d="M934.9,436.113a9.188,9.188,0,0,0-1.3,2s.842.265.866.505-1.155.794-1.155.794" transform="translate(-929.868 -434.762)" fill="none" stroke="#db7e7e" stroke-linecap="round" stroke-linejoin="round" stroke-width="1.207"/>
              <path id="Trazado_11324" data-name="Trazado 11324" d="M928.279,436.608c-.053.218-.226.363-.386.323a.365.365,0,0,1-.193-.465c.053-.218.226-.363.386-.324A.365.365,0,0,1,928.279,436.608Z" transform="translate(-925.52 -434.78)" fill="#002a57"/>
              <path id="Trazado_11325" data-name="Trazado 11325" d="M942.08,442.1c-.053.218-.226.363-.386.324a.365.365,0,0,1-.193-.465c.053-.218.226-.363.386-.323A.365.365,0,0,1,942.08,442.1Z" transform="translate(-936.177 -439.022)" fill="#002a57"/>
              <path id="Trazado_11326" data-name="Trazado 11326" d="M928.059,430.667a1.345,1.345,0,0,1,.71-.427.729.729,0,0,1,.473-.028c.079.028.337.181.319.291-.035.2-.612.1-.745.081C928.644,430.55,928.138,430.756,928.059,430.667Z" transform="translate(-925.809 -430.182)" fill="#0052ae"/>
              <path id="Trazado_11327" data-name="Trazado 11327" d="M944.587,435.411a.461.461,0,0,1,.346-.012.589.589,0,0,1,.329.385,1.218,1.218,0,0,1,.1.457c0,.033-.056.366-.078.313a1.784,1.784,0,0,1-.121-.307,1.118,1.118,0,0,0-.193-.282c-.072-.063-.185-.12-.231-.209-.024-.032-.272-.217-.15-.346C944.583,435.416,944.576,435.418,944.587,435.411Z" transform="translate(-938.546 -434.189)" fill="#0052ae"/>
              <path id="Trazado_11328" data-name="Trazado 11328" d="M925.023,449.741a2,2,0,0,0,2.183,1.371" transform="translate(-923.464 -445.286)" fill="none" stroke="#db7e7e" stroke-linecap="round" stroke-linejoin="round" stroke-width="1.207"/>
              <path id="Trazado_11329" data-name="Trazado 11329" d="M920.376,440.256a1.153,1.153,0,1,1-.749-1.3A1.068,1.068,0,0,1,920.376,440.256Z" transform="translate(-918.179 -436.899)" fill="#db7e7e" opacity="0.25"/>
              <path id="Trazado_11330" data-name="Trazado 11330" d="M941.431,448.108a1.153,1.153,0,1,1-.749-1.3A1.068,1.068,0,0,1,941.431,448.108Z" transform="translate(-934.438 -442.962)" fill="#db7e7e" opacity="0.25"/>
            </g>
          </g>
        </g>
        <g id="Grupo_1175" data-name="Grupo 1175" transform="translate(7.008 13.902)">
          <path id="Trazado_11331" data-name="Trazado 11331" d="M900.813,473.478a42.688,42.688,0,0,0,1.885,3.97c.281.241,3.515,0,3.751-.337a29.129,29.129,0,0,0,.573-3.99,1.2,1.2,0,0,1,1.154,0s.46,4.808.639,5.241a21.828,21.828,0,0,0,1.92,2.433c.232.262.363,8.764.393,11.058s2.454,12.256,2.373,12.881-4.34,1.925-8.322,1.925-7.254-1.684-7.254-2.021,2.791-12.127,2.888-13.426-2.28-8.383-2.2-8.822,1.331-3.205,1.476-3.76a24.564,24.564,0,0,0-1.081-4.775C898.889,473.6,900.284,473.07,900.813,473.478Z" transform="translate(-897.926 -472.97)" fill="#ffbf10"/>
          <path id="Trazado_11332" data-name="Trazado 11332" d="M928.012,527.327a7.593,7.593,0,0,1-5.155,3.257,11.616,11.616,0,0,0,4.5,0" transform="translate(-917.178 -514.946)" fill="none" stroke="#f7a200" stroke-linecap="round" stroke-linejoin="round" stroke-width="1.207"/>
        </g>
        <rect id="Rectángulo_1963" data-name="Rectángulo 1963" width="15.412" height="12.141" transform="translate(6.229 21.23)" fill="#e5c28f"/>
        <path id="Trazado_11333" data-name="Trazado 11333" d="M908.948,508.067H895.553l-1.046-2.925h15.412Z" transform="translate(-888.278 -483.912)" fill="#f4d39a"/>
        <path id="Trazado_11334" data-name="Trazado 11334" d="M908.948,545.4H895.553l-1.046,2.925h15.412Z" transform="translate(-888.278 -515.003)" fill="#f4d39a"/>
        <rect id="Rectángulo_1964" data-name="Rectángulo 1964" width="4.969" height="1.873" transform="translate(11.299 26.251)" fill="#fff9e1"/>
        <g id="Grupo_1176" data-name="Grupo 1176" transform="translate(4.523 25.137)">
          <rect id="Rectángulo_1965" data-name="Rectángulo 1965" width="3.717" height="1.278" rx="0.639" transform="translate(0)" fill="#ffaba1" stroke="#db7e7e" stroke-miterlimit="10" stroke-width="0.892"/>
          <rect id="Rectángulo_1966" data-name="Rectángulo 1966" width="3.717" height="1.278" rx="0.639" transform="translate(0 3.61)" fill="#ffaba1" stroke="#db7e7e" stroke-miterlimit="10" stroke-width="0.892"/>
          <rect id="Rectángulo_1967" data-name="Rectángulo 1967" width="4.298" height="1.278" rx="0.639" transform="translate(0 1.191)" fill="#ffaba1" stroke="#db7e7e" stroke-miterlimit="10" stroke-width="0.892"/>
          <rect id="Rectángulo_1968" data-name="Rectángulo 1968" width="3.95" height="1.278" rx="0.639" transform="translate(0 2.469)" fill="#ffaba1" stroke="#db7e7e" stroke-miterlimit="10" stroke-width="0.892"/>
        </g>
        <g id="Grupo_1177" data-name="Grupo 1177" transform="translate(19.229 25.137)">
          <rect id="Rectángulo_1969" data-name="Rectángulo 1969" width="3.717" height="1.278" rx="0.639" transform="translate(4.298 1.278) rotate(-180)" fill="#ffaba1" stroke="#db7e7e" stroke-miterlimit="10" stroke-width="0.892"/>
          <rect id="Rectángulo_1970" data-name="Rectángulo 1970" width="3.717" height="1.278" rx="0.639" transform="translate(4.298 4.888) rotate(180)" fill="#ffaba1" stroke="#db7e7e" stroke-miterlimit="10" stroke-width="0.892"/>
          <rect id="Rectángulo_1971" data-name="Rectángulo 1971" width="4.298" height="1.278" rx="0.639" transform="translate(4.298 2.468) rotate(-180)" fill="#ffaba1" stroke="#db7e7e" stroke-miterlimit="10" stroke-width="0.892"/>
          <rect id="Rectángulo_1972" data-name="Rectángulo 1972" width="3.95" height="1.278" rx="0.639" transform="translate(4.298 3.746) rotate(-180)" fill="#ffaba1" stroke="#db7e7e" stroke-miterlimit="10" stroke-width="0.892"/>
        </g>
      </g>
      <g id="Grupo_1255" data-name="Grupo 1255" transform="translate(0 49.552)">
        <path id="Trazado_11450" data-name="Trazado 11450" d="M1043.28,612.824l-.891,2.6h-1.376l-1.942,29.047h-14.326l1.052-31.646Z" transform="translate(-952.835 -583.421)" fill="#398cdb"/>
        <path id="Trazado_11451" data-name="Trazado 11451" d="M788.954,653.284h-69.4l-1.466-29.047h72.335Z" transform="translate(-716.024 -592.234)" fill="#7ebefb"/>
        <path id="Trazado_11452" data-name="Trazado 11452" d="M915.867,661.525H885.421l.752-23.482,29.923.229Zm-30-.431H915.44l.221-22.4-29.071-.222Z" transform="translate(-845.245 -602.896)" fill="#398cdb"/>
        <path id="Trazado_11453" data-name="Trazado 11453" d="M785.765,612.824H709.033l.254,2.6h76.224Z" transform="translate(-709.033 -583.421)" fill="#5ab6fb"/>
        <path id="Trazado_11454" data-name="Trazado 11454" d="M718.086,624.237h72.335l-.17,3.362-72.08-1.681Z" transform="translate(-716.024 -592.234)" fill="url(#linear-gradient)" style="mix-blend-mode: multiply;isolation: isolate"/>
        <path id="Trazado_11455" data-name="Trazado 11455" d="M786.934,614.313H711.181l.25,1.187h75.253Z" transform="translate(-710.691 -584.571)" fill="#d5e9fb"/>
        <g id="Grupo_1254" data-name="Grupo 1254" transform="translate(20.107 0)">
          <path id="Trazado_11456" data-name="Trazado 11456" d="M817.7,584.157H798.988l1.338-8.455H815Z" transform="translate(-798.606 -554.754)" fill="#476f87"/>
          <path id="Trazado_11457" data-name="Trazado 11457" d="M869.276,575.7h2.265l4.528,8.455h-4.091Z" transform="translate(-852.884 -554.754)" fill="#2a3e51"/>
          <path id="Trazado_11458" data-name="Trazado 11458" d="M824.02,529.638h-1.8l.17,10.492h1.459Z" transform="translate(-816.546 -519.182)" fill="url(#linear-gradient-2)"/>
          <path id="Trazado_11459" data-name="Trazado 11459" d="M810.134,483.734H797.311l1,9.765h11.147Z" transform="translate(-797.311 -483.734)" fill="#476f87"/>
          <path id="Trazado_11460" data-name="Trazado 11460" d="M804.282,496.563l-.737-7.2h10.029l-.5,7.2Z" transform="translate(-802.125 -488.08)" fill="url(#radial-gradient)"/>
          <path id="Trazado_11461" data-name="Trazado 11461" d="M801.7,493.5l.564.691h11.747l.727-9.6-1.216-.855-.675,9.765Z" transform="translate(-800.701 -483.734)" fill="#2a3e51"/>
          <path id="Trazado_11462" data-name="Trazado 11462" d="M803.545,489.362l.737,7.2h.371l-.554-6.683,9.451-.162.025-.356Z" transform="translate(-802.125 -488.08)" fill="#2a3e51"/>
          <path id="Trazado_11463" data-name="Trazado 11463" d="M804.2,601.448l-.273,1.909h-.273l.273-1.909Zm.439,0-.273,1.909h.273l.273-1.909Zm.711,0-.273,1.909h.273l.273-1.909Zm.712,0-.273,1.909h.273l.273-1.909Zm.711,0-.273,1.909h.273l.273-1.909Z" transform="translate(-802.212 -574.636)" fill="#2a3e51"/>
          <path id="Trazado_11464" data-name="Trazado 11464" d="M823.656,531.554l.091,9.728h.482v-9.728Z" transform="translate(-817.655 -520.662)" fill="url(#linear-gradient-3)" style="mix-blend-mode: screen;isolation: isolate"/>
          <path id="Trazado_11465" data-name="Trazado 11465" d="M806.971,492.434l.655,5.782a28.65,28.65,0,0,0,7.544-5.83Z" transform="translate(-804.771 -490.416)" fill="url(#linear-gradient-4)" style="mix-blend-mode: screen;isolation: isolate"/>
          <path id="Trazado_11466" data-name="Trazado 11466" d="M801.8,577.857h13.974v.436l-13.535.509-1.148,6.337h-.546Z" transform="translate(-799.808 -556.419)" fill="url(#linear-gradient-5)" style="mix-blend-mode: screen;isolation: isolate"/>
        </g>
        <path id="Trazado_11467" data-name="Trazado 11467" d="M757.942,661.524H731.366l-1.382-23.482,28.188.229Zm-26.17-.431h25.743l.221-22.4-27.3-.222Z" transform="translate(-725.212 -602.895)" fill="#398cdb"/>
        <path id="Trazado_11468" data-name="Trazado 11468" d="M1045.053,612.824h13.714l-.89,2.6H1044.8Z" transform="translate(-968.321 -583.421)" fill="#34538a"/>
      </g>
    </g>
    <circle id="Elipse_87" data-name="Elipse 87" cx="11.664" cy="11.664" r="11.664" transform="translate(-21722.609 -20017.314)" fill="#fff" stroke="#eee" stroke-width="1"/>
    <circle id="Elipse_88" data-name="Elipse 88" cx="11.664" cy="11.664" r="11.664" transform="translate(-21722.609 -20080.129)" fill="#fff" stroke="#eee" stroke-width="1"/>
    <circle id="Elipse_89" data-name="Elipse 89" cx="11.664" cy="11.664" r="11.664" transform="translate(-21741.977 -20042.643)" fill="#fff" stroke="#eee" stroke-width="1"/>
    <circle id="Elipse_90" data-name="Elipse 90" cx="11.664" cy="11.664" r="11.664" transform="translate(-21742.725 -20111.057)" fill="#fff" stroke="#eee" stroke-width="1"/>
    <circle id="Elipse_91" data-name="Elipse 91" cx="11.664" cy="11.664" r="11.664" transform="translate(-21702.498 -20111.057)" fill="#fff" stroke="#eee" stroke-width="1"/>
    <circle id="Elipse_92" data-name="Elipse 92" cx="11.664" cy="11.664" r="11.664" transform="translate(-21758.859 -20073.238)" fill="#fff" stroke="#eee" stroke-width="1"/>
    <circle id="Elipse_93" data-name="Elipse 93" cx="11.664" cy="11.664" r="11.664" transform="translate(-21806.877 -20083.379)" fill="#fff" stroke="#eee" stroke-width="1"/>
    <circle id="Elipse_94" data-name="Elipse 94" cx="11.664" cy="11.664" r="11.664" transform="translate(-21776.58 -20102.688)" fill="#fff" stroke="#eee" stroke-width="1"/>
    <circle id="Elipse_95" data-name="Elipse 95" cx="11.664" cy="11.664" r="11.664" transform="translate(-21636.662 -20083.379)" fill="#fff" stroke="#eee" stroke-width="1"/>
    <circle id="Elipse_96" data-name="Elipse 96" cx="11.664" cy="11.664" r="11.664" transform="translate(-21666.959 -20102.688)" fill="#fff" stroke="#eee" stroke-width="1"/>
    <circle id="Elipse_97" data-name="Elipse 97" cx="11.664" cy="11.664" r="11.664" transform="translate(-21685.41 -20073.238)" fill="#fff" stroke="#eee" stroke-width="1"/>
    <circle id="Elipse_98" data-name="Elipse 98" cx="11.664" cy="11.664" r="11.664" transform="translate(-21702.883 -20042.643)" fill="#fff" stroke="#eee" stroke-width="1"/>
    <g id="Grupo_1256" data-name="Grupo 1256" transform="translate(-21717.723 -20012.188)">
      <path id="Trazado_11469" data-name="Trazado 11469" d="M523.186,459.363H515.2a2.781,2.781,0,0,1-2.777-2.778.4.4,0,0,1,.4-.4h12.751a.4.4,0,0,1,.4.4,2.781,2.781,0,0,1-2.777,2.778Zm0,0" transform="translate(-512.419 -445.818)" fill="#ee8e42"/>
      <path id="Trazado_11470" data-name="Trazado 11470" d="M519.191,413.954c-3.72,0-6.772,2.314-6.772,5.159a.4.4,0,0,0,.4.4h12.751a.4.4,0,0,0,.4-.4c0-2.844-3.052-5.159-6.772-5.159Zm-2.92,3.058-.794.794a.4.4,0,0,1-.561-.561l.794-.794a.4.4,0,1,1,.561.561Zm2.407,0-.794.794a.4.4,0,0,1-.561-.561l.794-.794a.4.4,0,1,1,.561.561Zm2.381,0-.794.794a.4.4,0,0,1-.561-.561l.794-.794a.4.4,0,1,1,.561.561Zm2.187,0-.794.794a.4.4,0,0,1-.561-.561l.793-.794a.4.4,0,1,1,.561.561Zm0,0" transform="translate(-512.419 -413.954)" fill="#ee8e42"/>
      <path id="Trazado_11471" data-name="Trazado 11471" d="M512.816,443.151a1.873,1.873,0,0,1,.5.064,2.586,2.586,0,0,0-.1.794,1.1,1.1,0,0,0-.4-.063.4.4,0,0,1,0-.794Zm0,0" transform="translate(-512.419 -435.982)" fill="#ee8e42"/>
      <path id="Trazado_11472" data-name="Trazado 11472" d="M564.826,443.548a.393.393,0,0,1-.4.4,1.1,1.1,0,0,0-.4.063,2.745,2.745,0,0,0-.1-.794,1.874,1.874,0,0,1,.5-.064.393.393,0,0,1,.4.4Zm0,0" transform="translate(-551.281 -435.982)" fill="#ee8e42"/>
      <path id="Trazado_11473" data-name="Trazado 11473" d="M516.071,440.776a2.066,2.066,0,0,1,.794.413,1.2,1.2,0,0,0,.826.317,1.179,1.179,0,0,0,.817-.317,2.02,2.02,0,0,1,1.32-.476,1.947,1.947,0,0,1,1.3.476,1.211,1.211,0,0,0,1.635,0,1.948,1.948,0,0,1,1.3-.476,2.019,2.019,0,0,1,1.32.476,1.179,1.179,0,0,0,.817.317,1.2,1.2,0,0,0,.826-.317,2.06,2.06,0,0,1,.794-.413,2.755,2.755,0,0,0-.4-.857H516.473a2.754,2.754,0,0,0-.4.857Zm0,0" transform="translate(-515.174 -433.544)" fill="#ee8e42"/>
      <path id="Trazado_11474" data-name="Trazado 11474" d="M527.108,447.971a2.75,2.75,0,0,0,.5-1.524,1.651,1.651,0,0,0-.421.254,2.006,2.006,0,0,1-2.6,0,1.247,1.247,0,0,0-.844-.318,1.2,1.2,0,0,0-.825.318,2,2,0,0,1-2.588,0,1.2,1.2,0,0,0-.825-.318,1.247,1.247,0,0,0-.844.318,2.006,2.006,0,0,1-2.6,0,1.652,1.652,0,0,0-.421-.254,2.749,2.749,0,0,0,.5,1.524Zm0,0" transform="translate(-514.857 -438.421)" fill="#ee8e42"/>
    </g>
    <g id="Grupo_1257" data-name="Grupo 1257" transform="translate(-21736.607 -20037.34)">
      <path id="Trazado_11475" data-name="Trazado 11475" d="M447.956,320.64c-.09-1.821-4.164-2.968-4.164-2.968s-3.728-4.1-5.288-6.16c-2.654,1.035-3.287,2.318-2.891,4.552,1.293-1.1,3.5.921,6.182,4.564Z" transform="translate(-435.505 -311.512)" fill="#6b4d22"/>
      <path id="Trazado_11476" data-name="Trazado 11476" d="M435.945,328.151l.885,4.748h.427c.118-2.136.385-4.558,1.8-3.783C439.055,327.21,435.945,327.2,435.945,328.151Z" transform="translate(-435.837 -323.598)" fill="#6b4d22"/>
    </g>
    <g id="Grupo_1259" data-name="Grupo 1259" transform="translate(-21697.889 -20039.15)">
      <path id="Trazado_11477" data-name="Trazado 11477" d="M597.1,313.291v-.976a.244.244,0,0,0-.244-.244h-3.415a.244.244,0,0,0-.244.244v.976Zm0,0" transform="translate(-593.197 -310.12)" fill="#34538a"/>
      <path id="Trazado_11478" data-name="Trazado 11478" d="M593.2,319.026v8.05h3.9v-8.05Zm2.928,3.171h-1.952a.244.244,0,0,1-.244-.244V320a.244.244,0,0,1,.244-.244h1.952a.244.244,0,0,1,.244.244v1.952a.244.244,0,0,1-.244.244Zm0,0" transform="translate(-593.197 -315.367)" fill="#34538a"/>
      <path id="Trazado_11479" data-name="Trazado 11479" d="M593.2,357.773v1.22a.244.244,0,0,0,.244.244h3.415a.244.244,0,0,0,.244-.244v-1.22Zm0,0" transform="translate(-593.197 -344.6)" fill="#34538a"/>
      <rect id="Rectángulo_1976" data-name="Rectángulo 1976" width="3.903" height="0.488" transform="translate(0 12.197)" fill="#34538a"/>
      <rect id="Rectángulo_1977" data-name="Rectángulo 1977" width="3.171" height="0.488" transform="translate(4.391 12.197)" fill="#34538a"/>
      <path id="Trazado_11480" data-name="Trazado 11480" d="M614.252,305.1v-.732a.244.244,0,0,0-.244-.244h-2.684a.244.244,0,0,0-.244.244v.732Zm0,0" transform="translate(-606.69 -304.123)" fill="#34538a"/>
      <rect id="Rectángulo_1978" data-name="Rectángulo 1978" width="3.171" height="9.026" transform="translate(4.391 2.683)" fill="#34538a"/>
      <path id="Trazado_11481" data-name="Trazado 11481" d="M611.081,357.773v1.22a.244.244,0,0,0,.244.244h2.684a.244.244,0,0,0,.244-.244v-1.22Zm0,0" transform="translate(-606.69 -344.6)" fill="#34538a"/>
      <rect id="Rectángulo_1979" data-name="Rectángulo 1979" width="3.171" height="0.732" transform="translate(4.391 1.464)" fill="#34538a"/>
      <path id="Trazado_11482" data-name="Trazado 11482" d="M625.96,321.312l.131.5,4.132-1.1-.131-.5Zm0,0" transform="translate(-617.915 -316.26)" fill="#34538a"/>
      <path id="Trazado_11483" data-name="Trazado 11483" d="M633.459,350.058l4.131-1.1-.262-1-4.131,1.1Zm0,0" transform="translate(-623.376 -337.191)" fill="#34538a"/>
      <path id="Trazado_11484" data-name="Trazado 11484" d="M632.525,329.54l-1.4-5.367-4.131,1.1,1.4,5.367Zm0,0" transform="translate(-618.695 -319.25)" fill="#34538a"/>
      <g id="Grupo_1258" data-name="Grupo 1258" transform="translate(7.562 1.952)">
        <path id="Trazado_11485" data-name="Trazado 11485" d="M624.355,314.7l4.131-1.1-.35-1.344a.249.249,0,0,0-.3-.176l-3.659.976a.246.246,0,0,0-.173.3Zm0,0" transform="translate(-623.996 -312.071)" fill="#34538a"/>
        <path id="Trazado_11486" data-name="Trazado 11486" d="M638.9,353.96l-4.132,1.1.291,1.116a.245.245,0,0,0,.115.149.235.235,0,0,0,.122.034.274.274,0,0,0,.063-.007l3.659-.976a.246.246,0,0,0,.173-.3Zm0,0" transform="translate(-632.12 -343.675)" fill="#34538a"/>
      </g>
    </g>
    <g id="Grupo_1260" data-name="Grupo 1260" transform="translate(-21719.488 -20077.297)">
      <path id="Trazado_11487" data-name="Trazado 11487" d="M551.068,154.9l1.2-.285a7.808,7.808,0,0,0-7.328-5.831v1.227A6.57,6.57,0,0,1,551.068,154.9Z" transform="translate(-535.187 -148.783)" fill="#fbb603"/>
      <path id="Trazado_11488" data-name="Trazado 11488" d="M519.829,161.936a6.706,6.706,0,1,1-6.744-5.329v-1.264a8.018,8.018,0,1,0,7.978,6.282Z" transform="translate(-505.215 -153.733)" fill="#fbb603"/>
      <circle id="Elipse_99" data-name="Elipse 99" cx="0.554" cy="0.554" r="0.554" transform="translate(5.386 6.474)" fill="#fbb603"/>
      <circle id="Elipse_100" data-name="Elipse 100" cx="0.558" cy="0.558" r="0.558" transform="translate(6.569 11.987)" fill="#fbb603"/>
      <path id="Trazado_11489" data-name="Trazado 11489" d="M513.246,169.162a6.082,6.082,0,1,0,11.991-1.423l-1.81.436a.924.924,0,1,1-1.748.421l-2.35.565V163.08a6.083,6.083,0,0,0-6.082,6.082Zm3.969-3.858a1.293,1.293,0,1,1-1.293,1.293h0A1.3,1.3,0,0,1,517.215,165.3Zm-.927,4.867a.654.654,0,1,1,.654-.654.654.654,0,0,1-.654.654Zm5.661,1.29a.654.654,0,1,1-.654.654.654.654,0,0,1,.654-.654Zm-2.25.654a1.3,1.3,0,1,1-1.3-1.293h0a1.3,1.3,0,0,1,1.3,1.293Z" transform="translate(-511.274 -159.57)" fill="#fbb603"/>
      <path id="Trazado_11490" data-name="Trazado 11490" d="M546.121,161.519a.924.924,0,0,1,1.752-.406l1.815-.414a6.083,6.083,0,0,0-5.854-4.723l-.066,6.082Zm-1-2.491a.643.643,0,1,0,0-.008Z" transform="translate(-534.301 -154.21)" fill="#fbb603"/>
    </g>
    <g id="Grupo_1262" data-name="Grupo 1262" transform="translate(-21680.771 -20069.102)">
      <rect id="Rectángulo_1980" data-name="Rectángulo 1980" width="0.882" height="2.257" transform="translate(4.527 0)" fill="#ff6849"/>
      <rect id="Rectángulo_1981" data-name="Rectángulo 1981" width="4.115" height="1.616" transform="translate(4.968 4.836)" fill="#ff6849"/>
      <rect id="Rectángulo_1982" data-name="Rectángulo 1982" width="2.058" height="1.616" transform="translate(7.025 4.836)" fill="#ff6849"/>
      <g id="Grupo_1261" data-name="Grupo 1261" transform="translate(0 1.963)">
        <path id="Trazado_11491" data-name="Trazado 11491" d="M683.656,193.672H681.3a1.764,1.764,0,0,1-1.764-1.764v-1.763a3.3,3.3,0,0,1,2.742,1.467l.2.3.2-.3a3.3,3.3,0,0,1,2.742-1.467v1.763a1.764,1.764,0,0,1-1.764,1.764Zm0,0" transform="translate(-675.455 -190.145)" fill="#ff6849"/>
        <path id="Trazado_11492" data-name="Trazado 11492" d="M671.984,208.1h-4.115l-4.968,7.613v.029a24.353,24.353,0,0,0,14.051,0v-.029Zm0,0" transform="translate(-662.901 -203.693)" fill="#ff6849"/>
      </g>
      <rect id="Rectángulo_1983" data-name="Rectángulo 1983" width="0.882" height="2.257" transform="translate(8.642 0)" fill="#ff6849"/>
    </g>
    <g id="Grupo_1265" data-name="Grupo 1265" transform="translate(-21754.932 -20068.307)">
      <g id="Grupo_1264" data-name="Grupo 1264" transform="translate(0 0)">
        <g id="Grupo_1263" data-name="Grupo 1263" clip-path="url(#clip-path)">
          <path id="Trazado_11493" data-name="Trazado 11493" d="M392.314,190.681" transform="translate(-384.591 -189.382)"/>
          <path id="Trazado_11494" data-name="Trazado 11494" d="M376.287,187.461a.354.354,0,0,0-.184-.2l-2.945-1.359a14.249,14.249,0,0,0-1.909-.5.346.346,0,0,0-.405.265,2.316,2.316,0,0,1-4.521,0,.347.347,0,0,0-.338-.272.355.355,0,0,0-.068.007,14.317,14.317,0,0,0-1.91.5l-2.944,1.359a.35.35,0,0,0-.165.475l1.279,2.523a.347.347,0,0,0,.31.191.352.352,0,0,0,.1-.015l1.42-.421v8.466a.35.35,0,0,0,.35.349h8.453a.349.349,0,0,0,.349-.349v-8.465l1.421.421a.348.348,0,0,0,.411-.177l1.279-2.523a.349.349,0,0,0,.018-.273Zm0,0" transform="translate(-360.86 -185.39)" fill="#398cdb"/>
        </g>
      </g>
    </g>
    <g id="Grupo_1267" data-name="Grupo 1267" transform="translate(-21800.58 -20077.961)">
      <g id="Grupo_1266" data-name="Grupo 1266" transform="translate(0 0)">
        <path id="Trazado_11495" data-name="Trazado 11495" d="M185.011,149.471a.1.1,0,0,0-.1-.09h-1.757v-.488a2.83,2.83,0,0,0-5.66,0v.488h-1.757a.1.1,0,0,0-.1.09l-.683,8.978a.1.1,0,0,0,.1.105H185.6a.1.1,0,0,0,.1-.1Zm-4.684-2.627a2.052,2.052,0,0,1,2.05,2.049v.488h-4.1v-.488A2.052,2.052,0,0,1,180.327,146.844Zm-2.44,5.27a.977.977,0,0,1-.976-.976.921.921,0,0,1,.585-.894v.894a.39.39,0,1,0,.781,0v-.894a.924.924,0,0,1,.586.894A.977.977,0,0,1,177.887,152.114Zm4.88,0a.977.977,0,0,1-.976-.976.921.921,0,0,1,.586-.894v.894a.39.39,0,1,0,.781,0v-.894a.923.923,0,0,1,.586.894A.977.977,0,0,1,182.767,152.114Z" transform="translate(-174.96 -146.063)" fill="#993a48"/>
      </g>
    </g>
    <g id="Grupo_1268" data-name="Grupo 1268" transform="translate(-21771.529 -20097.635)">
      <path id="Trazado_11496" data-name="Trazado 11496" d="M306.549,84.983H296.423V86.92a5.078,5.078,0,0,0,2.365,4.288h5.37a5.278,5.278,0,0,0,.978-.775h1.026a2.716,2.716,0,0,0,2.712-2.712V85.758h-2.325Zm1.55,1.55v1.188a1.94,1.94,0,0,1-1.938,1.938h-.422a5.066,5.066,0,0,0,.809-2.738v-.387Z" transform="translate(-295.648 -80.307)" fill="#a87026"/>
      <path id="Trazado_11497" data-name="Trazado 11497" d="M307.569,67.038a1.317,1.317,0,0,0-.587-1.1l-.43.645a.544.544,0,0,1,0,.905,1.319,1.319,0,0,0,0,2.195l.43-.645a.544.544,0,0,1,0-.905A1.316,1.316,0,0,0,307.569,67.038Z" transform="translate(-302.846 -65.94)" fill="#a87026"/>
      <path id="Trazado_11498" data-name="Trazado 11498" d="M315.459,67.038a1.317,1.317,0,0,0-.587-1.1l-.43.645a.544.544,0,0,1,0,.905,1.319,1.319,0,0,0,0,2.195l.43-.645a.544.544,0,0,1,0-.905A1.316,1.316,0,0,0,315.459,67.038Z" transform="translate(-308.8 -65.94)" fill="#a87026"/>
      <path id="Trazado_11499" data-name="Trazado 11499" d="M323.349,67.038a1.316,1.316,0,0,0-.587-1.1l-.43.645a.544.544,0,0,1,0,.905,1.319,1.319,0,0,0,0,2.195l.43-.645a.544.544,0,0,1,0-.905A1.316,1.316,0,0,0,323.349,67.038Z" transform="translate(-314.753 -65.94)" fill="#a87026"/>
      <path id="Trazado_11500" data-name="Trazado 11500" d="M303.393,115.043a1.55,1.55,0,0,0,1.55-1.55H293.267a1.55,1.55,0,0,0,1.55,1.55Z" transform="translate(-293.267 -101.817)" fill="#a87026"/>
    </g>
    <g id="Grupo_1269" data-name="Grupo 1269" transform="translate(-21739.363 -20103.6)">
      <path id="Trazado_11501" data-name="Trazado 11501" d="M439.088,46.442h-.217a4.524,4.524,0,0,1-2.683-.884l-1.208,1.208-.688-.688,1.14-1.14-.569-.473-1.257,1.257-.688-.688,1.194-1.194-.569-.473-1.311,1.311-.688-.688,1.248-1.248-1.105-.92a.776.776,0,0,0-1.273.6v.423a2.527,2.527,0,0,1-4.817,1.068l-.119-.255a.624.624,0,0,0-1.19.264v4.16h16.6A1.81,1.81,0,0,0,439.088,46.442Z" transform="translate(-424.289 -41.642)" fill="#34538a"/>
      <path id="Trazado_11502" data-name="Trazado 11502" d="M426.673,72.822h12.992a1.81,1.81,0,0,0,1.62-1.007H425.053A1.809,1.809,0,0,0,426.673,72.822Z" transform="translate(-424.865 -64.406)" fill="#34538a"/>
    </g>
    <g id="Grupo_1270" data-name="Grupo 1270" transform="translate(-21697.746 -20105.945)">
      <path id="Trazado_11503" data-name="Trazado 11503" d="M598.328,58.5l1.011-1.011,1.011,1.011,1.011-1.011-6.571-6.571-1.011,1.011,1.011,1.011-1.011,1.011Z" transform="translate(-593.779 -46.301)" fill="#353535"/>
      <path id="Trazado_11504" data-name="Trazado 11504" d="M612.842,48.572l-2.6,2.6,1.516,1.516,2.6-2.6Z" transform="translate(-606.203 -44.528)" fill="#353535"/>
      <path id="Trazado_11505" data-name="Trazado 11505" d="M615.617,32.1l-1.011,1.011L613.6,32.1l-1.011,1.011,6.571,6.571,1.011-1.011-1.011-1.011,1.011-1.011Z" transform="translate(-607.967 -32.104)" fill="#353535"/>
      <rect id="Rectángulo_1985" data-name="Rectángulo 1985" width="1.43" height="2.144" transform="translate(9.672 1.011) rotate(-45)" fill="#353535"/>
      <rect id="Rectángulo_1986" data-name="Rectángulo 1986" width="1.43" height="2.144" transform="translate(0 10.686) rotate(-45)" fill="#353535"/>
    </g>
    <path id="Trazado_11506" data-name="Trazado 11506" d="M750.687,77.81h5.1a1.812,1.812,0,0,0,1.817-1.817v-10.9a1.812,1.812,0,0,0-1.817-1.817h-5.1a1.812,1.812,0,0,0-1.817,1.817v10.9A1.822,1.822,0,0,0,750.687,77.81Zm2.56-1.173a.826.826,0,1,1,.826-.826A.818.818,0,0,1,753.247,76.638ZM749.7,65.7h7.085v8.407H749.7Z" transform="translate(-22408.535 -20161.561)" fill="#7e8a9b"/>
    <g id="Grupo_1271" data-name="Grupo 1271" transform="translate(-21630.799 -20078.314)">
      <path id="Trazado_11507" data-name="Trazado 11507" d="M872.647,182.753h-1.763l1.1,3.836h1.26Zm0,0" transform="translate(-869.788 -173.391)" fill="#f7a19a"/>
      <path id="Trazado_11508" data-name="Trazado 11508" d="M892.8,186.589l.6-3.836h-1.772v3.836Zm0,0" transform="translate(-885.432 -173.391)" fill="#f7a19a"/>
      <path id="Trazado_11509" data-name="Trazado 11509" d="M876.4,150.105a1.646,1.646,0,0,0-1.393-2.521,1.682,1.682,0,0,0-.008-.732,3.862,3.862,0,0,0-1.615-1.983l-.392-.244-.171.429c-.143.358-.578.432-1.276.512a3.045,3.045,0,0,0-1.409.389,1.91,1.91,0,0,0-.737,1.63,1.646,1.646,0,0,0-1.357,2.52,1.647,1.647,0,0,0-.749,3.1l0,.007h9.851l0-.008a1.647,1.647,0,0,0-.749-3.1Zm0,0" transform="translate(-866.422 -144.625)" fill="#f7a19a"/>
      <path id="Trazado_11510" data-name="Trazado 11510" d="M900.192,182.753l-.6,3.836h1.26l1.1-3.836Zm0,0" transform="translate(-891.451 -173.391)" fill="#f7a19a"/>
      <path id="Trazado_11511" data-name="Trazado 11511" d="M881.842,186.589h1.177v-3.836h-1.773Zm0,0" transform="translate(-877.607 -173.391)" fill="#f7a19a"/>
    </g>
  </g>
</svg>
