<svg xmlns="http://www.w3.org/2000/svg" width="76.446" height="64">
    <defs>
        <style>
            .cls-3{fill:#edc483}.cls-5{fill:#251a51}.cls-6{fill:#5393d0}.cls-7{fill:#f6aea6}.cls-8{fill:#1a3066}.cls-10,.cls-15{fill:#fff}.cls-10{opacity:.41}.cls-12{fill:#6e3281}.cls-14{fill:#1bd5ea}
        </style>
    </defs>
    <g id="img_create" transform="translate(-113.249 -98.56)">
        <path id="color_09" d="M126.232 171.807a2.356 2.356 0 0 0-.4 3.264 2.491 2.491 0 0 0 3.379.4c2.462-1.89-.115-5.325-2.749-4.638-.458.115-.344.8.115.859a3.5 3.5 0 0 1 2.233.63 1.555 1.555 0 0 1 .115 2.233c-1.432 1.775-3.894-.859-2.405-2.405.229-.229-.115-.515-.286-.344z" transform="translate(15.992 -56.045)" style="fill:#8aa9fc"/>
        <path id="color_08" d="M170.7 177.33c.344 1.2.687 2.462 1.088 3.665a.4.4 0 0 0 .63.229c.973-.687 1.947-1.317 2.92-2.061.172-.115.115-.458-.057-.573-1.088-.744-2.577-1.832-3.951-1.89-.344 0-.573.515-.229.687a10.049 10.049 0 0 0 1.832.687 13.247 13.247 0 0 1 2 1.031 2.349 2.349 0 0 1 .057-.63c-1.031.63-2 1.374-3.035 2.061.172.057.4.057.573.115-.4-1.2-.859-2.405-1.317-3.55-.172-.172-.573 0-.515.229z" transform="translate(-3.39 -58.59)" style="fill:#e3707f"/>
        <path id="color_07" class="cls-3" d="M182.508 186.656a24.534 24.534 0 0 0 4.295-2.462.453.453 0 0 0-.515-.744 27.773 27.773 0 0 0-4.066 2.691c-.229.172-.057.687.286.515z" transform="translate(-8.274 -61.446)"/>
        <path id="color_06" d="M87.01 193.22a26.384 26.384 0 0 0-1.26-4.753.453.453 0 0 0-.859.286 25.363 25.363 0 0 0 1.546 4.581c.115.286.687.229.573-.114z" transform="translate(33.283 -63.486)" style="fill:#e8947e"/>
        <path id="color_05" class="cls-5" d="m95.482 172.049-.057-.057a.916.916 0 0 0-1.317 0 .97.97 0 0 0 0 1.317l.057.057a.97.97 0 0 0 1.317 0 .916.916 0 0 0 0-1.317z" transform="translate(29.449 -56.459)"/>
        <g id="persona" transform="translate(126.118 98.56)">
            <g id="body" transform="translate(0 22.241)">
                <path id="Trazado_11049" data-name="Trazado 11049" class="cls-6" d="M148.688 217.717s-15.4 3.55-21.588-2.577l2.233-14.774c.687-4.237.286-12.426 3.493-15.289a5.457 5.457 0 0 1 1.26-.859c2.291-1.088 6.356-1.718 10.25-1.718 4.753 0 9.62 3.55 10.823 8.131l-5.1 11.968z" transform="translate(-110.879 -181.87)"/>
                <g id="Grupo_1008" data-name="Grupo 1008" transform="translate(21.432 8.819)">
                    <path id="Trazado_11050" data-name="Trazado 11050" class="cls-7" d="M151.088 198.632s6.872 13.285 3.493 13.972c-11.281 2.348-17.809 4.237-17.809 4.237l-.573 4.352c.172.687 22.791.115 25.425-2.92 1.89-2.119 4.409-7.1-.916-17.809l-1.6-3.665z" transform="translate(-136.2 -196.8)"/>
                </g>
                <path id="Trazado_11051" data-name="Trazado 11051" class="cls-7" d="m122.152 185.179-17.179 6.643-.515-8.99-3.665-1.432s-5.325 14.43 1.317 17.122 14.144-2.291 14.144-2.291z" transform="translate(-98.772 -181.4)"/>
                <path id="Trazado_11052" data-name="Trazado 11052" class="cls-6" d="M129.881 184.2c-6.013 1.89-9.563 4.123-17.981 7.673l4.352 9.677 7.444-2.405z" transform="translate(-104.383 -182.597)"/>
                <path id="Trazado_11053" data-name="Trazado 11053" class="cls-6" d="m160.186 194.435 4.352 10.136 9.792-1.775-6.643-11.4-7.788 3.035" transform="translate(-124.896 -185.674)"/>
                <g id="Grupo_1009" data-name="Grupo 1009" transform="translate(30.007 15.258)">
                    <path id="Trazado_11054" data-name="Trazado 11054" class="cls-8" d="M151.3 208.477c2.119-.115 4.18 0 6.242 0 .172 0 .172-.229 0-.286a28.439 28.439 0 0 0-6.242.057.115.115 0 1 0 0 .229z" transform="translate(-151.175 -208.045)"/>
                </g>
                <g id="Grupo_1010" data-name="Grupo 1010" transform="translate(35.758 3.951)">
                    <path id="Trazado_11055" data-name="Trazado 11055" class="cls-8" d="M164.93 188.3c-7.043.63-2.233 11.052-.4 14.2.115.172.344 0 .286-.172-1.775-3.207-6.643-12.884.172-13.858.057 0 .057-.172-.057-.172z" transform="translate(-161.217 -188.3)"/>
                </g>
                <g id="Grupo_1011" data-name="Grupo 1011" transform="translate(18.226 9.844)">
                    <path id="Trazado_11056" data-name="Trazado 11056" class="cls-8" d="M132.261 198.653A61.485 61.485 0 0 0 130.6 209.3c0 .172.229.172.286.057.515-3.55 1.031-7.1 1.6-10.651a.123.123 0 0 0-.229-.057z" transform="translate(-130.6 -198.591)"/>
                </g>
            </g>
            <g id="head" transform="translate(21.6)">
                <g id="Grupo_1013" data-name="Grupo 1013">
                    <path id="Trazado_11057" data-name="Trazado 11057" class="cls-5" d="m151.328 155.467.344-4.466a2.309 2.309 0 0 0 1.317-2.978 2.8 2.8 0 0 0-2.978-1.6 1.659 1.659 0 0 0 .057-2.405 3.361 3.361 0 0 0-2.52-.916 22.069 22.069 0 0 1-2.749-.115 7.069 7.069 0 0 0-2.405-.4c-.8.115-1.6 1.031-1.145 1.718a5.611 5.611 0 0 0-3.493.229c-1.031.573-1.546 2.176-.687 2.92a1.262 1.262 0 0 0-.4 1.718 2.144 2.144 0 0 0 1.661.916 5.538 5.538 0 0 0 1.947-.286" transform="translate(-136.492 -142.56)"/>
                </g>
                <path id="Trazado_11058" data-name="Trazado 11058" class="cls-7" d="m153.076 155.89-.229 3.092s2.634.344 1.89 2.749-2.577 1.374-2.577 1.374-.458 6.184-6.757 4.18c-5.039-1.546-4.7-8.074-4.066-13.629a3.7 3.7 0 0 1 4.409-3.207l3.779.744a4.476 4.476 0 0 1 3.551 4.697z" transform="translate(-138.412 -145.903)"/>
                <path id="Trazado_11059" data-name="Trazado 11059" class="cls-7" d="m155.032 169.9-1.718 9.048a3.605 3.605 0 0 1-4.409 2.863 3.643 3.643 0 0 1-2.749-4.18l.916-5.211z" transform="translate(-140.597 -154.244)"/>
                <g id="Grupo_1016" data-name="Grupo 1016" transform="translate(6.609 10.273)">
                    <g id="Grupo_1015" data-name="Grupo 1015">
                        <g id="Grupo_1014" data-name="Grupo 1014">
                            <path id="Trazado_11060" data-name="Trazado 11060" class="cls-5" d="M148.874 166s.057.115-.172.229c-.172.115-.515-.115-.573-.4a2.019 2.019 0 0 1-.057-1.031c0-.4.057-.8.057-1.2a20.18 20.18 0 0 1 .344-3.092 18.861 18.861 0 0 1-.057 3.092c-.057.4-.057.8-.115 1.2a2.775 2.775 0 0 0 0 .973c.057.229.229.4.344.344.171-.003.171-.115.229-.115z" transform="translate(-148.034 -160.5)"/>
                        </g>
                    </g>
                </g>
                <g id="Grupo_1019" data-name="Grupo 1019" transform="translate(5.387 20.801)">
                    <g id="Grupo_1018" data-name="Grupo 1018">
                        <g id="Grupo_1017" data-name="Grupo 1017">
                            <path id="Trazado_11061" data-name="Trazado 11061" class="cls-5" d="M145.9 178.893a5.661 5.661 0 0 1 .859.4 6.369 6.369 0 0 0 2.119.515 5.673 5.673 0 0 0 2.176-.4c.515-.229.859-.4.859-.344a2.519 2.519 0 0 1-.8.573 3.935 3.935 0 0 1-5.211-.744z" transform="translate(-145.9 -178.884)"/>
                        </g>
                    </g>
                </g>
                <g id="Grupo_1022" data-name="Grupo 1022" transform="translate(6.633 16.171)">
                    <g id="Grupo_1021" data-name="Grupo 1021">
                        <g id="Grupo_1020" data-name="Grupo 1020">
                            <path id="Trazado_11062" data-name="Trazado 11062" class="cls-5" d="M148.089 171.659c.057-.057.172.115.458.229a1.444 1.444 0 0 0 1.89-.63c.172-.229.172-.458.229-.458s.057.229-.057.515a1.378 1.378 0 0 1-.916.859 1.506 1.506 0 0 1-1.26-.172c-.286-.114-.401-.286-.344-.343z" transform="translate(-148.075 -170.8)"/>
                        </g>
                    </g>
                </g>
                <g id="Grupo_1025" data-name="Grupo 1025" transform="translate(14.607 14.625)">
                    <g id="Grupo_1024" data-name="Grupo 1024">
                        <g id="Grupo_1023" data-name="Grupo 1023">
                            <path id="Trazado_11063" data-name="Trazado 11063" class="cls-5" d="M162 169.646c0-.057.172-.057.344-.172.115-.057.172-.115.172-.229s0-.229-.115-.229h-.172L162 168.9a1.9 1.9 0 0 1 .515-.8c.057 0-.057.4-.229.916l-.229-.115a.462.462 0 0 1 .515-.172.69.69 0 0 1 .286.286c.057.115 0 .229 0 .344a.668.668 0 0 1-.344.344.751.751 0 0 1-.514-.057z" transform="translate(-162 -168.1)"/>
                        </g>
                    </g>
                </g>
                <g id="Grupo_1028" data-name="Grupo 1028" transform="translate(9.733 9.891)">
                    <g id="Grupo_1027" data-name="Grupo 1027">
                        <g id="Grupo_1026" data-name="Grupo 1026">
                            <path id="Trazado_11064" data-name="Trazado 11064" class="cls-5" d="M153.5 159.986c-.057-.057.286-.229.687-.115s.63.4.573.458-.286-.115-.63-.172c-.291-.114-.577-.057-.63-.171z" transform="translate(-153.489 -159.833)"/>
                        </g>
                    </g>
                </g>
                <g id="Grupo_1031" data-name="Grupo 1031" transform="translate(4.293 8.947)">
                    <g id="Grupo_1030" data-name="Grupo 1030">
                        <g id="Grupo_1029" data-name="Grupo 1029">
                            <path id="Trazado_11065" data-name="Trazado 11065" class="cls-5" d="M144 158.422c-.057-.057.286-.286.744-.229s.744.286.687.344-.344-.057-.744-.057c-.348-.058-.634 0-.687-.058z" transform="translate(-143.989 -158.184)"/>
                        </g>
                    </g>
                </g>
                <g id="Grupo_1032" data-name="Grupo 1032" transform="translate(2.422 2.822)">
                    <path id="Trazado_11066" data-name="Trazado 11066" class="cls-5" d="M152.734 157.745c-1.775-1.718-2.291-4.581-2.749-6.986a6.129 6.129 0 0 1-5.784.744 7.7 7.7 0 0 1-2.061 1.775 1.151 1.151 0 0 1-.744.229c-.286-.115-.4-.4-.515-.744a5.064 5.064 0 0 1 .115-2.92 3.727 3.727 0 0 1 1.947-2.119 4.77 4.77 0 0 1 3.092.057 17.509 17.509 0 0 1 4.409 1.832 7.075 7.075 0 0 1 3.207 3.264c.573 1.432.573 4.295-.8 5.039" transform="translate(-140.721 -147.488)"/>
                </g>
                <g id="Grupo_1035" data-name="Grupo 1035" transform="translate(10.14 11.647)">
                    <g id="Grupo_1034" data-name="Grupo 1034">
                        <g id="Grupo_1033" data-name="Grupo 1033">
                            <path id="Trazado_11067" data-name="Trazado 11067" class="cls-5" d="M154.314 163.816c-.057 0-.115-.229-.115-.458 0-.286.115-.458.172-.458s.114.229.114.458c.001.286-.113.458-.171.458z" transform="translate(-154.2 -162.9)"/>
                        </g>
                    </g>
                </g>
                <g id="Grupo_1038" data-name="Grupo 1038" transform="translate(5.044 11.017)">
                    <g id="Grupo_1037" data-name="Grupo 1037">
                        <g id="Grupo_1036" data-name="Grupo 1036">
                            <path id="Trazado_11068" data-name="Trazado 11068" class="cls-5" d="M145.415 162.716c-.057 0-.115-.229-.115-.458 0-.286.115-.458.172-.458s.115.229.115.458-.058.458-.172.458z" transform="translate(-145.3 -161.8)"/>
                        </g>
                    </g>
                </g>
            </g>
            <path id="right_hand" class="cls-7" d="M101.9 175.6s.744-4.7 1.661-4.638 2.749 0 2.749 0 .172-4.467.63-3.722c.515.687.687 6.7-1.26 9.563z" transform="translate(-100.109 -153.071)"/>
            <path id="left_hand" class="cls-7" d="M131.115 231.8s-8.189 1.432-8.017 2.462a7.405 7.405 0 0 0 .744 2.119l7.272-.172z" transform="translate(-109.167 -180.698)"/>
        </g>
        <g id="laptop" transform="translate(115.998 137.236)">
            <path id="Trazado_11071" data-name="Trazado 11071" d="m122.043 227.393-.057-1.145-16.835-1.031-5.612-15.117-18.439 1.031 6.3 16.32z" transform="translate(-81.1 -210.1)" style="fill:#ccc"/>
            <path id="Trazado_11072" data-name="Trazado 11072" class="cls-10" d="M98.8 223.432a1.376 1.376 0 1 0 1.317-1.432 1.36 1.36 0 0 0-1.317 1.432z" transform="translate(-88.664 -215.186)"/>
            <path id="Trazado_11073" data-name="Trazado 11073" class="cls-10" d="M97.9 223a1.92 1.92 0 1 0 1.832-2 1.918 1.918 0 0 0-1.832 2z" transform="translate(-88.278 -214.756)"/>
        </g>
        <path id="table" d="m76.3 240.216 72.209-.916 4.237 2.233c-.057 0-55.488 15.175-76.446-1.317z" transform="translate(36.949 -85.344)" style="fill:#34538a"/>
        <path id="color_04" class="cls-12" d="M104.27 191.3a2.72 2.72 0 0 1 .344-1.374c.573-.859 1.317-.63 2.061-.286a2.444 2.444 0 0 0 2.348.229c1.317-.573 1.89-2.52.687-3.436-.4-.286-.8.172-.744.573.057.515.344 1.088-.115 1.546-.63.63-1.317.115-1.947-.172a2.707 2.707 0 0 0-2-.115c-1.145.458-2 2.061-1.088 3.092.115.229.458.172.458-.057z" transform="translate(25.356 -62.712)"/>
        <path id="color_03" class="cls-3" d="M134.569 194.8a26.311 26.311 0 0 0 4.638-1.661.465.465 0 0 0-.344-.859 25.484 25.484 0 0 0-4.467 1.89c-.229.172-.172.744.172.63z" transform="translate(12.179 -65.239)"/>
        <path id="color_02" d="M121.286 199.03c.344 1.2.687 2.462 1.088 3.665a.4.4 0 0 0 .63.229c.973-.687 1.947-1.317 2.92-2.061.172-.115.115-.458-.057-.573-1.088-.744-2.577-1.832-3.951-1.89-.344 0-.573.515-.229.687a10.042 10.042 0 0 0 1.832.687 13.25 13.25 0 0 1 2 1.031 2.349 2.349 0 0 1 .057-.63c-1.031.63-2 1.374-3.035 2.061.172.057.4.057.573.115-.4-1.2-.859-2.405-1.317-3.55-.172-.115-.63 0-.515.229z" transform="translate(17.731 -67.864)" style="fill:#ede6f5"/>
        <path id="color_01" class="cls-12" d="M124.842 220.305a28.291 28.291 0 0 0 4.925 0 .46.46 0 0 0-.057-.916 26.809 26.809 0 0 0-4.81.286c-.286.057-.4.573-.057.63z" transform="translate(16.295 -76.828)"/>
        <g id="cloud_02" transform="translate(169.667 101.045)">
            <path id="cloud" class="cls-14" d="M174.867 147.3c-.229.4.515 11.4.515 11.4l5.383-.458-.63 2.92 2.634-2.978 5.268-.63-.344-10.651z" transform="translate(-174.824 -146.9)"/>
            <path id="thump" class="cls-15" d="m180.1 153.579 1.145 3.951 1.6-.286-.172-.8.458-.286.859.859 2.691-.515.344-1.031-.744-.172.973-.344-.229-1.088-.859.057 1.145-.344-.286-1.374-2.749.515s.172-1.89-.63-2.52l-.63.115a2.392 2.392 0 0 1 .172.973 16.386 16.386 0 0 1-.573 2.061l-.859.4-.172-.573z" transform="translate(-177.078 -148.31)"/>
        </g>
        <g id="cloud_01" transform="translate(117.029 98.926)">
            <path id="bg" class="cls-14" d="m82.9 143.2.916 10.937h20.1l1.145 3.837 1.145-4.18 3.837-.229-1.775-9.792z" transform="translate(-82.9 -143.2)"/>
            <path id="line_03" class="cls-15" d="M88.172 156.927c4.638.172 9.277-.172 13.915.229.229 0 .229-.344 0-.4-4.638-.344-9.277-.115-13.915-.172a.172.172 0 0 0 0 .344z" transform="translate(-85.08 -148.91)"/>
            <path id="line_02" class="cls-15" d="M88.072 153.66a157.433 157.433 0 0 1 20.787.344c.229 0 .229-.344 0-.4a148.177 148.177 0 0 0-20.787-.286.172.172 0 1 0 0 .344z" transform="translate(-85.037 -147.418)"/>
            <path id="line_01" class="cls-15" d="M87.372 149.86a157.436 157.436 0 0 1 20.787.344c.229 0 .229-.344 0-.4a148.17 148.17 0 0 0-20.787-.286.172.172 0 1 0 0 .344z" transform="translate(-84.738 -145.794)"/>
        </g>
    </g>
</svg>
