<svg xmlns="http://www.w3.org/2000/svg" width="32" height="32" viewBox="0 0 32 32">
  <g id="ic_whatsapp" transform="translate(-307 -252)">
    <circle id="btn" cx="16" cy="16" r="16" transform="translate(307 252)" fill="#25d366"/>
    <path id="whatsapp" d="M432.084,339.087a9.116,9.116,0,1,1,7.9,4.566h0a9.107,9.107,0,0,1-4.356-1.109l-4.832,1.268Zm4.04,1.97a7.566,7.566,0,0,0,3.856,1.056h0a7.577,7.577,0,1,0-6.418-3.551l.18.287-.765,2.8,2.868-.752Zm5.347-2.276a13.1,13.1,0,0,1-1.3-.48,10.154,10.154,0,0,1-3.891-3.439,4.431,4.431,0,0,1-.93-2.356,2.554,2.554,0,0,1,.8-1.9.837.837,0,0,1,.607-.285c.152,0,.3,0,.437.008h.051c.133,0,.3,0,.461.39.19.456.645,1.577.7,1.691a.419.419,0,0,1,.019.4,1.557,1.557,0,0,1-.228.38c-.114.133-.239.3-.342.4s-.233.237-.1.465a6.864,6.864,0,0,0,1.267,1.578,6.22,6.22,0,0,0,1.832,1.131c.228.114.361.095.493-.057s.569-.665.721-.893.3-.19.512-.114,1.329.627,1.556.741.38.171.436.266a1.9,1.9,0,0,1-.133,1.083,2.346,2.346,0,0,1-1.537,1.083,3.723,3.723,0,0,1-.553.044A2.889,2.889,0,0,1,441.471,338.78Z" transform="translate(-116.945 -66.612)" fill="#fff"/>
  </g>
</svg>
