<?xml version="1.0" encoding="utf-8"?>
<!-- Generator: Adobe Illustrator 24.2.3, SVG Export Plug-In . SVG Version: 6.00 Build 0)  -->
<svg version="1.1" id="Capa_1" xmlns="http://www.w3.org/2000/svg" xmlns:xlink="http://www.w3.org/1999/xlink" x="0px" y="0px"
	 viewBox="0 0 479 238.8" style="enable-background:new 0 0 479 238.8;" xml:space="preserve">
<style type="text/css">
	.st0{fill:#34538A;}
	.st1{fill:#5393D0;}
	.st2{fill:#8ACCFB;}
	.st3{fill:#FFFFFF;}
	.st4{fill:#E6F2FF;}
	.st5{fill:#E8595B;}
	.st6{opacity:0.3;fill:#009FE2;enable-background:new    ;}
	.st7{fill:#CC2537;}
	.st8{fill:#0093FB;}
	.st9{fill:#5AB6FB;}
	.st10{fill:#7EBEFB;}
	.st11{fill:#E4E4E4;}
	.st12{fill:#CBE4FB;}
	.st13{fill:#398CDB;}
	.st14{fill:#FFBF10;}
	.st15{fill:#CCCCCC;}
	.st16{fill:#DCDCDC;}
	.st17{fill:#A8A8A8;}
	.st18{fill:#FFABA1;}
	.st19{fill:#ECECEC;}
	.st20{fill:#1A2E35;}
	.st21{opacity:0.2;enable-background:new    ;}
	.st22{fill:#2B454E;}
	.st23{fill:#375A64;}
	.st24{fill:#FFC800;}
	.st25{fill:#F7A200;}
	.st26{fill:none;stroke:#F7A200;stroke-width:1.37;stroke-linecap:round;stroke-linejoin:round;}
	.st27{fill:#FF99BC;}
	.st28{fill:#0052AE;}
	.st29{fill:#9CD5FF;}
	.st30{fill:#FF3E71;}
	.st31{fill:none;stroke:#E6F2FF;stroke-width:1.207;stroke-linecap:round;stroke-linejoin:round;}
	.st32{fill:none;stroke:#82D3F6;stroke-width:1.207;stroke-linecap:round;stroke-linejoin:round;stroke-dasharray:4.828;}
	.st33{fill:none;stroke:#82D3F6;stroke-width:1.207;stroke-linecap:round;stroke-linejoin:round;}
	.st34{fill:#DB7E7E;}
	.st35{fill:#00428B;}
	.st36{fill:#FFA7A7;}
	.st37{opacity:0.5;fill:#DB7E7E;enable-background:new    ;}
	.st38{fill:none;stroke:#DB7E7E;stroke-width:1.207;stroke-linecap:round;stroke-linejoin:round;}
	.st39{fill:#002A57;}
	.st40{opacity:0.25;fill:#DB7E7E;enable-background:new    ;}
	.st41{fill:none;stroke:#F7A200;stroke-width:1.207;stroke-linecap:round;stroke-linejoin:round;}
	.st42{fill:#E5C28F;}
	.st43{fill:#F4D39A;}
	.st44{fill:#FFF9E1;}
	.st45{fill:#FFABA1;stroke:#DB7E7E;stroke-width:0.892;stroke-miterlimit:10;}
	.st46{fill:url(#Trazado_11454_1_);}
	.st47{fill:#D5E9FB;}
	.st48{fill:#476F87;}
	.st49{fill:#2A3E51;}
	.st50{fill:url(#Trazado_11458_1_);}
	.st51{fill:url(#Trazado_11460_1_);}
	.st52{fill:url(#Trazado_11464_1_);}
	.st53{fill:url(#Trazado_11465_1_);}
	.st54{fill:url(#Trazado_11466_1_);}
	.st55{fill:#FFFFFF;stroke:#EEEEEE;}
	.st56{fill:#EE8E42;}
	.st57{fill:#6B4D22;}
	.st58{fill:#FBB603;}
	.st59{fill:#FF6849;}
	.st60{clip-path:url(#SVGID_2_);}
	.st61{fill:#993A48;}
	.st62{fill:#A87026;}
	.st63{fill:#353535;}
	.st64{fill:#7E8A9B;}
	.st65{fill:#F7A19A;}
	.st66{fill:#EEEEEE;}
</style>
<g id="Grupo_6893" transform="translate(-435.5 -51.5)">
	<g id="Grupo_6892">
		<g id="ic_logo" transform="translate(0.002 3)">
			<circle id="Elipse_13" class="st0" cx="674.5" cy="226" r="36"/>
			
				<image style="overflow:visible;enable-background:new    ;" width="1039" height="1024" id="img_logo" xlink:href="7000793558AA4CF7.png"  transform="matrix(6.592167e-02 0 0 6.592167e-02 640.2516 192.2481)">
			</image>
		</g>
		<g id="img_illustration" transform="translate(22394.686 20163.057)">
			<g id="Grupo_1188" transform="translate(-21823.508 -20045.84)">
				<g id="Grupo_1181" transform="translate(0 0)">
					<path id="Trazado_11335" class="st1" d="M-7.7,5.5c0.8-5,8.5-7.2,8.3-4l35.1,0.2c2.6,0.2,4.5,2.3,4.4,4.9l0.1,92.3
						c0.1,2.6-1.9,4.9-4.5,5.1l-35.8,0.3c-0.3,0.5-0.7,1-1.3,1.2c-4.1,0.1-6.1-1.9-6.8-4.2c-0.2-0.6-0.4-1.3-0.4-2
						C-8.4,98.1-7.9,6.7-7.7,5.5z"/>
					<g id="Grupo_1180" transform="translate(2.893 0.013)">
						<g id="Grupo_1179">
							<path id="Trazado_11336" class="st2" d="M-3.9,105.5l41.1-0.3c2.7-0.2,4.8-2.5,4.6-5.2l0-94.9c0.1-2.6-1.9-4.9-4.6-5L-3.1,0
								c-2.7,0.1-4.7,2.3-4.6,5l-0.7,95.4C-8.7,103.1-6.6,105.4-3.9,105.5L-3.9,105.5z"/>
							<path id="Trazado_11337" class="st0" d="M-4.4,104.9c0.2,0,0.3,0,0.5,0l41.1-0.3c2.4-0.2,4.1-2.2,4-4.6L41.1,5.2
								c0.1-2.3-1.7-4.2-3.9-4.4L-3.2,0.6c-0.1,0-0.1,0-0.2,0c-1,0.1-2,0.5-2.7,1.3s-1.1,1.9-1.1,3l-0.7,95.5
								C-8,102.6-6.5,104.5-4.4,104.9z"/>
							<path id="Trazado_11338" class="st3" d="M-5.8,5.4l-0.7,95.1l46.3-0.3L39.7,5.4H-5.8z"/>
						</g>
					</g>
				</g>
				<g id="Grupo_1183" transform="translate(5.576 5.449)">
					<g id="Grupo_1182">
						<path id="Trazado_11339" class="st4" d="M4.9,0l11,14.9l0,0c-0.1,2.9,6.2,2.9,6.3,0l0,0L11.4,0H4.9z"/>
						<path id="Trazado_11340" class="st5" d="M11.4,0l10.8,14.9l0,0c-0.1,2.9,6.1,2.9,6.3,0l0,0L17.9,0H11.4z"/>
						<path id="Trazado_11341" class="st5" d="M-1.5,0L9.6,14.9l0,0l0,0c-0.1,2.7,6.2,3.1,6.4,0l0,0L5,0H-1.5z"/>
						<path id="Trazado_11342" class="st4" d="M-8.5,0L3,14.9l0,0c-0.1,3.8,6.4,3.4,6.5,0l0,0l0,0L-1.6,0H-8.5z"/>
						<path id="Trazado_11343" class="st4" d="M37.4,0h-6.5l10.4,14.9l0,0c-0.2,2.9,6.2,2.9,6.6,0l0,0L37.4,0z"/>
						<path id="Trazado_11344" class="st4" d="M17.9,0l10.7,14.9l0,0c-0.2,2.9,6.1,2.9,6.3,0l0,0L24.4,0H17.9z"/>
						<path id="Trazado_11345" class="st5" d="M24.4,0L35,14.9l0,0c-0.2,2.9,6.1,2.9,6.3,0l0,0L30.9,0H24.4z"/>
					</g>
					<path id="Trazado_11346" class="st6" d="M9.6,15c-0.2,3.3-6.6,3.8-6.5,0"/>
					<path id="Trazado_11347" class="st7" d="M16.1,15c-0.2,3.3-6.6,3.8-6.5,0"/>
					<path id="Trazado_11348" class="st6" d="M15.9,14.9h6.3C22.1,17.9,15.8,17.9,15.9,14.9z"/>
					<path id="Trazado_11349" class="st7" d="M22.3,14.9h6.3C28.4,17.9,22.1,17.9,22.3,14.9z"/>
					<path id="Trazado_11350" class="st6" d="M28.6,14.9h6.3C34.7,17.9,28.5,17.9,28.6,14.9z"/>
					<path id="Trazado_11351" class="st7" d="M35,15h6.3C41,17.9,34.8,17.9,35,15z"/>
					<path id="Trazado_11352" class="st6" d="M47.9,15c-0.3,2.9-6.8,2.9-6.6,0H47.9z"/>
				</g>
				<g id="Grupo_1187" transform="translate(9.84 26.425)">
					<g id="Grupo_1185">
						<path id="Trazado_11353" class="st8" d="M26.8,4.6L-6.3,4.4c-1.2,0-2.2-1-2.2-2.2S-7.5,0-6.3,0l0,0l33.1,0.2
							c1.2,0,2.1,1,2.1,2.2S28,4.6,26.8,4.6L26.8,4.6z M-6.3,0.1c-1.1,0-2,0.9-2,2l0,0c0,1.1,0.9,2,2,2.1l33.1,0.2c1.1,0,2-0.9,2-2
							l0,0c0-1.1-0.9-2-2-2.1L-6.3,0.1z"/>
						<path id="Trazado_11354" class="st9" d="M26.8,0.3h-3.4v4.2h3.4c1.1,0,2.1-0.9,2.1-2.1l0,0C28.9,1.3,27.9,0.3,26.8,0.3z"/>
						<g id="Grupo_1184" transform="translate(32.931 0.821)">
							<path id="Trazado_11355" class="st3" d="M-7.4,2.2c-0.3,0-0.6-0.1-0.8-0.3c-0.4-0.4-0.4-1.1,0-1.6C-8,0.1-7.7,0-7.4,0
								c0.3,0,0.6,0.1,0.8,0.3l0,0c0.4,0.4,0.4,1.1,0,1.6C-6.9,2.1-7.1,2.2-7.4,2.2z M-7.4,0.3c-0.2,0-0.4,0.1-0.6,0.2
								c-0.3,0.3-0.3,0.8,0,1.2c0.2,0.2,0.4,0.2,0.6,0.2S-7,1.8-6.8,1.7c0.3-0.3,0.3-0.8,0-1.2C-7,0.4-7.2,0.3-7.4,0.3z"/>
							<path id="Trazado_11356" class="st3" d="M-6,2.7l-0.8-0.8l0.2-0.2l0.8,0.8L-6,2.7z"/>
							<path id="Trazado_11357" class="st3" d="M-5.7,2.9L-5.7,2.9C-5.8,3-5.9,3-6,2.9l0,0l-0.7-0.7l0.3-0.3l0.7,0.7
								C-5.6,2.7-5.6,2.8-5.7,2.9z"/>
						</g>
					</g>
					<path id="Trazado_11358" class="st10" d="M29.1,48.7l-37.4-0.1V10.3l37.4,0.2V48.7z"/>
					<path id="Trazado_11359" class="st9" d="M27.4,71.9H-6.7c-0.9,0-1.6-0.7-1.6-1.6v-2.9c0-0.9,0.7-1.6,1.6-1.6l0,0h34.1
						c0.9,0,1.6,0.7,1.6,1.6v2.9C29.1,71.2,28.3,71.9,27.4,71.9L27.4,71.9z"/>
					<rect id="Rectángulo_1973" x="-8.3" y="52.1" class="st10" width="37.4" height="1.4"/>
					<rect id="Rectángulo_1974" x="-8.3" y="54.9" class="st11" width="20" height="1.4"/>
					<rect id="Rectángulo_1975" x="-8.3" y="57.8" class="st11" width="20" height="1.4"/>
					<g id="Grupo_1186" transform="translate(4.647 20.147)">
						<path id="Trazado_11360" class="st12" d="M1.4,0.1C3.5,0.6,5.8,0.6,7.9,0C10.4,3,6,4.5,3.3,3.8S1.4,0.1,1.4,0.1z"/>
						<path id="Trazado_11361" class="st13" d="M7.9,0C7.7,0.8,7.2,1.6,6.5,2C4.6,3.1,2.2,1.9,1.4,0.1C0.2,0.2-1.1,0.5-2.2,0.9v21
							h14.5V1C10.9,0.5,9.4,0.1,7.9,0z"/>
						<path id="Trazado_11362" class="st13" d="M-2.2,0.9l-6.3,4.9l4.1,5.5l6.1-4.6L-2.2,0.9z"/>
						<path id="Trazado_11363" class="st13" d="M12.3,1l6.3,5l-4.1,5.5L8.3,6.7L12.3,1z"/>
					</g>
				</g>
				<path id="Trazado_11364" class="st14" d="M9.3,87l0.5,1l1.1,0.2L10.1,89l0.2,1.1l-1-0.5l-1,0.5L8.5,89l-0.8-0.8L8.8,88L9.3,87z"
					/>
				<path id="Trazado_11365" class="st14" d="M14.6,87l0.5,1l1.1,0.2L15.5,89l0.2,1.1l-1-0.5l-1,0.5l0.2-1.1L13,88.2l1.1-0.2
					L14.6,87z"/>
				<path id="Trazado_11366" class="st14" d="M20,87l0.5,1l1.1,0.2L20.8,89l0.2,1.1l-1-0.5l-1,0.5l0.2-1.1l-0.8-0.8l1.1-0.2L20,87z"
					/>
				<path id="Trazado_11367" class="st14" d="M25.3,87l0.5,1l1.1,0.2L26.1,89l0.2,1.1l-1-0.5l-1,0.5l0.2-1.1l-0.8-0.8l1.1-0.2
					L25.3,87z"/>
				<path id="Trazado_11368" class="st15" d="M30.6,87l0.5,1l1.1,0.2L31.4,89l0.2,1.1l-1-0.5l-1,0.5l0.2-1.1L29,88.2l1.1-0.2
					L30.6,87z"/>
			</g>
			<g id="Grupo_1253" transform="translate(-21851.018 -20005.637)">
				<g id="Grupo_1198" transform="translate(0 24.79)">
					<g id="Grupo_1191" transform="translate(28.059 20.005)">
						<g id="Grupo_1190">
							<g id="Grupo_1189">
								<path id="Trazado_11369" class="st16" d="M-8.5,0l0.7,4l4.6,24.7h0.7L-5.8,4l-0.5-4H-8.5z"/>
							</g>
						</g>
						<path id="Trazado_11370" class="st17" d="M-6.3,0h-2.2l0.7,4h2L-6.3,0z"/>
					</g>
					<g id="Grupo_1194" transform="translate(13.708 20.005)">
						<g id="Grupo_1193">
							<g id="Grupo_1192">
								<path id="Trazado_11371" class="st16" d="M-8.5,28.7h0.7L-3.2,4l0.7-4h-2.2l-0.5,4L-8.5,28.7z"/>
							</g>
						</g>
						<path id="Trazado_11372" class="st17" d="M-4.7,0l-0.5,4h2l0.7-4H-4.7z"/>
					</g>
					<g id="Grupo_1197" transform="translate(0 20.005)">
						<g id="Grupo_1196">
							<g id="Grupo_1195">
								<path id="Trazado_11373" class="st16" d="M-8.5,28.7h0.7L-3.2,4l0.7-4h-2.2l-0.5,4L-8.5,28.7z"/>
							</g>
						</g>
						<path id="Trazado_11374" class="st17" d="M-5.2,4h2l0.7-4h-2.2L-5.2,4z"/>
					</g>
					<path id="Trazado_11375" class="st16" d="M-7.3,21.9h33.5v-3.5H13.6L9.4,0H-6.1L-7.3,21.9z"/>
					<path id="Trazado_11376" class="st17" d="M-7.3,21.9h1.8L-4.3,0H-6L-7.3,21.9z"/>
				</g>
				<g id="Grupo_1252" transform="translate(0 0)">
					<g id="Grupo_1218" transform="translate(5.251 27.714)">
						<g id="Grupo_1207" transform="translate(1.756 0.194)">
							<g id="Grupo_1204" transform="translate(7.575 28.144)">
								<g id="Grupo_1199" transform="translate(0.17)">
									<path id="Trazado_11377" class="st18" d="M9.9,20.3C9.3,20.4-8,16.4-8.5,15.8c-0.1,0,0.5-3.3,0.5-3.3C-7.7,11.1-3,0-3,0
										L8.3,2.8L3.5,13.1c0,0,2.1,1.5,4,2.8l0,0c0.8,0.6,1.6,1.2,2.3,1.9C10.4,18.5,10.6,20.3,9.9,20.3z"/>
									<path id="Trazado_11378" class="st19" d="M-8.5,15.9c0.6,0.5,17.8,4.6,18.4,4.5s0.5-1.9-0.1-2.5c-0.7-0.7-1.5-1.3-2.3-1.9
										l0,0c-1.8-1.4-4-2.8-4-2.8l1.1-2.3L-6.3,8.1C-7.2,10.2-7.9,12-8,12.5C-8,12.5-8.6,15.8-8.5,15.9z"/>
								</g>
								<g id="Grupo_1203" transform="translate(0 9.448)">
									<path id="Trazado_11379" class="st14" d="M10.2,10.9C9.5,11-7.9,7.1-8.4,6.5c-0.2-0.2,0.2-2.8,0.8-5.9V0.5L3.6,3v0.2
										c0,0,6,4.5,6.5,5.2S10.8,10.9,10.2,10.9z"/>
									<g id="Grupo_1202" transform="translate(0.924)">
										<g id="Grupo_1201">
											<path id="Trazado_11380" class="st20" d="M9.2,10.2C6.3,9.5-5.5,6.8-8.5,6.3l0,0C-5.6,7.1,6.2,9.7,9.2,10.2
												C9.2,10.3,9.3,10.2,9.2,10.2z"/>
											<path id="Trazado_11381" class="st20" d="M3.9,3.3c-1.1-0.5-2.5-0.5-3.6,0v0.1c1.2-0.1,2.4-0.1,3.5,0.1
												C3.9,3.4,4,3.4,3.9,3.3C4,3.3,4,3.3,3.9,3.3z"/>
											<path id="Trazado_11382" class="st20" d="M4.7,4C3.5,3.4,2.2,3.4,1,4v0.1C2.3,4,3.4,4,4.7,4C4.7,4.1,4.7,4.1,4.7,4L4.7,4
												z"/>
											<path id="Trazado_11383" class="st20" d="M5.4,4.7c-1.1-0.5-2.5-0.5-3.6,0v0.1c1.2-0.2,2.4-0.1,3.5,0
												C5.4,4.8,5.4,4.8,5.4,4.7L5.4,4.7z"/>
											<g id="Grupo_1200" transform="translate(6.731)">
												<path id="Trazado_11384" class="st20" d="M-0.7,1.1C-1,0.4-2,0.5-2.5,0.8c-1,0.5-1.8,1.3-2.4,2.2l0,0l0,0
													c0,0.1,0,0.2,0.1,0.2l0,0c1.1,0,2.1-0.3,3.1-0.6C-1.1,2.4-0.4,1.8-0.7,1.1z M-3.2,2.7c-0.5,0.1-1,0.1-1.5,0.2
													C-4.3,2.5-3.8,2-3.3,1.6c0.2-0.2,0.5-0.4,0.8-0.5c0.4-0.2,1.9-0.6,1.4,0.6C-1.4,2.5-2.6,2.6-3.2,2.7L-3.2,2.7z"/>
												<path id="Trazado_11385" class="st20" d="M-7.8,2.1c1,0.5,2,0.9,3,1.1c0.1,0,0.2-0.1,0.2-0.2l0,0l0,0
													C-5,2-5.7,1.1-6.5,0.4C-7,0-7.9-0.3-8.3,0.4C-8.8,1-8.3,1.7-7.8,2.1z M-8.1,1.1c-0.3-1.3,1.2-0.7,1.5-0.4
													s0.5,0.5,0.7,0.7c0.4,0.5,0.8,1,1.2,1.5c-0.5-0.2-1-0.3-1.4-0.5C-6.8,2.2-7.9,1.8-8.1,1.1L-8.1,1.1z"/>
											</g>
										</g>
									</g>
									<path id="Trazado_11386" class="st21" d="M5.1,9.9c2.7,0.6,4.8,1,5.1,1c0.7-0.1,0.5-1.9,0-2.6C9.4,7.6,8.6,7,7.8,6.4
										L5.1,9.9z"/>
								</g>
							</g>
							<g id="Grupo_1206">
								<path id="Trazado_11387" class="st0" d="M12,40.9L0,38c0,0,10-22.9,9.1-24C8.7,13.4-2.4,13.2-6,10.2
									c-4.6-3.9-1.5-9.9-1.5-9.9L5,0c0,0-0.2,2.6,0.3,3c0.3,0.3,15.1,1.5,16.8,6.5C24.1,15.6,12,40.9,12,40.9z"/>
								<g id="Grupo_1205" transform="translate(9.737 36.219)">
									<path id="Trazado_11388" class="st20" d="M2.3,2.8C2,2.6-1.1,1.7-1.8,1.5c-1.4-0.4-2.8-0.7-4.2-1C-6.8,0.3-8.4,0-8.5,0
										c0,0-0.1,0.1,0,0.1c1.4,0.5,2.8,0.8,4.1,1.2S1.8,2.8,2.3,2.8C2.3,2.9,2.3,2.8,2.3,2.8z"/>
								</g>
								<path id="Trazado_11389" class="st20" d="M11.3,13c-0.3-0.2-0.6-0.3-0.9-0.3c-1.8-0.3-3.6-0.6-5.4-0.9
									c-1.7-0.3-3.4-0.5-5-0.9c-1.4-0.2-2.8-0.7-4-1.4s-2-1.9-2.4-3.2C-6.9,5-7,3.6-6.8,2.2c0-0.3,0.1-0.7,0.2-1l0,0
									c-0.5,2.5-0.5,5.5,1.4,7.5c1,1,2.2,1.6,3.5,1.9c1.5,0.4,3,0.7,4.5,0.9c1.8,0.3,3.6,0.6,5.4,0.9c0.9,0.1,1.7,0.3,2.6,0.4
									C11,12.8,11.1,12.9,11.3,13c0.1,0.2,0.2,0.4,0.1,0.6c-0.1,0.4-0.2,0.8-0.3,1.3c-1,3.3-8.2,20.4-8.4,20.8c0,0,0,0.1,0.1,0
									c1.6-2.9,7.1-16.4,8.2-19.5c0.3-0.8,0.5-1.6,0.7-2.5C11.6,13.5,11.5,13.2,11.3,13z"/>
							</g>
						</g>
						<g id="Grupo_1217">
							<g id="Grupo_1213" transform="translate(26.196 31.913)">
								<g id="Grupo_1208">
									<path id="Trazado_11390" class="st18" d="M11,17.5c-0.6,0.2-17.9,0-18.5-0.5c-0.7-0.7-1-17-1-17H2.6l0.7,11.7
										c0,0,2.4,1,4.5,2l0,0c0.9,0.4,1.8,0.9,2.7,1.4C11.1,15.6,11.6,17.3,11,17.5z"/>
									<path id="Trazado_11391" class="st19" d="M-8.2,9.7c0.2,3.7,0.4,7,0.7,7.3c0.7,0.4,17.9,0.7,18.5,0.5s0.1-1.9-0.6-2.5
										c-0.9-0.5-1.7-1-2.7-1.4l0,0c-2.1-1-4.5-2-4.5-2l-0.1-2L-8.2,9.7z"/>
								</g>
								<g id="Grupo_1212" transform="translate(0.305 8.25)">
									<path id="Trazado_11392" class="st14" d="M11.1,9.3C10.5,9.5-7.3,9.4-8,9c-0.3-0.2-0.4-2.8-0.5-5.9V3L3,2.9v0.2
										c0,0,6.8,3.1,7.5,3.6S11.7,9.1,11.1,9.3z"/>
									<g id="Grupo_1211" transform="translate(1.278)">
										<g id="Grupo_1210">
											<path id="Trazado_11393" class="st20" d="M9.6,8.6c-3-0.1-15.1-0.2-18.1,0l0,0C-5.5,8.7,6.6,8.7,9.6,8.6
												C9.7,8.6,9.7,8.6,9.6,8.6z"/>
											<path id="Trazado_11394" class="st20" d="M3,2.9c-1.2-0.3-2.5,0-3.5,0.8c0,0,0,0.1,0.1,0.1c1-0.4,2.2-0.6,3.4-0.7
												C3,3.1,3.1,3.1,3,2.9C3.1,3,3,2.9,3,2.9z"/>
											<path id="Trazado_11395" class="st20" d="M3.8,3.5c-1.2-0.3-2.5,0-3.5,0.8c0,0,0,0.1,0.1,0.1C1.5,4,2.7,3.7,3.8,3.5
												C3.9,3.6,3.9,3.6,3.8,3.5C3.9,3.5,3.9,3.5,3.8,3.5z"/>
											<path id="Trazado_11396" class="st20" d="M4.7,4C3.5,3.7,2.2,4,1.2,4.8c0,0,0,0.1,0.1,0.1c1.1-0.4,2.3-0.6,3.5-0.7
												C4.7,4.1,4.8,4.1,4.7,4C4.8,4,4.7,4,4.7,4z"/>
											<g id="Grupo_1209" transform="translate(5.386)">
												<path id="Trazado_11397" class="st20" d="M-0.8,0.4c-0.5-0.7-1.4-0.4-1.9,0c-0.8,0.7-1.5,1.7-1.8,2.7l0,0l0,0
													c0,0.1,0.1,0.1,0.1,0.2l0,0c1-0.3,2-0.7,2.9-1.3C-0.9,1.7-0.4,1-0.8,0.4z M-2.9,2.5c-0.5,0.2-1,0.3-1.4,0.6
													C-4,2.5-3.6,2-3.2,1.5C-3,1.2-2.8,1-2.6,0.8c0.4-0.3,1.7-1,1.5,0.3C-1.2,1.8-2.3,2.3-2.9,2.5L-2.9,2.5z"/>
												<path id="Trazado_11398" class="st20" d="M-7.5,2.8c1,0.3,2.1,0.5,3.1,0.5c0.1,0,0.1-0.1,0.1-0.1l0,0l0,0l0,0
													C-4.9,2.3-5.8,1.5-6.7,1c-0.6-0.3-1.5-0.3-1.8,0.4C-8.7,2-8.1,2.6-7.5,2.8z M-8,2c-0.5-1.2,1-0.9,1.4-0.7
													c0.3,0.1,0.5,0.3,0.8,0.5c0.5,0.4,1,0.8,1.5,1.2c-0.5-0.1-1-0.1-1.5-0.2C-6.5,2.8-7.7,2.6-8,2z"/>
											</g>
										</g>
									</g>
								</g>
							</g>
							<g id="Grupo_1216">
								<path id="Trazado_11399" class="st0" d="M30.1,43.2H17.6c0,0,0.2-22.6-0.8-23.8c-1.3-1.7-19.6-1.6-23.5-7.1
									C-10.3,7.4-7.3,0.5-7.3,0.5L6.5,0C6.2,1.5,5.8,3,5.3,4.4c0,0,16.7,3.1,21.4,8.2C29.8,16.1,30.1,43.2,30.1,43.2z"/>
								<g id="Grupo_1215" transform="translate(1.51)">
									<path id="Trazado_11400" class="st20" d="M6.2,3.5C5.8,3.6,5.4,3.7,5,3.8C4.6,4,4.2,4.2,3.8,4.3C3.1,4.7,2.3,5.1,1.6,5.6
										l0,0C2.4,5.2,3.2,4.9,4,4.5L5.1,4C5.5,3.9,5.9,3.7,6.2,3.5C6.3,3.5,6.2,3.5,6.2,3.5z"/>
									<path id="Trazado_11401" class="st20" d="M5.3,0C5.2,0.7,5,1.3,4.9,1.9C4.8,2.2,4.7,2.5,4.6,2.8C4.5,3,4.4,3.3,4.1,3.4
										c-0.3,0-0.4-0.3-0.4-0.5c0-0.3,0.1-0.6,0.2-0.9c0-0.3,0.1-0.6,0.2-1c0-0.2,0.1-0.3,0.1-0.5c0,0,0-0.4,0.1-0.4l0,0l0,0l0,0
										l0,0l0,0c-0.1,0-0.1,0.1-0.1,0.2C4.1,0.4,4,0.5,4,0.7C3.9,1,3.8,1.3,3.7,1.6S3.6,2.2,3.5,2.5S3.4,3,3.4,3.2
										c0.1,0.2,0.3,0.4,0.5,0.4c0,0,0,0,0,0.1s0,0.1-0.1,0.2C3.7,4,3.8,4,3.7,4.1v0.1v0.1v0.1h0.1c0,0,0-0.1,0.1-0.1V4.2
										C4,4.1,4,4,4,3.9s0-0.1,0-0.2V3.6c0.1,0,0.3-0.1,0.4-0.1c0.2-0.2,0.3-0.4,0.4-0.6S5,2.4,5.1,2.1c0.2-0.7,0.3-1.3,0.4-2
										C5.5,0,5.5,0,5.3,0C5.4,0,5.4,0,5.3,0z"/>
									<path id="Trazado_11402" class="st20" d="M-2.9,1.6C-3,1.9-3,2.2-3.1,2.5s-0.2,0.6-0.3,0.9c0,0.3-0.1,0.6-0.3,0.8
										s-0.4,0.4-0.6,0.6c-0.4,0.4-0.9,0.6-1.5,0.8c-0.3,0.1-0.5,0.2-0.8,0.2C-6.8,6-6.9,6-7.1,6c-0.1,0-0.2,0-0.4,0.1v0.1l0,0
										c0.2,0.1,0.4,0.1,0.7,0c0.2,0,0.5-0.1,0.7-0.1c0.5-0.1,1-0.3,1.4-0.5C-4.3,5.3-3.9,5-3.6,4.7C-3.3,4.3-3.1,3.8-3,3.4
										C-2.9,2.8-2.8,2.2-2.9,1.6C-2.8,1.6-2.9,1.6-2.9,1.6L-2.9,1.6z"/>
									<path id="Trazado_11403" class="st20" d="M17.9,27.5c-0.1-2-0.3-3.9-0.5-5.9c-0.1-0.5-0.1-1-0.2-1.4c0-0.4-0.1-0.7-0.2-1.1
										c-0.3-0.7-0.9-1.2-1.6-1.3c-0.9-0.2-1.8-0.4-2.7-0.5S10.9,17,10,16.9c-1.9-0.3-3.7-0.5-5.5-0.8c-1.8-0.3-3.7-0.7-5.4-1.2
										c-1.7-0.4-3.3-1.2-4.6-2.2c-2.8-2.4-2.9-6.5-2.6-10c0-0.5,0.1-1,0.2-1.4l0,0C-8.4,3.1-8.5,5.1-8.4,7
										c0.1,1.6,0.7,3.2,1.5,4.5c1,1.3,2.3,2.3,3.9,2.9c1.7,0.7,3.4,1.2,5.2,1.5c3.7,0.8,7.4,1.1,11.1,1.7
										c0.5,0.1,0.9,0.2,1.4,0.2c0.4,0.1,0.8,0.2,1.2,0.3c0.7,0.4,1.2,1.2,1.2,2c0.2,2,0.4,3.9,0.5,5.9c0.3,4,0.4,8,0.4,12
										c0,0.5,0,2.1,0,2.6h0.1C18.2,36.6,18.1,31.5,17.9,27.5z"/>
									<g id="Grupo_1214" transform="translate(25.404 41.113)">
										<path id="Trazado_11404" class="st20" d="M2.6,0.1c-2.8-0.2-11-0.1-11.1,0v0.1C-7,0.3,2.2,0.3,2.6,0.1
											C2.6,0.2,2.7,0.1,2.6,0.1z"/>
									</g>
								</g>
								<path id="Trazado_11405" class="st20" d="M5.3,4.4c2.6,0.3,5.1,0.8,7.6,1.5s4.9,1.6,7.3,2.6c1.3,0.6,2.6,1.3,3.9,2
									c0,0,0,0.1,0,0c-2.3-1.2-4.7-2.2-7.1-3.1s-4.9-1.6-7.4-2.1C8.2,5.1,6.7,4.9,5.3,4.6C5.2,4.6,5.2,4.4,5.3,4.4z"/>
								<path id="Trazado_11406" class="st20" d="M17.5,24.4c-0.1-1.4-0.2-2.7-0.5-4.1c-0.1-0.5-0.1-1.2-0.7-1.5
									c-2.1-0.5-4.2-0.8-6.3-1l0,0l0,0c0.1,0,5.1,1,5.8,1.1c0.3,0,0.5,0.2,0.7,0.4c0.1,0.3,0.2,0.6,0.2,0.9c0.4,2.6,0.7,5.3,0.7,8
									c0,0.7,0,1.5,0,2.2c0,0.8,0,1.5,0,2.3c0,0,0,0.1,0.1,0.1c0,0,0.1,0,0.1-0.1c0.1-0.7,0-1.4,0-2.1s0-1.4,0-2.1
									C17.7,27.2,17.6,25.8,17.5,24.4z"/>
							</g>
						</g>
					</g>
					<g id="Grupo_1251">
						<g id="Grupo_1226" transform="translate(15.537 5.978)">
							<g id="Grupo_1224" transform="translate(0.31)">
								<g id="Grupo_1219" transform="translate(11.976)">
									<path id="Trazado_11407" class="st22" d="M-5.4,0.3l-3.1,7.6C-8.6,8-8.6,8.2-8.4,8.3l0.1,0.1L-4.2,9c0.3,0,0.5-0.1,0.6-0.3
										L-0.5,1c0.1-0.1,0.1-0.3-0.1-0.4l-0.1-0.1l-4-0.5C-5,0-5.2,0.1-5.4,0.3z"/>
									<path id="Trazado_11408" class="st23" d="M-4.9,0.4L-8,8c-0.1,0.1,0,0.3,0.1,0.4l0.1,0.1L-3.7,9c0.3,0,0.5-0.1,0.6-0.3
										L0,1.1C0.1,1,0.1,0.8-0.1,0.7l-0.1-0.1L-4.3,0C-4.5,0.1-4.8,0.2-4.9,0.4z"/>
									<path id="Trazado_11409" class="st20" d="M-3.8,0.9c0,0.2-0.2,0.3-0.4,0.3S-4.5,1-4.5,0.8s0.2-0.3,0.4-0.3
										C-3.9,0.6-3.8,0.7-3.8,0.9L-3.8,0.9z"/>
								</g>
								<path id="Trazado_11410" class="st18" d="M-8.1,10.4c1.6,5.2,5.8,12.3,7.9,12.7c1,0.2,2.8,0.7,4.3-0.3
									c3.3-2.3,5.8-5.6,7.3-9.3c0.3-1-4.2-3.8-5-3.1c-1.9,1.6-4.4,5.1-4.7,5C0.6,15.1-3.2,10.9-5.8,8C-8.9,4.4-8.8,8.3-8.1,10.4z"
									/>
								<g id="Grupo_1223" transform="translate(11.44 1.749)">
									<path id="Trazado_11411" class="st18" d="M0.8,6.6C0.6,4.6,0.2,4.1,1,2.2C1.5,1,0.9,0.2-0.1,1c-1.4,1.4-2,3.3-1.8,5.2
										L0.8,6.6z"/>
									<g id="Grupo_1220" transform="translate(1.724)">
										<path id="Trazado_11412" class="st18" d="M-2.1,12.6c0.7-1.5,1.2-3.2,1.3-4.9c0-3.1-1.7-5.9-4.4-7.3
											c-0.9-0.6-2.7-0.7-1.5,0.8c0.9,1,1.7,1.4,2.1,2.1c0,0-2.2,0.1-2.8,1.1C-7.8,5.3-8.2,6.1-8.5,7C-8.3,7.1-8.2,7.2-8,7.3
											c-0.3,0.8-0.3,1.6,0,2.4L-2.1,12.6z"/>
									</g>
									<path id="Trazado_11413" class="st18" d="M0.7,6.2c-0.9-1-1.9-1.9-3-2.6c-1.5-0.8-4.5-1.9-5.1-0.9C-7.8,3.5-6.7,4-6.7,4
										S-8,3.8-8.3,4.6c-0.2,0.7,0.7,1.1,0.7,1.1s-0.8,0-0.9,0.8c-0.1,0.9,1.7,0.7,2.4,1.7C-5.9,8.4,0.7,6.2,0.7,6.2z"/>
									<g id="Grupo_1221" transform="translate(1.787 4.028)">
										<path id="Trazado_11414" class="st20" d="M-4.7,1.2C-5.8,0.4-7.1,0-8.5,0c0,0-0.1,0,0,0C-7.2,0.3-5.9,0.7-4.7,1.2
											L-4.7,1.2z"/>
									</g>
									<g id="Grupo_1222" transform="translate(0.876 5.693)">
										<path id="Trazado_11415" class="st20" d="M-4.7,1c-1.2-0.7-2.5-1-3.8-1c0,0-0.1,0,0,0C-7.2,0.2-5.9,0.5-4.7,1
											C-4.7,1-4.6,1-4.7,1z"/>
									</g>
								</g>
							</g>
							<g id="Grupo_1225" transform="translate(0 6.524)">
								<path id="Trazado_11416" class="st24" d="M11.4,9c0,0-5.1,7.2-7.5,7.8c-1.5,0.4-3.1,0.4-4.6-0.1c-0.3-0.1-0.6-0.3-0.8-0.6
									c-2.1-2-5.3-8.5-6.5-12c-0.9-2.7-0.4-4.9,1.4-3.9C-6,0.6-5.5,1-5,1.6c3,3.5,6.7,6.9,6.9,6.9s2.7-3,2.7-3L11.4,9z"/>
								<path id="Trazado_11417" class="st25" d="M11.4,9c0,0-5.1,7.2-7.5,7.8c-1.5,0.4-3.1,0.4-4.6-0.1c-0.3-0.1-0.6-0.3-0.8-0.6
									c-2.1-2-5.3-8.5-6.5-12c-0.9-2.7-0.4-4.9,1.4-3.9C-6,0.6-5.5,1-5,1.6c3,3.5,6.7,6.9,6.9,6.9s2.7-3,2.7-3L11.4,9z"/>
								<path id="Trazado_11418" class="st14" d="M10.2,10.3c-0.2-0.2-2.5-1.5-3-1.8S4.6,7,4,6.8l0,0l0,0c0.5,0.3,2.6,1.5,3.1,1.8
									S10,10.2,10.2,10.3C10.3,10.3,10.3,10.3,10.2,10.3z"/>
							</g>
						</g>
						<g id="Grupo_1227" transform="translate(4.737 11.471)">
							<path id="Trazado_11419" class="st14" d="M8.6,19.6c-0.4,0.4-17,3.3-17.1,3.2C-8.7,22.5-6.7,6.6-0.4,0.7c1.2-0.8,2.8-1,4-0.3
								C4.9,1.7,5.8,3.3,6.2,5C6.7,6.9,8.8,19.3,8.6,19.6z"/>
							<path id="Trazado_11420" class="st26" d="M-5.4,9.1L6.9,8.4c0-0.3-0.1-0.6-0.1-0.9L-5,8.2C-5.2,8.5-5.3,8.8-5.4,9.1z"/>
							<path id="Trazado_11421" class="st26" d="M-6,10.9l13.2-0.8c0-0.3-0.1-0.6-0.1-0.9L-5.7,10C-5.8,10.3-5.9,10.6-6,10.9z"/>
						</g>
						<g id="Grupo_1237" transform="translate(0 12.174)">
							<g id="Grupo_1229">
								<g id="Grupo_1228">
									<path id="Trazado_11422" class="st25" d="M3.2,0.4C-2.4,3.3-8.9,9.7-8.5,11.9c0.4,2.4,8.5-1.7,8.4-2C-0.1,9.6,1.6,7,4,3.3
										C6.5-0.5,4.6-0.3,3.2,0.4z"/>
								</g>
							</g>
							<g id="Grupo_1231">
								<g id="Grupo_1230">
									<path id="Trazado_11423" class="st26" d="M3.2,0.4C-2.4,3.3-8.9,9.7-8.5,11.9c0.4,2.4,8.5-1.7,8.4-2C-0.1,9.6,1.6,7,4,3.3
										C6.5-0.5,4.6-0.3,3.2,0.4z"/>
								</g>
							</g>
							<g id="Grupo_1236" transform="translate(0.001 9.381)">
								<g id="Grupo_1234" transform="translate(0 0.022)">
									<path id="Trazado_11424" class="st18" d="M-8.5,2.5c0.5,1.7,3,2.8,9,6.2c0.8,0.5,5.7-4.5,4.9-5.1C4.3,2.9-0.1,0.5-0.4,0.3
										C-3.3-0.8-8.8,1.3-8.5,2.5z"/>
									<g id="Grupo_1233" transform="translate(6.618 2.897)">
										<path id="Trazado_11425" class="st18" d="M-2.4,0c1.3,0.7,2.6,1.5,3.7,2.4c1.2,1.2,2,2.6,2.5,4.2c0.5,1.7,0.6,6.2-0.7,6.5
											c-1.2,0.2-1-4.4-1-4.4s0.6,4.7-0.9,4.7s-1-5.3-1-5.3s0.5,4.9-1,4.7c-1.1-0.2-1-5-1-5s0.4,4.2-0.8,4.1
											C-3.9,11.8-4,7.3-4,7.3c-2-0.4-3.7-1.8-4.6-3.7C-8.6,3.2-2.4,0-2.4,0z"/>
										<g id="Grupo_1232" transform="translate(6.678 6.999)">
											<path id="Trazado_11426" class="st20" d="M-4.7,0.1c0.1,0.6,0.2,1.1,0.2,1.7s0.1,1.1,0.1,1.7c0,0.7-0.1,1.5-0.2,2.2
												c0.1-1.3,0.1-2.6,0-3.9C-4.6,1.2-4.7,0.7-4.7,0.1L-4.7,0.1z"/>
											<path id="Trazado_11427" class="st20" d="M-6.7,0.2c0.1,0.7,0.2,1.4,0.3,2.1s0,1.4,0,2.1c0,0.1,0,0,0,0
												c0-0.7-0.1-1.4-0.2-2.1S-6.7,0.9-6.7,0.2L-6.7,0.2z"/>
											<path id="Trazado_11428" class="st20" d="M-8.5,0c0.2,1.1,0.2,2.2,0.1,3.3c0,0.1,0,0,0,0C-8.4,2.2-8.4,1.3-8.5,0L-8.5,0z
												"/>
										</g>
									</g>
								</g>
								<g id="Grupo_1235" transform="translate(0.013 0.01)">
									<path id="Trazado_11429" class="st25" d="M5.5,3.1c0,0-6.9,5.3-7,5.2s-6.9-4-7-5.8S-3-0.7-0.4,0.3S5.5,3.1,5.5,3.1z"/>
									<path id="Trazado_11430" class="st26" d="M5.5,3.1c0,0-6.9,5.3-7,5.2s-6.9-4-7-5.8S-3-0.7-0.4,0.3S5.5,3.1,5.5,3.1z"/>
									<path id="Trazado_11431" class="st14" d="M3.1,2.3C2.9,2.5,0.7,4.2,0.2,4.6s-2.4,2-2.8,2.4l0,0l0,0l0,0
										c0.5-0.4,2.5-2,3-2.3S3,2.5,3.1,2.3C3.2,2.3,3.2,2.3,3.1,2.3z"/>
								</g>
								<path id="Trazado_11432" class="st14" d="M-3.5,0.1C-2.3-0.1-1,0,0.1,0.5l0,0C-1.1,0.2-2.3,0-3.5,0.1L-3.5,0.1z"/>
							</g>
						</g>
						<g id="Grupo_1250" transform="translate(13.031)">
							<path id="Trazado_11433" class="st22" d="M-4,12.2c0.7,0.6,1,2.7-0.4,3.1s-3.2-1.8-3.4-3S-5.6,10.8-4,12.2z"/>
							<g id="Grupo_1249">
								<g id="Grupo_1239" transform="translate(0.861 8.244)">
									<g id="Grupo_1238">
										<path id="Trazado_11434" class="st18" d="M-5.3,6.5c-1,0.2-2.6-1.3-3.2-2.5c0-0.1,0.4-3.3,0.4-4C-8.1-0.1-4,1.1-4,1.1
											c-0.2,0.8-0.4,1.7-0.4,2.5C-4.5,3.7-4.3,6.3-5.3,6.5z"/>
									</g>
									<path id="Trazado_11435" class="st20" d="M-8,0c0.2,1.1,0.9,3.8,3.1,3.9c0.1,0,0.3,0,0.4,0c0-0.2,0-0.3,0-0.3
										c0-0.9,0.2-1.7,0.4-2.5l0,0c0,0,0,0-0.1,0l0,0h-0.1l0,0h-0.1h-0.1L-4.7,1c0,0,0,0-0.1,0h-0.1c-0.2-0.1-0.4-0.1-0.6-0.2
										c-0.1,0-0.1,0-0.2-0.1c-0.1,0-0.2-0.1-0.3-0.1l-0.3-0.1l0,0c-0.2,0-0.3-0.1-0.5-0.1H-7l-0.3-0.1l-0.2-0.1L-7.8,0H-8L-8,0z"
										/>
								</g>
								<g id="Grupo_1248">
									<g id="Grupo_1240" transform="translate(0.95 1.309)">
										<path id="Trazado_11436" class="st18" d="M-8.1,1.9c-0.6,1.4-0.4,5.7,0.4,6.7c1.3,1.6,3.7,2,5.1,0.4c1.3-1.6,1-7.1,0-8.2
											c-1.5-1.3-3.8-1.1-5.1,0.4C-7.9,1.5-8,1.7-8.1,1.9z"/>
									</g>
									<g id="Grupo_1246" transform="translate(4.226 4.93)">
										<g id="Grupo_1241" transform="translate(0.279 1.082)">
											<path id="Trazado_11437" class="st20" d="M-7.9,0.3L-7.9,0.3c0,0.3,0,0.6-0.3,0.8l0,0C-7.8,1-7.8,0.6-7.9,0.3z"/>
											<path id="Trazado_11438" class="st20" d="M-8.1,0c-0.5,0-0.5,0.9,0,0.9C-7.7,0.9-7.8,0-8.1,0z"/>
										</g>
										<g id="Grupo_1242" transform="translate(2.477 1.114)">
											<path id="Trazado_11439" class="st20" d="M-8.5,0.3L-8.5,0.3c0,0.3,0.1,0.6,0.3,0.7l0,0C-8.5,1-8.5,0.6-8.5,0.3z"/>
											<path id="Trazado_11440" class="st20" d="M-8.2,0c0.5,0,0.5,0.9,0.1,0.9C-8.6,1-8.6,0-8.2,0z"/>
										</g>
										<path id="Trazado_11441" class="st20" d="M-8.2,0.7c0.1,0,0.2-0.1,0.4-0.1c0.1,0,0.3-0.1,0.3-0.2s0-0.2,0-0.2
											C-7.7,0-7.9,0-8.1,0s-0.3,0.2-0.4,0.3c-0.1,0.1,0,0.2,0.1,0.3C-8.3,0.7-8.3,0.7-8.2,0.7z"/>
										<path id="Trazado_11442" class="st20" d="M-5.4,1c-0.1,0-0.2-0.1-0.4-0.1c-0.1,0-0.3-0.1-0.4-0.2s0-0.2,0-0.2
											C-6,0.3-5.8,0.3-5.6,0.4c0.2,0,0.3,0.1,0.4,0.3c0.1,0.1,0,0.2-0.1,0.3C-5.3,1-5.3,1-5.4,1z"/>
										<path id="Trazado_11443" class="st20" d="M-7.9,4c0.1,0.1,0.1,0.2,0.2,0.2s0.2,0,0.3-0.1l0,0l0,0
											c-0.1,0.1-0.2,0.2-0.4,0.2C-7.9,4.3-7.9,4.2-7.9,4C-8,4-8,4-7.9,4z"/>
										<g id="Grupo_1244" transform="translate(0.856 0.054)">
											<g id="Grupo_1243">
												<path id="Trazado_11444" class="st20" d="M-8.5,3.1c0.1,0.2,0.4,0.4,0.7,0.4c0.1,0,0.2,0,0.4,0c0,0,0,0,0.1,0
													c0,0,0,0,0.1,0c0,0,0.1,0,0.1-0.1l0,0l0,0l0,0c0-0.2,0-0.6,0-0.6C-7,2.8-6.6,3-6.6,2.9c0-1-0.2-2-0.4-3l0,0l0,0
													c-0.2,1.1-0.1,2,0,2.9c-0.1-0.1-0.3-0.1-0.5-0.1c0,0,0.1,0.7,0,0.8l0,0C-7.8,3.5-8.2,3.3-8.5,3.1L-8.5,3.1z"/>
											</g>
										</g>
										<g id="Grupo_1245" transform="translate(0.741 3.174)">
											<path id="Trazado_11445" class="st20" d="M-7.5,0.3C-7.6,0.5-7.8,0.6-8,0.7c-0.1,0-0.2,0-0.3,0c-0.2-0.1-0.2-0.3-0.2-0.5
												c0-0.1,0.1-0.2,0.1-0.3C-8.1,0.2-7.8,0.3-7.5,0.3z"/>
											<path id="Trazado_11446" class="st27" d="M-8,0.7c-0.1,0-0.2,0-0.3,0c-0.2-0.1-0.2-0.3-0.2-0.5C-8.2,0.3-8,0.5-8,0.7z"/>
										</g>
									</g>
									<path id="Trazado_11447" class="st28" d="M-1.1,3.9c-1.5,0.9-3.5-0.7-3.5-0.7c-0.3,0.6-1,1-1.7,0.9c0,0-0.4,2.5-1,2.4
										c-1,0-1.2-3.4-0.8-4.1C-7.8,2-7.4,1.7-6.9,1.6c0.1-0.4,0.4-0.7,0.7-1c0.7-0.5,3,0.3,3,0.3C-3,0.8-2.8,0.5-2.5,0.3
										s0.7-0.2,0.9,0.1l0,0C-1.8,0.6-1.8,0.8-1.9,1C-2,1.7-1.4,1.8-1.4,1.1c0-0.2-0.1-0.5-0.2-0.7C-1.3,0-0.8-0.1-0.5,0.1
										C0,0.6,0.1,3.1-1.1,3.9z"/>
									<g id="Grupo_1247" transform="translate(0 5.5)">
										<path id="Trazado_11448" class="st18" d="M-6.7,1.2c0,0-0.8-1.5-1.4-1.2s-0.2,2.3,0.5,2.7c0.3,0.2,0.8,0.1,1-0.3l0,0
											L-6.7,1.2z"/>
										<path id="Trazado_11449" class="st20" d="M-8,0.6C-8,0.6-8.1,0.6-8,0.6c0.4,0.3,0.7,0.8,0.8,1.3c-0.1-0.2-0.3-0.3-0.5-0.2
											c0,0,0,0-0.1,0l0,0c0.2,0,0.4,0,0.5,0.2C-7.2,2-7.2,2.2-7.1,2.3H-7l0,0C-6.9,1.6-7.3,0.9-8,0.6z"/>
									</g>
								</g>
							</g>
						</g>
					</g>
				</g>
			</g>
			<g id="Grupo_6850" transform="translate(-21660.666 -20045.84)">
				<g id="Grupo_1163" transform="translate(13.463 0)">
					<g id="Grupo_1145" transform="translate(0.9 15.448)">
						<rect id="Rectángulo_1895" x="-8.5" y="0" class="st0" width="64" height="75.1"/>
						<rect id="Rectángulo_1896" x="-5.2" y="2.9" class="st1" width="57.3" height="72.2"/>
					</g>
					<g id="Grupo_1153" transform="translate(39.82 26.564)">
						<g id="Grupo_1146" transform="translate(0 8.361)">
							<rect id="Rectángulo_1897" x="-6.1" y="0" class="st9" width="6.3" height="5.7"/>
							<rect id="Rectángulo_1898" x="0.2" y="1.5" class="st9" width="4.6" height="4.3"/>
							<rect id="Rectángulo_1899" x="9.2" y="0.2" class="st9" width="4.1" height="5.5"/>
							<rect id="Rectángulo_1900" x="-8.5" y="5.7" class="st29" width="21.8" height="1"/>
						</g>
						<g id="Grupo_1147" transform="translate(0 26.785)">
							<rect id="Rectángulo_1901" x="-6.1" y="0" class="st9" width="6.3" height="5.7"/>
							<rect id="Rectángulo_1902" x="0.2" y="1.5" class="st9" width="4.6" height="4.3"/>
							<rect id="Rectángulo_1903" x="9.2" y="0.2" class="st9" width="4.1" height="5.5"/>
							<rect id="Rectángulo_1904" x="-8.5" y="5.7" class="st29" width="21.8" height="1"/>
						</g>
						<g id="Grupo_1148" transform="translate(0 45.21)">
							<rect id="Rectángulo_1905" x="-6.1" y="0" class="st9" width="6.3" height="5.7"/>
							<rect id="Rectángulo_1906" x="0.2" y="1.5" class="st9" width="4.6" height="4.3"/>
							<rect id="Rectángulo_1907" x="9.2" y="0.2" class="st9" width="4.1" height="5.5"/>
							<rect id="Rectángulo_1908" x="-8.5" y="5.7" class="st29" width="21.8" height="1"/>
						</g>
						<g id="Grupo_1149" transform="translate(0 18.166)">
							<rect id="Rectángulo_1909" x="-5.9" y="2.7" class="st9" width="3.1" height="2.5"/>
							<rect id="Rectángulo_1910" x="-1.6" y="0.6" class="st9" width="4.4" height="4.6"/>
							<rect id="Rectángulo_1911" x="4.8" y="1.6" class="st9" width="3" height="3.6"/>
							<rect id="Rectángulo_1912" x="9.2" y="0" class="st9" width="4.1" height="5.2"/>
							<rect id="Rectángulo_1913" x="-8.5" y="5.2" class="st29" width="21.8" height="1"/>
						</g>
						<g id="Grupo_1150" transform="translate(0 35.761)">
							<rect id="Rectángulo_1914" x="-5.9" y="2.7" class="st9" width="3.1" height="2.5"/>
							<rect id="Rectángulo_1915" x="-1.6" y="0.6" class="st9" width="4.4" height="4.6"/>
							<rect id="Rectángulo_1916" x="4.8" y="1.6" class="st9" width="3" height="3.6"/>
							<rect id="Rectángulo_1917" x="9.2" y="0" class="st9" width="4.1" height="5.2"/>
							<rect id="Rectángulo_1918" x="-8.5" y="5.2" class="st29" width="21.8" height="1"/>
						</g>
						<g id="Grupo_1151" transform="translate(0 54.852)">
							<rect id="Rectángulo_1919" x="-5.9" y="2.7" class="st9" width="3.1" height="2.5"/>
							<rect id="Rectángulo_1920" x="-1.6" y="0.6" class="st9" width="4.4" height="4.6"/>
							<rect id="Rectángulo_1921" x="4.8" y="1.6" class="st9" width="3" height="3.6"/>
							<rect id="Rectángulo_1922" x="9.2" y="0" class="st9" width="4.1" height="5.2"/>
							<rect id="Rectángulo_1923" x="-8.5" y="5.2" class="st29" width="21.8" height="1"/>
						</g>
						<g id="Grupo_1152">
							<rect id="Rectángulo_1924" x="-5.9" y="2.7" class="st9" width="3.1" height="2.5"/>
							<rect id="Rectángulo_1925" x="-1.6" y="0.6" class="st9" width="4.4" height="4.6"/>
							<rect id="Rectángulo_1926" x="4.8" y="1.6" class="st9" width="3" height="3.6"/>
							<rect id="Rectángulo_1927" x="9.2" y="0" class="st9" width="4.1" height="5.2"/>
							<rect id="Rectángulo_1928" x="-8.5" y="5.2" class="st29" width="21.8" height="1"/>
						</g>
					</g>
					<g id="Grupo_1161" transform="translate(4.173 26.564)">
						<g id="Grupo_1154" transform="translate(0 8.361)">
							<rect id="Rectángulo_1929" x="4.5" y="0" class="st9" width="6.3" height="5.7"/>
							<rect id="Rectángulo_1930" x="0" y="1.5" class="st9" width="4.6" height="4.3"/>
							<rect id="Rectángulo_1931" x="-8.5" y="0.2" class="st9" width="4.1" height="5.5"/>
							<rect id="Rectángulo_1932" x="-8.5" y="5.7" class="st29" width="21.8" height="1"/>
						</g>
						<g id="Grupo_1155" transform="translate(0 26.785)">
							<rect id="Rectángulo_1933" x="4.5" y="0" class="st9" width="6.3" height="5.7"/>
							<rect id="Rectángulo_1934" x="0" y="1.5" class="st9" width="4.6" height="4.3"/>
							<rect id="Rectángulo_1935" x="-8.5" y="0.2" class="st9" width="4.1" height="5.5"/>
							<rect id="Rectángulo_1936" x="-8.5" y="5.7" class="st29" width="21.8" height="1"/>
						</g>
						<g id="Grupo_1156" transform="translate(0 45.21)">
							<rect id="Rectángulo_1937" x="4.5" y="0" class="st9" width="6.3" height="5.7"/>
							<rect id="Rectángulo_1938" x="0" y="1.5" class="st9" width="4.6" height="4.3"/>
							<rect id="Rectángulo_1939" x="-8.5" y="0.2" class="st9" width="4.1" height="5.5"/>
							<rect id="Rectángulo_1940" x="-8.5" y="5.7" class="st29" width="21.8" height="1"/>
						</g>
						<g id="Grupo_1157" transform="translate(0 18.166)">
							<rect id="Rectángulo_1941" x="7.5" y="2.7" class="st9" width="3.1" height="2.5"/>
							<rect id="Rectángulo_1942" x="1.9" y="0.6" class="st9" width="4.4" height="4.6"/>
							<rect id="Rectángulo_1943" x="-3" y="1.6" class="st9" width="3" height="3.6"/>
							<rect id="Rectángulo_1944" x="-8.5" y="0" class="st9" width="4.1" height="5.2"/>
							<rect id="Rectángulo_1945" x="-8.5" y="5.2" class="st29" width="21.8" height="1"/>
						</g>
						<g id="Grupo_1158" transform="translate(0 35.761)">
							<rect id="Rectángulo_1946" x="7.5" y="2.7" class="st9" width="3.1" height="2.5"/>
							<rect id="Rectángulo_1947" x="1.9" y="0.6" class="st9" width="4.4" height="4.6"/>
							<rect id="Rectángulo_1948" x="-3" y="1.6" class="st9" width="3" height="3.6"/>
							<rect id="Rectángulo_1949" x="-8.5" y="0" class="st9" width="4.1" height="5.2"/>
							<rect id="Rectángulo_1950" x="-8.5" y="5.2" class="st29" width="21.8" height="1"/>
						</g>
						<g id="Grupo_1159" transform="translate(0 54.852)">
							<rect id="Rectángulo_1951" x="7.5" y="2.7" class="st9" width="3.1" height="2.5"/>
							<rect id="Rectángulo_1952" x="1.9" y="0.6" class="st9" width="4.4" height="4.6"/>
							<rect id="Rectángulo_1953" x="-3" y="1.6" class="st9" width="3" height="3.6"/>
							<rect id="Rectángulo_1954" x="-8.5" y="0" class="st9" width="4.1" height="5.2"/>
							<rect id="Rectángulo_1955" x="-8.5" y="5.2" class="st29" width="21.8" height="1"/>
						</g>
						<g id="Grupo_1160">
							<rect id="Rectángulo_1956" x="7.5" y="2.7" class="st9" width="3.1" height="2.5"/>
							<rect id="Rectángulo_1957" x="1.9" y="0.6" class="st9" width="4.4" height="4.6"/>
							<rect id="Rectángulo_1958" x="-3" y="1.6" class="st9" width="3" height="3.6"/>
							<rect id="Rectángulo_1959" x="-8.5" y="0" class="st9" width="4.1" height="5.2"/>
							<rect id="Rectángulo_1960" x="-8.5" y="5.2" class="st29" width="21.8" height="1"/>
						</g>
					</g>
					<path id="Trazado_11290" class="st6" d="M-0.3,27.4c0.2-1.4,1.5-2.3,2.9-2.1s2.3,1.5,2.1,2.9c0,0.2-0.1,0.4-0.2,0.5
						c0.7-2.2,3-3.4,5.2-2.7c1.3,0.4,2.3,1.4,2.7,2.7c0.7-2.2,3-3.4,5.2-2.7c1.3,0.4,2.3,1.4,2.7,2.7c0.7-2.2,3-3.4,5.2-2.7
						c1.3,0.4,2.3,1.4,2.7,2.7c0.7-2.2,3-3.4,5.2-2.7c1.3,0.4,2.3,1.4,2.7,2.7c0.7-2.2,3-3.4,5.2-2.7c1.3,0.4,2.3,1.4,2.7,2.7
						c-0.5-1.3,0.1-2.8,1.4-3.3s2.8,0.1,3.3,1.4c0.1,0.2,0.1,0.4,0.2,0.5V15.4H-0.3V27.4z"/>
					<g id="Grupo_1162" transform="translate(0.9)">
						<path id="Trazado_11291" class="st5" d="M50.8,0H-3.7l-4.8,14.6v4.2c0,2.3,1.9,4.2,4.2,4.2c1.8,0,3.4-1.2,4-2.9
							c0.7,2.2,3,3.4,5.2,2.7c1.3-0.4,2.3-1.4,2.7-2.7c4.2-1.7,9-0.6,11.9,2.9c0.7-2.2,3-3.4,5.2-2.7c1.3,0.4,2.3,1.4,2.7,2.7
							c0.7-2.2,3-3.4,5.2-2.7c1.3,0.4,2.3,1.4,2.7,2.7c0.7-2.2,3-3.4,5.2-2.7c1.3,0.4,2.3,1.4,2.7,2.7c0.7-2.2,3-3.4,5.2-2.7
							c1.3,0.4,2.3,1.4,2.7,2.7c2.3,0,4.2-1.9,4.2-4.2l0,0v-4.2L50.8,0z"/>
						<path id="Trazado_11292" class="st4" d="M10,0H3.1l-3.5,14.6v5.5c0.7,2.2,3,3.4,5.2,2.7c1.3-0.4,2.3-1.4,2.7-2.7v-5.5L10,0z"
							/>
						<path id="Trazado_11293" class="st4" d="M16.7,0l-1.2,14.6v5.5c0.7,2.2,3,3.4,5.2,2.7c1.3-0.4,2.3-1.4,2.7-2.7V0H16.7z"/>
						<path id="Trazado_11294" class="st4" d="M31.5,14.6v5.5c0.7,2.2,3,3.4,5.2,2.7c1.3-0.4,2.3-1.4,2.7-2.7v-5.5L37.1,0h-6.8
							L31.5,14.6z"/>
						<path id="Trazado_11295" class="st4" d="M51.4,23c2.3,0,4.2-1.9,4.2-4.2v-4.2L50.8,0H44l3.5,14.6v5.5
							C47.9,21.8,49.5,23,51.4,23z"/>
						<path id="Trazado_11296" class="st6" d="M-4.3,23c1.8,0,3.4-1.2,4-2.9c0.7,2.2,3,3.4,5.2,2.7c1.3-0.4,2.3-1.4,2.7-2.7
							c4.2-1.7,9-0.6,11.9,2.9c0.7-2.2,3-3.4,5.2-2.7c1.3,0.4,2.3,1.4,2.7,2.7c0.7-2.2,3-3.4,5.2-2.7c1.3,0.4,2.3,1.4,2.7,2.7
							c0.7-2.2,3-3.4,5.2-2.7c1.3,0.4,2.3,1.4,2.7,2.7c0.7-2.2,3-3.4,5.2-2.7c1.3,0.4,2.3,1.4,2.7,2.7c2.3,0,4.2-1.9,4.2-4.2v-4.2
							h-64v4.2C-8.5,21.1-6.6,23-4.3,23L-4.3,23z"/>
					</g>
					<rect id="Rectángulo_1961" x="-3.7" y="90.5" class="st0" width="56.2" height="4.5"/>
					<rect id="Rectángulo_1962" x="-8.5" y="94.7" class="st0" width="65.8" height="4.5"/>
				</g>
				<g id="Grupo_1178" transform="translate(36.016 33.199)">
					<path id="Trazado_11297" class="st30" d="M4.2,13.9l-6.5,1.6c0,0-8.8,10.8-5.5,13.6s23.2,1.6,23.2,1.6s5-0.2,3.3-4.5
						S12.6,15,12.6,15S11.2,13.7,4.2,13.9z"/>
					<g id="Grupo_1168" transform="translate(4.881 32.721)">
						<g id="Grupo_1164" transform="translate(13.657 39.373)">
							<path id="Trazado_11298" class="st30" d="M-8,0.2c0,0-0.8,3.1-0.4,3.7c0.4,0.5,5.7,0.6,7,0.2s-0.2-1.8-1.8-1.8
								c0,0-1.7-0.9-2.1-1.2s-0.2-1-0.7-1C-6.6,0-7.3,0.1-8,0.2z"/>
							<path id="Trazado_11299" class="st31" d="M-6.2,2.2c0.2-0.6,0.7-0.9,1.3-1"/>
							<path id="Trazado_11300" class="st31" d="M-4.9,2.6c0,0,0.3-0.8,1-0.8"/>
							<path id="Trazado_11301" class="st4" d="M-6.8,2.2c0,0.3-0.2,0.5-0.5,0.5s-0.5-0.2-0.5-0.5s0.2-0.5,0.5-0.5S-6.8,1.9-6.8,2.2
								L-6.8,2.2z"/>
							<path id="Trazado_11302" class="st4" d="M-8.5,3.3c0,0.2,0,0.4,0.1,0.5C-8,4.3-2.7,4.4-1.4,4s-0.2-1.8-1.8-1.8
								c-0.3,0.4-0.5,0.9-0.3,1.4C-5.1,3.9-6.8,3.7-8.5,3.3z"/>
						</g>
						<g id="Grupo_1165" transform="translate(0 40.183)">
							<path id="Trazado_11303" class="st30" d="M-6.2,0c0,0-0.9,1.9-1.1,2.2c0,0-1.1,0-1.2,1.8c0,0,1.7,0.9,4.8,0l-0.2-4H-6.2z"/>
							<path id="Trazado_11304" class="st31" d="M-4.4,2C-5.2,1.4-6.1,1.3-7,1.6"/>
							<path id="Trazado_11305" class="st31" d="M-4.4,0.8C-5,0.5-5.8,0.4-6.5,0.6"/>
							<path id="Trazado_11306" class="st4" d="M-8.5,4c0,0,1.7,0.9,4.8,0l-0.1-1C-3.9,3.2-4,3.4-4.2,3.5c0,0,0-1.3-3.1-1.2
								C-7.3,2.2-8.4,2.3-8.5,4z"/>
						</g>
						<g id="Grupo_1167" transform="translate(1.349)">
							<path id="Trazado_11307" class="st0" d="M-5.4,0l10,0.1c0,0,2,21.9,2.1,24.5s1.1,14.1,0.8,15S4,40.4,3.8,40.1
								S1.7,27.5,1.6,26.2S0.2,15.7,0.2,15.7s-1.4,7.7-1.8,9.5s-2.6,14.9-2.6,14.9c-1,1-3.9,0.5-4.2,0s0.6-15.2,0.6-17
								C-7.9,19.2-5.4,0-5.4,0z"/>
							<g id="Grupo_1166" transform="translate(0.468 0.064)">
								<path id="Trazado_11308" class="st32" d="M-4.9,0c0,0-0.6,3.9-1,8.1c-0.3,2.7-1.2,14-1.3,15.5s-1.2,16.7-1.2,16.7"/>
								<path id="Trazado_11309" class="st32" d="M0,12.1c0,0,1.7,11.7,1.9,13.8s1.6,14.2,1.6,14.2"/>
								<path id="Trazado_11310" class="st33" d="M-3.6,0.6c0,0,0.5,3.4,0,3.8c-0.6,0.3-1.3,0.5-2,0.6"/>
								<path id="Trazado_11311" class="st33" d="M3.1,0.6L3.5,4l1.2,1"/>
								<path id="Trazado_11312" class="st33" d="M-0.3,15.7c0,0,0.7-9,0.7-15.1"/>
								<path id="Trazado_11313" class="st33" d="M1.4,0c0.1,1.4,0.1,2.8,0,4.3C1.2,4.7,0.8,5,0.3,5"/>
							</g>
						</g>
					</g>
					<g id="Grupo_1174" transform="translate(9.513 0)">
						<g id="Grupo_1169" transform="translate(1.672 9.515)">
							<path id="Trazado_11314" class="st18" d="M-8.1,0C-7.8,1.6-8,3.2-8.5,4.7c1.1,1,2.9,1,4,0C-4.8,3.5-4.9,2.2-4.7,1L-8.1,0z"/>
							<path id="Trazado_11315" class="st34" d="M-8.1,0C-8,0.7-8,1.4-8,2.1c0.5,0.8,1.3,1.6,2.2,1.6c0.4,0,0.8-0.2,1.1-0.4
								c0-0.8,0-1.5,0.1-2.3L-8.1,0z"/>
						</g>
						<g id="Grupo_1173">
							<path id="Trazado_11316" class="st35" d="M1.2,4.1c0.6,0.3,1.3,0.4,2,0.3c1.1-0.2,0.1,1.9-1.7,2.3C1,5.9,0.9,4.9,1.2,4.1z"/>
							<path id="Trazado_11317" class="st18" d="M-1.3,2.1c3.6,1.2,3.1,4.5,2.1,6.7c-0.9,1.9-2.6,3.9-4.7,3.3s-4-2.7-2.8-6.6
								C-5.8,2.5-3.6,1.3-1.3,2.1z"/>
							<path id="Trazado_11318" class="st28" d="M-6.5,4.9c0,0,1.1,0,2.5-1.7c1.4,0.9,3,1.5,4.7,1.5c2.8,0.1,3.3-1.8,2.1-2
								c0,0,1.2-2,0.1-2.5S0.5,1-1.5,0.5S-5-0.2-5.2,1.2C-5.7,0.9-6.3,1-6.6,1.4c-0.6,0.8-0.2,4.4-0.2,4.4L-6.5,4.9z"/>
							<g id="Grupo_1170" transform="translate(0 3.334)">
								<path id="Trazado_11319" class="st36" d="M-7.1,4l0.6-2.5c0,0-0.1-1.7-1-1.5C-8.7,0.2-9.1,3.9-7.1,4z"/>
								<path id="Trazado_11320" class="st37" d="M-7.5,0c-0.4,0.1-0.7,0.5-0.9,1.1c0.7-0.2,1.4,0,1.9,0.6V1.6
									C-6.5,1.5-6.5-0.1-7.5,0z"/>
							</g>
							<g id="Grupo_1171" transform="translate(8.385 7.301)">
								<path id="Trazado_11321" class="st36" d="M-8.5,2.9l1.2-2.2c0,0,1.2-1.2,1.8-0.4C-4.7,1.2-6.9,4.2-8.5,2.9z"/>
								<path id="Trazado_11322" class="st37" d="M-5.5,0.3c-0.6-0.8-1.8,0.4-1.8,0.4v0.1C-6.6,0.7-5.9,1-5.6,1.6
									C-5.3,1.2-5.3,0.7-5.5,0.3z"/>
							</g>
							<g id="Grupo_1172" transform="translate(2.108 4.156)">
								<path id="Trazado_11323" class="st38" d="M-3.5,1.4c-0.5,0.6-1,1.3-1.3,2c0,0,0.8,0.3,0.9,0.5c0.1,0.2-1.2,0.8-1.2,0.8"/>
								<path id="Trazado_11324" class="st39" d="M-5.7,1.8C-5.8,2-6,2.2-6.1,2.2c-0.2-0.1-0.3-0.3-0.2-0.5c0.1-0.2,0.2-0.4,0.4-0.3
									C-5.8,1.4-5.7,1.6-5.7,1.8z"/>
								<path id="Trazado_11325" class="st39" d="M-2.6,3.1c0,0.2-0.2,0.3-0.4,0.3c-0.2-0.1-0.3-0.3-0.2-0.5S-3,2.5-2.8,2.6
									C-2.6,2.7-2.5,2.9-2.6,3.1z"/>
								<path id="Trazado_11326" class="st28" d="M-6.3,0.5c0.2-0.2,0.4-0.4,0.7-0.4C-5.4,0-5.2,0-5.1,0s0.3,0.2,0.3,0.3
									c0,0.2-0.6,0.1-0.7,0.1C-5.7,0.4-6.2,0.6-6.3,0.5z"/>
								<path id="Trazado_11327" class="st28" d="M-2.5,1.2c0.1,0,0.2-0.1,0.3,0C-2,1.3-1.8,1.4-1.8,1.6c0.1,0.1,0.1,0.3,0.1,0.5
									c0,0-0.1,0.4-0.1,0.3c0-0.1-0.1-0.2-0.1-0.3S-2,1.9-2.1,1.8s-0.2-0.1-0.2-0.2C-2.3,1.5-2.6,1.3-2.5,1.2L-2.5,1.2z"/>
								<path id="Trazado_11328" class="st38" d="M-6.9,4.5C-6.6,5.4-5.7,6-4.8,5.8"/>
								<path id="Trazado_11329" class="st40" d="M-6.3,3.4C-6.4,4-7,4.4-7.6,4.3s-1-0.7-0.9-1.3s0.7-1,1.3-0.9c0.1,0,0.1,0,0.2,0
									C-6.5,2.2-6.2,2.8-6.3,3.4z"/>
								<path id="Trazado_11330" class="st40" d="M-1.5,5.1c-0.1,0.6-0.7,1-1.3,0.9s-1-0.7-0.9-1.3c0.1-0.6,0.7-1,1.3-0.9
									c0.1,0,0.1,0,0.2,0C-1.7,4-1.4,4.6-1.5,5.1z"/>
							</g>
						</g>
					</g>
					<g id="Grupo_1175" transform="translate(7.008 13.902)">
						<path id="Trazado_11331" class="st14" d="M-5.6,0.5c0.6,1.4,1.2,2.7,1.9,4c0.3,0.2,3.5,0,3.8-0.3c0.3-1.3,0.5-2.6,0.6-4
							C1,0,1.4,0,1.7,0.2c0,0,0.5,4.8,0.6,5.2c0.7,0.8,1.3,1.7,2,2.4c0.2,0.3,0.4,8.8,0.4,11.1s2.5,12.3,2.4,12.9s-4.3,1.9-8.3,1.9
							s-7.3-1.7-7.3-2s2.8-12.1,2.9-13.4s-2.3-8.4-2.2-8.8s1.3-3.2,1.5-3.8C-6.5,4-6.9,2.4-7.4,0.9C-7.5,0.6-6.1,0.1-5.6,0.5z"/>
						<path id="Trazado_11332" class="st41" d="M2.3,12.4c-1.2,1.8-3.1,2.9-5.2,3.3c1.5,0.3,3,0.3,4.5,0"/>
					</g>
					<rect id="Rectángulo_1963" x="-2.3" y="21.2" class="st42" width="15.4" height="12.1"/>
					<path id="Trazado_11333" class="st43" d="M12.2,24.2H-1.2l-1-2.9h15.4L12.2,24.2z"/>
					<path id="Trazado_11334" class="st43" d="M12.2,30.4H-1.2l-1,2.9h15.4L12.2,30.4z"/>
					<rect id="Rectángulo_1964" x="2.8" y="26.3" class="st44" width="5" height="1.9"/>
					<g id="Grupo_1176" transform="translate(4.523 25.137)">
						<path id="Rectángulo_1965" class="st45" d="M-7.9,0h2.4c0.4,0,0.6,0.3,0.6,0.6l0,0c0,0.4-0.3,0.6-0.6,0.6h-2.4
							c-0.4,0-0.6-0.3-0.6-0.6l0,0C-8.5,0.3-8.2,0-7.9,0z"/>
						<path id="Rectángulo_1966" class="st45" d="M-7.9,3.6h2.4c0.4,0,0.6,0.3,0.6,0.6l0,0c0,0.4-0.3,0.6-0.6,0.6h-2.4
							c-0.4,0-0.6-0.3-0.6-0.6l0,0C-8.5,3.9-8.2,3.6-7.9,3.6z"/>
						<path id="Rectángulo_1967" class="st45" d="M-7.9,1.2h3c0.4,0,0.6,0.3,0.6,0.6l0,0c0,0.4-0.3,0.6-0.6,0.6h-3
							c-0.4,0-0.6-0.3-0.6-0.6l0,0C-8.5,1.5-8.2,1.2-7.9,1.2z"/>
						<path id="Rectángulo_1968" class="st45" d="M-7.9,2.5h2.7c0.4,0,0.6,0.3,0.6,0.6l0,0c0,0.4-0.3,0.6-0.6,0.6h-2.7
							c-0.4,0-0.6-0.3-0.6-0.6l0,0C-8.5,2.8-8.2,2.5-7.9,2.5z"/>
					</g>
					<g id="Grupo_1177" transform="translate(19.229 25.137)">
						<path id="Rectángulo_1969" class="st45" d="M-4.8,1.3h-2.4c-0.4,0-0.6-0.3-0.6-0.6l0,0C-7.9,0.3-7.6,0-7.3,0h2.4
							c0.4,0,0.6,0.3,0.6,0.6l0,0C-4.2,1-4.5,1.3-4.8,1.3z"/>
						<path id="Rectángulo_1970" class="st45" d="M-4.8,4.9h-2.4c-0.4,0-0.6-0.3-0.6-0.6l0,0c0-0.4,0.3-0.6,0.6-0.6h2.4
							c0.4,0,0.6,0.3,0.6,0.6l0,0C-4.2,4.6-4.5,4.9-4.8,4.9z"/>
						<path id="Rectángulo_1971" class="st45" d="M-4.8,2.5h-3c-0.4,0-0.6-0.3-0.6-0.6l0,0c0-0.4,0.3-0.6,0.6-0.6h3
							c0.4,0,0.6,0.3,0.6,0.6l0,0C-4.2,2.2-4.5,2.5-4.8,2.5z"/>
						<path id="Rectángulo_1972" class="st45" d="M-4.8,3.7h-2.7c-0.4,0-0.6-0.3-0.6-0.6l0,0c0-0.4,0.3-0.6,0.6-0.6h2.7
							c0.4,0,0.6,0.3,0.6,0.6l0,0C-4.2,3.5-4.5,3.7-4.8,3.7z"/>
					</g>
				</g>
				<g id="Grupo_1255" transform="translate(0 49.552)">
					<path id="Trazado_11450" class="st13" d="M81.9,29.4L81.1,32h-1.4l-1.9,29H63.4l1.1-31.6H81.9z"/>
					<path id="Trazado_11451" class="st10" d="M64.4,61H-5l-1.5-29h72.3L64.4,61z"/>
					<path id="Trazado_11452" class="st13" d="M62.1,58.6H31.7l0.8-23.5l29.9,0.2L62.1,58.6z M32.1,58.2h29.6l0.2-22.4l-29.1-0.2
						L32.1,58.2z"/>
					<path id="Trazado_11453" class="st9" d="M68.2,29.4H-8.5l0.3,2.6H68L68.2,29.4z"/>
					
						<linearGradient id="Trazado_11454_1_" gradientUnits="userSpaceOnUse" x1="-2017.4913" y1="238.0022" x2="-2016.7943" y2="245.2312" gradientTransform="matrix(72.335 0 0 3.362 145946.9688 -775.9973)">
						<stop  offset="0" style="stop-color:#5393D0"/>
						<stop  offset="0.119" style="stop-color:#5393D0;stop-opacity:0.976"/>
						<stop  offset="0.258" style="stop-color:#5393D0;stop-opacity:0.91"/>
						<stop  offset="0.407" style="stop-color:#5393D0;stop-opacity:0.796"/>
						<stop  offset="0.562" style="stop-color:#5393D0;stop-opacity:0.639"/>
						<stop  offset="0.723" style="stop-color:#5393D0;stop-opacity:0.439"/>
						<stop  offset="0.885" style="stop-color:#5393D0;stop-opacity:0.196"/>
						<stop  offset="1" style="stop-color:#5393D0;stop-opacity:0"/>
					</linearGradient>
					<path id="Trazado_11454" class="st46" d="M-6.4,32h72.3l-0.2,3.4l-72.1-1.7L-6.4,32z"/>
					<path id="Trazado_11455" class="st47" d="M67.7,29.7H-8l0.3,1.2h75.3L67.7,29.7z"/>
					<g id="Grupo_1254" transform="translate(20.107 0)">
						<path id="Trazado_11456" class="st48" d="M10.6,29.4H-8.1l1.3-8.5H7.9L10.6,29.4z"/>
						<path id="Trazado_11457" class="st49" d="M7.9,20.9h2.3l4.5,8.5h-4.1L7.9,20.9z"/>
						
							<linearGradient id="Trazado_11458_1_" gradientUnits="userSpaceOnUse" x1="-1281.6244" y1="78.0911" x2="-1281.6844" y2="76.8402" gradientTransform="matrix(1.8 0 0 10.492 2305.1167 -797.5412)">
							<stop  offset="0" style="stop-color:#F5EBCB"/>
							<stop  offset="0.414" style="stop-color:#B7C2B1"/>
							<stop  offset="0.84" style="stop-color:#759696"/>
						</linearGradient>
						<path id="Trazado_11458" class="st50" d="M-1,10.5h-1.8L-2.6,21h1.5L-1,10.5z"/>
						<path id="Trazado_11459" class="st48" d="M4.3,0H-8.5l1,9.8H3.6L4.3,0z"/>
						
							<radialGradient id="Trazado_11460_1_" cx="-1879.0386" cy="112.1071" r="1.897" gradientTransform="matrix(7.2008 0 0 7.2 13523.835 -806.7101)" gradientUnits="userSpaceOnUse">
							<stop  offset="5.000000e-03" style="stop-color:#22567D"/>
							<stop  offset="0.255" style="stop-color:#1F4E75"/>
							<stop  offset="0.63" style="stop-color:#1A3962"/>
							<stop  offset="1" style="stop-color:#131F49"/>
						</radialGradient>
						<path id="Trazado_11460" class="st51" d="M-6.3,8.5L-7,1.3H3L2.4,8.5H-6.3z"/>
						<path id="Trazado_11461" class="st49" d="M-7.5,9.8l0.6,0.7H4.8l0.7-9.6L4.3,0L3.6,9.8H-7.5z"/>
						<path id="Trazado_11462" class="st49" d="M-7.1,1.3l0.7,7.2H-6l-0.6-6.7l9.5-0.2V1.2L-7.1,1.3z"/>
						<path id="Trazado_11463" class="st49" d="M-6.5,26.8l-0.3,1.9h-0.3l0.3-1.9H-6.5z M-6.1,26.8l-0.3,1.9h0.3l0.3-1.9H-6.1z
							 M-5.4,26.8l-0.3,1.9h0.3l0.3-1.9H-5.4z M-4.6,26.8l-0.3,1.9h0.3l0.3-1.9H-4.6z M-3.9,26.8l-0.3,1.9h0.3l0.3-1.9H-3.9z"/>
						
							<linearGradient id="Trazado_11464_1_" gradientUnits="userSpaceOnUse" x1="420.2659" y1="82.8157" x2="423.5999" y2="84.2516" gradientTransform="matrix(0.573 0 0 9.728 -243.9486 -797.0923)">
							<stop  offset="0.168" style="stop-color:#BDB58F"/>
							<stop  offset="0.256" style="stop-color:#B3AB87"/>
							<stop  offset="0.406" style="stop-color:#989273"/>
							<stop  offset="0.598" style="stop-color:#6D6953"/>
							<stop  offset="0.823" style="stop-color:#333126"/>
							<stop  offset="1" style="stop-color:#000000"/>
						</linearGradient>
						<path id="Trazado_11464" class="st52" d="M-2.5,10.9l0.1,9.7h0.5v-9.7C-1.9,10.9-2.5,10.9-2.5,10.9z"/>
						
							<linearGradient id="Trazado_11465_1_" gradientUnits="userSpaceOnUse" x1="-1903.5223" y1="138.0428" x2="-1902.0413" y2="139.6647" gradientTransform="matrix(8.199 0 0 5.83 15597.2354 -806.0375)">
							<stop  offset="0" style="stop-color:#858274"/>
							<stop  offset="0.722" style="stop-color:#252420"/>
							<stop  offset="1" style="stop-color:#000000"/>
						</linearGradient>
						<path id="Trazado_11465" class="st53" d="M-6.3,2l0.7,5.8C-2.8,6.3-0.3,4.3,1.9,2H-6.3z"/>
						
							<linearGradient id="Trazado_11466_1_" gradientUnits="userSpaceOnUse" x1="-1983.8617" y1="108.9565" x2="-1983.1818" y2="111.5785" gradientTransform="matrix(15.229 0 0 7.2819 30202.3418 -786.5501)">
							<stop  offset="0.168" style="stop-color:#BDB58F"/>
							<stop  offset="0.256" style="stop-color:#B3AB87"/>
							<stop  offset="0.406" style="stop-color:#989273"/>
							<stop  offset="0.598" style="stop-color:#6D6953"/>
							<stop  offset="0.823" style="stop-color:#333126"/>
							<stop  offset="1" style="stop-color:#000000"/>
						</linearGradient>
						<path id="Trazado_11466" class="st54" d="M-6.5,21.4h14v0.4L-6,22.3l-1.1,6.3h-0.5L-6.5,21.4z"/>
					</g>
					<path id="Trazado_11467" class="st13" d="M24.2,58.6H-2.3l-1.4-23.5l28.2,0.2L24.2,58.6z M-1.9,58.2h25.7L24,35.8l-27.3-0.2
						L-1.9,58.2z"/>
					<path id="Trazado_11468" class="st0" d="M68.2,29.4h13.7L81.1,32H68L68.2,29.4z"/>
				</g>
			</g>
			<circle id="Elipse_87" class="st55" cx="-21719.4" cy="-20005.7" r="11.7"/>
			<circle id="Elipse_88" class="st55" cx="-21719.4" cy="-20068.5" r="11.7"/>
			<circle id="Elipse_89" class="st55" cx="-21738.8" cy="-20031" r="11.7"/>
			<circle id="Elipse_90" class="st55" cx="-21739.6" cy="-20099.4" r="11.7"/>
			<circle id="Elipse_91" class="st55" cx="-21699.3" cy="-20099.4" r="11.7"/>
			<circle id="Elipse_92" class="st55" cx="-21755.7" cy="-20061.6" r="11.7"/>
			<circle id="Elipse_93" class="st55" cx="-21803.7" cy="-20071.7" r="11.7"/>
			<circle id="Elipse_94" class="st55" cx="-21773.4" cy="-20091" r="11.7"/>
			<circle id="Elipse_95" class="st55" cx="-21633.5" cy="-20071.7" r="11.7"/>
			<circle id="Elipse_96" class="st55" cx="-21663.8" cy="-20091" r="11.7"/>
			<circle id="Elipse_97" class="st55" cx="-21682.2" cy="-20061.6" r="11.7"/>
			<circle id="Elipse_98" class="st55" cx="-21699.7" cy="-20031" r="11.7"/>
			<g id="Grupo_1256" transform="translate(-21717.723 -20012.188)">
				<path id="Trazado_11469" class="st56" d="M2.3,13.5h-8c-1.5,0-2.8-1.2-2.8-2.8c0-0.2,0.2-0.4,0.4-0.4l0,0H4.7
					c0.2,0,0.4,0.2,0.4,0.4l0,0C5.1,12.3,3.8,13.5,2.3,13.5L2.3,13.5z"/>
				<path id="Trazado_11470" class="st56" d="M-1.7,0c-3.7,0-6.8,2.3-6.8,5.2c0,0.2,0.2,0.4,0.4,0.4l0,0H4.7c0.2,0,0.4-0.2,0.4-0.4
					l0,0C5.1,2.3,2,0-1.7,0L-1.7,0z M-4.6,3.1l-0.8,0.8C-5.6,4-5.9,4-6,3.8c-0.1-0.1-0.1-0.3,0-0.5l0.8-0.8c0.1-0.2,0.4-0.2,0.6-0.1
					S-4.4,2.8-4.6,3.1C-4.6,3-4.6,3-4.6,3.1z M-2.2,3.1L-3,3.9C-3.2,4-3.5,4-3.6,3.8c-0.1-0.1-0.1-0.3,0-0.5l0.8-0.8
					c0.1-0.2,0.4-0.2,0.6-0.1S-2,2.8-2.2,3.1C-2.2,3-2.2,3-2.2,3.1z M0.1,3.1l-0.8,0.8C-0.8,4-1.1,4-1.2,3.8c-0.1-0.1-0.1-0.3,0-0.5
					l0.8-0.8C-0.3,2.3,0,2.3,0.1,2.4S0.3,2.8,0.1,3.1C0.2,3,0.2,3,0.1,3.1z M2.3,3.1L1.5,3.9C1.4,4,1.1,4,1,3.8S0.9,3.4,1,3.3
					l0.8-0.8c0.1-0.2,0.4-0.2,0.6-0.1S2.5,2.8,2.3,3.1C2.4,3,2.4,3,2.3,3.1L2.3,3.1z"/>
				<path id="Trazado_11471" class="st56" d="M-8.1,7.2c0.2,0,0.3,0,0.5,0.1C-7.7,7.5-7.7,7.8-7.7,8C-7.8,8-8,8-8.1,8
					c-0.2,0-0.4-0.2-0.3-0.4C-8.4,7.3-8.3,7.2-8.1,7.2L-8.1,7.2z"/>
				<path id="Trazado_11472" class="st56" d="M5,7.6C5,7.8,4.9,8,4.7,8l0,0C4.5,8,4.4,8,4.2,8c0-0.3,0-0.5-0.1-0.8
					c0.2,0,0.3-0.1,0.5-0.1C4.9,7.2,5,7.3,5,7.6L5,7.6L5,7.6z"/>
				<path id="Trazado_11473" class="st56" d="M-7.6,7.2C-7.3,7.3-7,7.5-6.8,7.6C-6.6,7.9-6.3,8-6,8s0.6-0.1,0.8-0.3
					c0.4-0.3,0.8-0.5,1.3-0.5S-3,7.4-2.6,7.7c0.5,0.4,1.2,0.4,1.6,0c0.4-0.3,0.8-0.5,1.3-0.5s1,0.2,1.3,0.5C1.9,7.9,2.2,8,2.5,8
					s0.6-0.1,0.8-0.3c0.2-0.2,0.5-0.3,0.8-0.4c0-0.4-0.2-0.7-0.4-0.9H-7.2C-7.4,6.6-7.5,6.9-7.6,7.2L-7.6,7.2z"/>
				<path id="Trazado_11474" class="st56" d="M3.8,9.6c0.3-0.4,0.5-1,0.5-1.5C4.1,8.1,4,8.2,3.8,8.3C3.1,8.9,2,8.9,1.2,8.3
					C1,8.1,0.7,8,0.4,8s-0.6,0.1-0.8,0.3c-0.7,0.6-1.8,0.6-2.6,0C-3.3,8.1-3.5,8-3.9,8c-0.3,0-0.6,0.1-0.8,0.3
					c-0.7,0.6-1.9,0.6-2.6,0C-7.4,8.2-7.6,8.1-7.7,8c0,0.5,0.2,1.1,0.5,1.5h11V9.6z"/>
			</g>
			<g id="Grupo_1257" transform="translate(-21736.607 -20037.34)">
				<path id="Trazado_11475" class="st57" d="M4,9.1c-0.1-1.8-4.2-3-4.2-3s-3.7-4-5.3-6.1c-2.7,1-3.3,2.3-2.9,4.6
					c1.3-1.1,3.5,0.9,6.2,4.6L4,9.1z"/>
				<path id="Trazado_11476" class="st57" d="M-8.4,4.6l0.9,4.7h0.4C-7,7.2-6.7,4.7-5.3,5.5C-5.3,3.6-8.4,3.6-8.4,4.6z"/>
			</g>
			<g id="Grupo_1259" transform="translate(-21697.889 -20039.15)">
				<path id="Trazado_11477" class="st0" d="M-4.6,3.2v-1C-4.6,2.1-4.7,2-4.8,2l0,0h-3.4c-0.1,0-0.2,0.1-0.2,0.2l0,0v1H-4.6z"/>
				<path id="Trazado_11478" class="st0" d="M-8.5,3.7v8h3.9v-8C-4.6,3.7-8.5,3.7-8.5,3.7z M-5.6,6.8h-2c-0.1,0-0.2-0.1-0.2-0.2l0,0
					v-2c0-0.1,0.1-0.2,0.2-0.2l0,0h2c0.1,0,0.2,0.1,0.2,0.2l0,0v2C-5.3,6.7-5.4,6.8-5.6,6.8L-5.6,6.8L-5.6,6.8z"/>
				<path id="Trazado_11479" class="st0" d="M-8.5,13.2v1.2c0,0.1,0.1,0.2,0.2,0.2l0,0h3.4c0.1,0,0.2-0.1,0.2-0.2l0,0v-1.2H-8.5z"/>
				<rect id="Rectángulo_1976" x="-8.5" y="12.2" class="st0" width="3.9" height="0.5"/>
				<rect id="Rectángulo_1977" x="-4.1" y="12.2" class="st0" width="3.2" height="0.5"/>
				<path id="Trazado_11480" class="st0" d="M-0.9,1V0.2C-0.9,0.1-1,0-1.2,0l0,0h-2.7C-4,0-4.1,0.1-4.1,0.2l0,0V1H-0.9z"/>
				<rect id="Rectángulo_1978" x="-4.1" y="2.7" class="st0" width="3.2" height="9"/>
				<path id="Trazado_11481" class="st0" d="M-4.1,13.2v1.2c0,0.1,0.1,0.2,0.2,0.2l0,0h2.7c0.1,0,0.2-0.1,0.2-0.2l0,0v-1.2H-4.1z"/>
				<rect id="Rectángulo_1979" x="-4.1" y="1.5" class="st0" width="3.2" height="0.7"/>
				<path id="Trazado_11482" class="st0" d="M-0.5,5.1l0.1,0.5l4.1-1.1l0-0.5L-0.5,5.1z"/>
				<path id="Trazado_11483" class="st0" d="M1.6,12.9l4.1-1.1l-0.3-1l-4.1,1.1L1.6,12.9z"/>
				<path id="Trazado_11484" class="st0" d="M5.3,10.3L3.9,4.9L-0.2,6l1.4,5.4L5.3,10.3z"/>
				<g id="Grupo_1258" transform="translate(7.562 1.952)">
					<path id="Trazado_11485" class="st0" d="M-8.1,2.6L-4,1.5l-0.3-1.3C-4.4,0.1-4.5,0-4.7,0l-3.7,1c-0.1,0-0.2,0.2-0.2,0.3
						L-8.1,2.6z"/>
					<path id="Trazado_11486" class="st0" d="M-1.7,10.3l-4.1,1.1l0.3,1.1c0,0.1,0.1,0.1,0.1,0.1h0.1c0,0,0,0,0.1,0l3.7-1
						c0.1,0,0.2-0.2,0.2-0.3L-1.7,10.3z"/>
				</g>
			</g>
			<g id="Grupo_1260" transform="translate(-21719.488 -20077.297)">
				<path id="Trazado_11487" class="st58" d="M7.4,6.1l1.2-0.3C7.7,2.5,4.7,0.1,1.3,0v1.2C4.2,1.3,6.6,3.3,7.4,6.1z"/>
				<path id="Trazado_11488" class="st58" d="M6.1,8.2c0.8,3.6-1.6,7.2-5.2,7.9S-6.3,14.6-7,11c-0.8-3.7,1.6-7.2,5.2-8
					C-1.4,2.9-1,2.9-0.6,2.9V1.6C-5,1.7-8.5,5.3-8.5,9.8s3.7,7.9,8.2,7.9c4.4-0.1,7.9-3.7,7.9-8.2c0-0.5-0.1-1.1-0.2-1.6L6.1,8.2z"
					/>
				<circle id="Elipse_99" class="st58" cx="-2.6" cy="7" r="0.6"/>
				<circle id="Elipse_100" class="st58" cx="-1.4" cy="12.5" r="0.6"/>
				<path id="Trazado_11489" class="st58" d="M-6.5,9.6c0,3.4,2.7,6.1,6.1,6.1S5.7,13,5.7,9.6c0-0.5-0.1-1-0.2-1.5L3.7,8.6
					c0.2,0.5,0,1-0.4,1.2c-0.5,0.2-1,0-1.2-0.4C1.9,9.3,1.9,9.2,1.9,9l-2.3,0.6V3.5C-3.8,3.5-6.5,6.2-6.5,9.6L-6.5,9.6z M-2.6,5.7
					c0.7,0,1.3,0.6,1.3,1.3s-0.6,1.3-1.3,1.3S-3.9,7.7-3.9,7l0,0C-3.9,6.3-3.3,5.7-2.6,5.7L-2.6,5.7z M-3.5,10.6
					c-0.4,0-0.7-0.3-0.7-0.7s0.3-0.7,0.7-0.7s0.7,0.3,0.7,0.7l0,0C-2.8,10.3-3.1,10.6-3.5,10.6z M2.2,11.9c0.4,0,0.7,0.3,0.7,0.7
					s-0.3,0.7-0.7,0.7S1.5,13,1.5,12.6l0,0C1.5,12.2,1.8,11.9,2.2,11.9z M-0.1,12.5c0,0.7-0.6,1.3-1.3,1.3s-1.3-0.6-1.3-1.3
					s0.6-1.3,1.3-1.3l0,0l0,0C-0.7,11.3-0.1,11.8-0.1,12.5z"/>
				<path id="Trazado_11490" class="st58" d="M3.3,7.3c0-0.5,0.4-0.9,0.9-0.9c0.3,0,0.7,0.2,0.8,0.5l1.8-0.4C6.3,3.8,3.8,1.8,1,1.8
					v6L3.3,7.3z M2.3,4.8c0,0.4,0.3,0.6,0.6,0.6s0.6-0.3,0.6-0.6c0-0.4-0.3-0.6-0.6-0.6C2.6,4.2,2.3,4.5,2.3,4.8L2.3,4.8z"/>
			</g>
			<g id="Grupo_1262" transform="translate(-21680.771 -20069.102)">
				<rect id="Rectángulo_1980" x="-4" y="0" class="st59" width="0.9" height="2.3"/>
				<rect id="Rectángulo_1981" x="-3.5" y="4.8" class="st59" width="4.1" height="1.6"/>
				<rect id="Rectángulo_1982" x="-1.5" y="4.8" class="st59" width="2.1" height="1.6"/>
				<g id="Grupo_1261" transform="translate(0 1.963)">
					<path id="Trazado_11491" class="st59" d="M-0.3,3.5h-2.4c-1,0-1.8-0.8-1.8-1.8V0c1.1,0,2.1,0.6,2.7,1.5l0.2,0.3l0.2-0.3
						C-0.7,0.6,0.4,0,1.5,0v1.8C1.5,2.7,0.7,3.5-0.3,3.5L-0.3,3.5z"/>
					<path id="Trazado_11492" class="st59" d="M0.6,4.4h-4.1l-5,7.6l0,0c4.6,1.4,9.5,1.4,14.1,0l0,0L0.6,4.4z"/>
				</g>
				<rect id="Rectángulo_1983" x="0.1" y="0" class="st59" width="0.9" height="2.3"/>
			</g>
			<g id="Grupo_1265" transform="translate(-21754.932 -20068.307)">
				<g id="Grupo_1264" transform="translate(0 0)">
					<g>
						<g>
							<defs>
								<rect id="SVGID_1_" x="-8.5" width="15.5" height="13.5"/>
							</defs>
							<clipPath id="SVGID_2_">
								<use xlink:href="#SVGID_1_"  style="overflow:visible;"/>
							</clipPath>
							<g id="Grupo_1263" class="st60">
								<path id="Trazado_11493" d="M-0.8,1.3"/>
								<path id="Trazado_11494" class="st13" d="M6.9,2.1c0-0.1-0.1-0.2-0.2-0.2L3.8,0.5C3.2,0.3,2.5,0.1,1.9,0
									C1.7,0,1.5,0.1,1.5,0.3C1.2,1.5,0,2.3-1.3,2C-2.2,1.8-2.8,1.2-3,0.3C-3.1,0.1-3.2,0-3.4,0c0,0,0,0-0.1,0
									c-0.6,0.1-1.3,0.3-1.9,0.5l-2.9,1.4C-8.5,2-8.5,2.2-8.5,2.3l0,0l1.3,2.5C-7.1,5-7,5.1-6.9,5.1h0.1l1.4-0.4v8.5
									c0,0.2,0.2,0.3,0.4,0.3h8.5c0.2,0,0.3-0.2,0.3-0.3V4.6L5.2,5c0.2,0,0.3,0,0.4-0.2l1.3-2.5C7,2.3,7,2.2,6.9,2.1L6.9,2.1z"/>
							</g>
						</g>
					</g>
				</g>
			</g>
			<g id="Grupo_1267" transform="translate(-21800.58 -20077.961)">
				<g id="Grupo_1266" transform="translate(0 0)">
					<path id="Trazado_11495" class="st61" d="M1.6,3.4c0-0.1,0-0.1-0.1-0.1h-1.8V2.8C-0.3,1.3-1.6,0-3.1,0S-6,1.3-6,2.8v0.5h-1.8
						c-0.1,0-0.1,0-0.1,0.1l-0.7,9c0,0.1,0,0.1,0.1,0.1l0,0H2.1c0.1,0,0.1,0,0.1-0.1l0,0L1.6,3.4z M-3.1,0.8c1.1,0,2,0.9,2.1,2v0.5
						h-4.1V2.8C-5.2,1.7-4.3,0.8-3.1,0.8z M-5.6,6.1c-0.5,0-1-0.4-1-1c0-0.4,0.2-0.8,0.6-0.9v0.9c0,0.2,0.2,0.4,0.4,0.4
						s0.4-0.2,0.4-0.4V4.2c0.4,0.1,0.6,0.5,0.6,0.9C-4.6,5.6-5,6.1-5.6,6.1z M-0.7,6.1c-0.5,0-1-0.4-1-1c0-0.4,0.2-0.8,0.6-0.9v0.9
						c0,0.2,0.2,0.4,0.4,0.4s0.4-0.2,0.4-0.4V4.2c0.4,0.1,0.6,0.5,0.6,0.9C0.3,5.6-0.2,6.1-0.7,6.1z"/>
				</g>
			</g>
			<g id="Grupo_1268" transform="translate(-21771.529 -20097.635)">
				<path id="Trazado_11496" class="st62" d="M2.4,4.7H-7.7v1.9c0,1.7,0.9,3.4,2.4,4.3H0c0.4-0.2,0.7-0.5,1-0.8h1
					c1.5,0,2.7-1.2,2.7-2.7v-2H2.4V4.7z M4,6.2v1.2c0,1.1-0.9,1.9-1.9,1.9H1.6c0.5-0.8,0.8-1.8,0.8-2.7V6.2H4z"/>
				<path id="Trazado_11497" class="st62" d="M-3.8,1.1C-3.8,0.7-4,0.2-4.4,0l-0.4,0.6c0.2,0.2,0.3,0.5,0.2,0.8
					c0,0.1-0.1,0.1-0.2,0.2C-5.4,2-5.6,2.8-5.2,3.4C-5.1,3.5-5,3.7-4.8,3.8l0.4-0.6C-4.6,3-4.7,2.7-4.6,2.4c0-0.1,0.1-0.1,0.2-0.2
					C-4,1.9-3.8,1.5-3.8,1.1z"/>
				<path id="Trazado_11498" class="st62" d="M-1.8,1.1C-1.8,0.7-2,0.2-2.4,0l-0.4,0.6c0.2,0.2,0.3,0.5,0.2,0.8
					c0,0.1-0.1,0.1-0.2,0.2C-3.5,2-3.6,2.8-3.2,3.4C-3.1,3.5-3,3.6-2.9,3.7l0.4-0.6c-0.2-0.2-0.3-0.5-0.2-0.8c0-0.1,0.1-0.1,0.2-0.2
					C-2.1,1.9-1.8,1.5-1.8,1.1z"/>
				<path id="Trazado_11499" class="st62" d="M0.1,1.1c0-0.4-0.2-0.9-0.6-1.1l-0.4,0.6c0.2,0.2,0.3,0.5,0.2,0.8
					c0,0.1-0.1,0.1-0.2,0.2C-1.5,2-1.7,2.8-1.3,3.4c0.1,0.1,0.2,0.3,0.4,0.4l0.4-0.6C-0.7,3-0.8,2.7-0.7,2.4c0-0.1,0.1-0.1,0.2-0.2
					C-0.1,1.9,0.1,1.5,0.1,1.1z"/>
				<path id="Trazado_11500" class="st62" d="M1.6,13.2c0.9,0,1.5-0.7,1.5-1.6H-8.5c0,0.9,0.7,1.5,1.5,1.6H1.6z"/>
			</g>
			<g id="Grupo_1269" transform="translate(-21739.363 -20103.6)">
				<path id="Trazado_11501" class="st0" d="M6.3,4.8H6.1c-1,0-1.9-0.3-2.7-0.9L2.2,5.1L1.5,4.4l1.1-1.1L2.1,2.8L0.8,4.1L0.1,3.4
					l1.2-1.2L0.8,1.7L-0.6,3l-0.7-0.7L0,1.1l-1.1-0.9C-1.4-0.1-1.9,0-2.2,0.3c-0.1,0.1-0.2,0.3-0.2,0.5v0.4c0,1.4-1.1,2.5-2.5,2.5
					c-1,0-1.9-0.6-2.3-1.5L-7.3,2c-0.1-0.3-0.5-0.4-0.8-0.3C-8.4,1.8-8.5,2-8.5,2.3v4.2H8.1C8,5.5,7.2,4.8,6.3,4.8z"/>
				<path id="Trazado_11502" class="st0" d="M-6.7,8.4h13c0.7,0,1.3-0.4,1.6-1H-8.3C-8,8-7.4,8.4-6.7,8.4z"/>
			</g>
			<g id="Grupo_1270" transform="translate(-21697.746 -20105.945)">
				<path id="Trazado_11503" class="st63" d="M-4,12.2l1-1l1,1l1-1l-6.6-6.6l-1,1l1,1l-1,1L-4,12.2z"/>
				<path id="Trazado_11504" class="st63" d="M-1.9,4l-2.6,2.6L-3,8.1l2.6-2.6L-1.9,4z"/>
				<path id="Trazado_11505" class="st63" d="M-0.8,0l-1,1l-1-1l-1,1l6.6,6.6l1-1l-1-1l1-1L-0.8,0z"/>
				
					<rect id="Rectángulo_1985" x="1.7" y="0.2" transform="matrix(0.7071 -0.7071 0.7071 0.7071 -0.2013 2.0724)" class="st63" width="1.4" height="2.1"/>
				
					<rect id="Rectángulo_1986" x="-8" y="9.9" transform="matrix(0.7071 -0.7071 0.7071 0.7071 -9.9024 -1.9236)" class="st63" width="1.4" height="2.1"/>
			</g>
			<path id="Trazado_11506" class="st64" d="M-21666.3-20083.8h5.1c1,0,1.8-0.8,1.8-1.8l0,0v-10.9c0-1-0.8-1.8-1.8-1.8l0,0h-5.1
				c-1,0-1.8,0.8-1.8,1.8l0,0v10.9C-21668.2-20084.6-21667.3-20083.8-21666.3-20083.8z M-21663.8-20084.9c-0.5,0-0.8-0.4-0.8-0.8
				c0-0.5,0.4-0.8,0.8-0.8c0.5,0,0.8,0.4,0.8,0.8l0,0C-21663-20085.3-21663.3-20084.9-21663.8-20084.9L-21663.8-20084.9
				L-21663.8-20084.9z M-21667.3-20095.9h7.1v8.4h-7.1V-20095.9z"/>
			<g id="Grupo_1271" transform="translate(-21630.799 -20078.314)">
				<path id="Trazado_11507" class="st65" d="M-5.6,9.4h-1.8l1.1,3.8H-5L-5.6,9.4z"/>
				<path id="Trazado_11508" class="st65" d="M-1.1,13.2l0.6-3.8h-1.8v3.8H-1.1z"/>
				<path id="Trazado_11509" class="st65" d="M1.5,5.5C2,4.7,1.7,3.7,1,3.2C0.7,3,0.4,3,0.1,3c0.1-0.2,0-0.5,0-0.7
					c-0.3-0.8-0.9-1.5-1.6-2L-1.9,0l-0.2,0.4c-0.1,0.4-0.6,0.4-1.3,0.5c-0.5,0-1,0.1-1.4,0.4c-0.5,0.4-0.8,1-0.7,1.6
					c-0.9,0-1.6,0.8-1.6,1.7c0,0.3,0.1,0.6,0.3,0.8c-0.9,0-1.6,0.8-1.6,1.7c0,0.6,0.3,1.1,0.9,1.4l0,0h9.9l0,0
					C3,8.2,3.3,7.2,2.9,6.4C2.6,5.8,2.1,5.5,1.5,5.5L1.5,5.5z"/>
				<path id="Trazado_11510" class="st65" d="M0.2,9.4l-0.6,3.8h1.3L2,9.4H0.2z"/>
				<path id="Trazado_11511" class="st65" d="M-4.3,13.2h1.2V9.4h-1.8L-4.3,13.2z"/>
			</g>
		</g>
		<g transform="matrix(1, 0, 0, 1, 435.5, 51.5)">
			<g id="form-2_1_" transform="translate(-19122.5 -14094.5)">
				<path class="st3" d="M19601,14355.5h-479v-91h168.2c5.1,0,10,1.9,13.8,5.3c3.8,3.4,6.2,8.1,6.9,13.2l0,0l0,0
					c1.5,5.9,3.9,11.4,7.2,16.4c3.2,4.9,7.1,9.2,11.6,12.8s9.6,6.4,15,8.3c5.5,2,11.4,3,17.3,3s11.8-1,17.3-3
					c5.4-1.9,10.5-4.7,15-8.4c4.5-3.6,8.5-7.9,11.6-12.9c3.3-5,5.7-10.6,7.2-16.5l0,0l0,0c0.7-5,3.2-9.7,7-13
					c3.8-3.4,8.6-5.3,13.7-5.3h167.2L19601,14355.5L19601,14355.5z"/>
				<path class="st66" d="M19600.5,14355v-90h-166.7c-2.5,0-4.9,0.5-7.2,1.4c-2.2,0.9-4.3,2.1-6.1,3.8c-3.7,3.3-6.1,7.8-6.8,12.7
					v0.1v0.1c-1.5,5.9-3.9,11.5-7.2,16.6c-3.2,5-7.2,9.3-11.8,13c-4.6,3.7-9.7,6.5-15.2,8.4c-5.6,2-11.5,3-17.5,3s-11.8-1-17.4-3
					c-5.5-1.9-10.6-4.8-15.1-8.4c-4.6-3.6-8.5-8-11.8-12.9c-3.3-5-5.7-10.6-7.3-16.5v-0.1v-0.1c-0.7-5-3.1-9.6-6.7-12.9
					c-3.7-3.4-8.5-5.2-13.4-5.2h-167.7v90L19600.5,14355 M19601.5,14356h-480v-92h168.7c10.8,0,19.7,8.3,21.2,19
					c6.1,23.6,26.8,40,50.6,40c23.9,0,44.7-16.5,50.7-40.3c1.5-10.6,10.4-18.7,21.1-18.7h167.7L19601.5,14356L19601.5,14356z"/>
			</g>
		</g>
	</g>
	<rect id="bar_white" x="434.5" y="306" class="st3" width="480" height="16"/>
</g>
</svg>
