<svg xmlns="http://www.w3.org/2000/svg" width="32" height="32" viewBox="0 0 32 32">
  <g id="Grupo_6910" data-name="Grupo 6910" transform="translate(-136 -189)">
    <rect id="bg" width="32" height="32" rx="2" transform="translate(136 189)" fill="#34538a"/>
    <path id="ic_moto" d="M6.823,89.51a3.413,3.413,0,1,1-6.739-.758L0,86.692v-.015a2.994,2.994,0,0,1,1.844-2.762A1.378,1.378,0,0,1,2.913,81.67H7.357a.362.362,0,1,1,0,.723H2.913a.655.655,0,0,0-.113,1.3l.031,0a.362.362,0,0,1,.118.013h5.9a.376.376,0,0,1,.106-.03.354.354,0,0,1,.112,0,.655.655,0,0,0-.185-1.284H6.34a.362.362,0,0,1,0-.723H8.879a1.379,1.379,0,0,1,.52,2.654L9.806,87.5h2.952a5.887,5.887,0,0,0,1.721-4.645L14.312,80.7l-.127.041a.357.357,0,0,1-.112.018.362.362,0,0,1-.338-.235l-.427-1.136-1.7.195a.362.362,0,0,1-.393-.274l-.283-1.175a.362.362,0,0,1,.291-.442l5.737-.973a.362.362,0,0,1,.4.234l.763,2.12a.362.362,0,0,1-.226.467l-1.236.4,2.727,3.512a.362.362,0,0,1,.075.258l-.078,1.916a.362.362,0,0,1-.359.326h-.036a.362.362,0,0,1-.324-.4l.064-1.772-2.8-3.6-.908.294L15.2,82.8a6.608,6.608,0,0,1-2.046,5.325.362.362,0,0,1-.249.1H9.489a.362.362,0,0,1-.358-.316l-.445-3.48H2.913q-.068,0-.136-.007A2.269,2.269,0,0,0,.721,86.672l.029.706A3.411,3.411,0,0,1,6.823,89.51Zm7.468-9.562,3.026-.98-.534-1.483-5.058.859.118.486,1.665-.19.041,0a.362.362,0,0,1,.339.234ZM6.1,89.51A2.689,2.689,0,1,0,3.41,92.2,2.689,2.689,0,0,0,6.1,89.51Zm-1.085,0a1.6,1.6,0,1,1-1.6-1.6,1.6,1.6,0,0,1,1.6,1.6Zm-.723,0a.881.881,0,1,0-.881.881.881.881,0,0,0,.881-.881ZM22.943,88.1l-.358.184a3.412,3.412,0,0,1-6.035,3.1l-.411.211a.362.362,0,0,1-.487-.157,4.168,4.168,0,0,1-.463-1.928l-1.713.5a.356.356,0,0,1-.1.015H6.6a.362.362,0,1,1,0-.723h6.725l1.944-.573a4.255,4.255,0,0,1,.125-.489,4.186,4.186,0,0,1,7.71-.629A.362.362,0,0,1,22.943,88.1Zm-6.8,2.675,4.174-2.142h0l1.632-.838h0l.322-.165a3.465,3.465,0,0,0-6.328,1.4.373.373,0,0,1-.007.056A3.427,3.427,0,0,0,16.146,90.778Zm4.113-1.3-1.439.738a.886.886,0,0,0,1.44-.691c0-.016,0-.032,0-.047Zm1.677-.859-1,.514a1.608,1.608,0,0,1-2.788,1.431l-.949.487a2.689,2.689,0,0,0,4.74-2.432Z" transform="translate(140.432 121.182)" fill="#fff"/>
  </g>
</svg>
