<svg xmlns="http://www.w3.org/2000/svg" width="32" height="32" viewBox="0 0 32 32">
  <g id="ic_phone" transform="translate(-307 -252)">
    <circle id="btn" cx="16" cy="16" r="16" transform="translate(307 252)" fill="#5393d0"/>
    <path id="phone" d="M8.064,961.362a1.086,1.086,0,0,0-.756.331,1.3,1.3,0,0,0-.308.767c.152,4.449,1.558,8.007,4.1,10.442s6.2,3.723,10.773,3.715a1.408,1.408,0,0,0,.762-.343,1.066,1.066,0,0,0,.343-.75q.012-1.59.023-3.18a1.044,1.044,0,0,0-.349-.727,1.088,1.088,0,0,0-.756-.32,15.783,15.783,0,0,1-3.4-.61.379.379,0,0,0-.349.093l-1.884,1.825a11.745,11.745,0,0,1-4.692-4.558l1.872-1.814a.38.38,0,0,0,.1-.366,12.294,12.294,0,0,1-.7-3.558,1.048,1.048,0,0,0-.448-.686,1.22,1.22,0,0,0-.762-.262H8.064Zm0,.744h3.587a.513.513,0,0,1,.3.116.712.712,0,0,1,.163.174,11.394,11.394,0,0,0,.651,3.453l-1.93,1.878a.384.384,0,0,0-.058.465,12.91,12.91,0,0,0,5.355,5.2.383.383,0,0,0,.448-.052l1.942-1.89a14.548,14.548,0,0,0,3.384.587.4.4,0,0,1,.238.11.376.376,0,0,1,.116.209l-.023,3.157a.379.379,0,0,1-.116.227.466.466,0,0,1-.267.128c-4.42,0-7.855-1.233-10.232-3.512s-3.728-5.632-3.872-9.947a.389.389,0,0,1,.093-.192.541.541,0,0,1,.227-.116Z" transform="translate(308 -701.36)" fill="#fff" stroke="#fff" stroke-width="0.3"/>
  </g>
</svg>
